SplineFontDB: 3.2
FontName: hin58m
FullName: hin58m
FamilyName: hin58m
Weight: Book
Copyright: Copyright 2022 The Noto Project Authors (https://github.com/notofonts/devanagari)
Version: 2.003
ItalicAngle: 0
UnderlinePosition: -125
UnderlineWidth: 50
Ascent: 800
Descent: 200
InvalidEm: 0
sfntRevision: 0x000200c5
LayerCount: 2
Layer: 0 1 "Back" 1
Layer: 1 1 "Fore" 0
XUID: [1021 467 -1121320856 3670528]
StyleMap: 0x0040
FSType: 0
OS2Version: 4
OS2_WeightWidthSlopeOnly: 0
OS2_UseTypoMetrics: 1
CreationTime: 1432194851
ModificationTime: 1684143397
PfmFamily: 81
TTFWeight: 400
TTFWidth: 5
LineGap: 0
VLineGap: 0
Panose: 0 0 0 0 0 0 0 0 0 0
OS2TypoAscent: 896
OS2TypoAOffset: 0
OS2TypoDescent: -408
OS2TypoDOffset: 0
OS2TypoLinegap: 0
OS2WinAscent: 896
OS2WinAOffset: 0
OS2WinDescent: 408
OS2WinDOffset: 0
HheadAscent: 896
HheadAOffset: 0
HheadDescent: -408
HheadDOffset: 0
OS2SubXSize: 650
OS2SubYSize: 600
OS2SubXOff: 0
OS2SubYOff: 75
OS2SupXSize: 650
OS2SupYSize: 600
OS2SupXOff: 0
OS2SupYOff: 350
OS2StrikeYSize: 50
OS2StrikeYPos: 322
OS2CapHeight: 622
OS2XHeight: 536
OS2Vendor: 'GOOG'
OS2CodePages: 00000093.00000000
OS2UnicodeRanges: 80008023.00002046.00000000.00000000
Lookup: 1 0 0 "'aalt' Access All Alternates in Devanagari2 lookup 0" { "'aalt' Access All Alternates in Devanagari2 lookup 0 subtable"  } ['aalt' ('DFLT' <'dflt' > 'dev2' <'MAR ' 'NEP ' 'dflt' > 'latn' <'MOL ' 'ROM ' > ) ]
Lookup: 1 0 0 "Single Substitution lookup 1" { "Single Substitution lookup 1 subtable"  } []
Lookup: 1 0 0 "Single Substitution lookup 2" { "Single Substitution lookup 2 subtable"  } []
Lookup: 1 0 0 "Single Substitution lookup 3" { "Single Substitution lookup 3 subtable"  } []
Lookup: 1 0 0 "Single Substitution lookup 4" { "Single Substitution lookup 4 subtable"  } []
Lookup: 1 0 0 "Single Substitution lookup 5" { "Single Substitution lookup 5 subtable"  } []
Lookup: 1 0 0 "Single Substitution lookup 6" { "Single Substitution lookup 6 subtable"  } []

StartChar: exclam.deva
Encoding: 33 33 3
Width: 771
Flags: W
LayerCount: 2
Fore
SplineSet
336.669921875 202 m 1,0,-1
 316.110351562 714 l 1,1,-1
 456.174804688 714 l 1,2,-1
 435.615234375 202 l 1,3,-1
 336.669921875 202 l 1,0,-1
385.5 -10 m 256,4,5
 352.08984375 -10 352.08984375 -10 328.959960938 6 c 128,-1,6
 305.830078125 22 305.830078125 22 305.830078125 58 c 0,7,8
 305.830078125 96 305.830078125 96 328.959960938 111 c 128,-1,9
 352.08984375 126 352.08984375 126 385.5 126 c 256,10,11
 418.91015625 126 418.91015625 126 442.040039062 111 c 128,-1,12
 465.169921875 96 465.169921875 96 465.169921875 58 c 0,13,14
 465.169921875 22 465.169921875 22 442.040039062 6 c 128,-1,15
 418.91015625 -10 418.91015625 -10 385.5 -10 c 256,4,5
EndSplineSet
EndChar

StartChar: quotedbl.deva
Encoding: 34 34 4
Width: 771
Flags: W
LayerCount: 2
Fore
SplineSet
469.025390625 456 m 1,0,-1
 443.325195312 714 l 1,1,-1
 565.400390625 714 l 1,2,-1
 539.700195312 456 l 1,3,-1
 469.025390625 456 l 1,0,-1
231.299804688 456 m 1,4,-1
 205.599609375 714 l 1,5,-1
 327.674804688 714 l 1,6,-1
 301.974609375 456 l 1,7,-1
 231.299804688 456 l 1,4,-1
EndSplineSet
EndChar

StartChar: numbersign.deva
Encoding: 35 35 5
Width: 771
Flags: W
LayerCount: 2
Fore
SplineSet
129.78515625 0 m 1,0,-1
 178.615234375 209 l 1,1,-1
 25.7001953125 209 l 1,2,-1
 25.7001953125 276 l 1,3,-1
 195.3203125 276 l 1,4,-1
 236.440429688 436 l 1,5,-1
 73.2451171875 436 l 1,6,-1
 73.2451171875 502 l 1,7,-1
 251.860351562 502 l 1,8,-1
 303.259765625 714 l 1,9,-1
 395.780273438 714 l 1,10,-1
 344.379882812 502 l 1,11,-1
 503.719726562 502 l 1,12,-1
 555.120117188 714 l 1,13,-1
 643.78515625 714 l 1,14,-1
 592.384765625 502 l 1,15,-1
 745.299804688 502 l 1,16,-1
 745.299804688 436 l 1,17,-1
 575.6796875 436 l 1,18,-1
 535.844726562 276 l 1,19,-1
 701.610351562 276 l 1,20,-1
 701.610351562 209 l 1,21,-1
 519.139648438 209 l 1,22,-1
 466.455078125 0 l 1,23,-1
 375.219726562 0 l 1,24,-1
 427.905273438 209 l 1,25,-1
 269.849609375 209 l 1,26,-1
 219.735351562 0 l 1,27,-1
 129.78515625 0 l 1,0,-1
286.5546875 276 m 1,28,-1
 444.610351562 276 l 1,29,-1
 484.4453125 436 l 1,30,-1
 326.389648438 436 l 1,31,-1
 286.5546875 276 l 1,28,-1
EndSplineSet
EndChar

StartChar: percent.deva
Encoding: 37 37 6
Width: 771
Flags: W
LayerCount: 2
Fore
SplineSet
140.116210938 8.900390625 m 5,0,-1
 542.681640625 687.200195312 l 5,1,-1
 629.751953125 687.200195312 l 5,2,-1
 227.1875 8.900390625 l 5,3,-1
 140.116210938 8.900390625 l 5,0,-1
561.904296875 0.349609375 m 4,4,5
 492.92578125 0.349609375 492.92578125 0.349609375 447.127929688 42.625 c 132,-1,6
 401.331054688 84.900390625 401.331054688 84.900390625 401.331054688 161.849609375 c 260,7,8
 401.331054688 238.799804688 401.331054688 238.799804688 444.8671875 280.599609375 c 132,-1,9
 488.40234375 322.400390625 488.40234375 322.400390625 564.166992188 322.400390625 c 4,10,11
 633.145507812 322.400390625 633.145507812 322.400390625 678.942382812 280.599609375 c 132,-1,12
 724.740234375 238.799804688 724.740234375 238.799804688 724.740234375 161.849609375 c 260,13,14
 724.740234375 84.900390625 724.740234375 84.900390625 680.638671875 42.625 c 132,-1,15
 636.537109375 0.349609375 636.537109375 0.349609375 561.904296875 0.349609375 c 4,4,5
563.03515625 55.4501953125 m 260,16,17
 601.482421875 55.4501953125 601.482421875 55.4501953125 620.70703125 81.099609375 c 132,-1,18
 639.9296875 106.75 639.9296875 106.75 639.9296875 161.849609375 c 4,19,20
 639.9296875 217.900390625 639.9296875 217.900390625 620.70703125 242.125 c 132,-1,21
 601.482421875 266.349609375 601.482421875 266.349609375 563.03515625 266.349609375 c 260,22,23
 524.587890625 266.349609375 524.587890625 266.349609375 504.798828125 242.125 c 132,-1,24
 485.010742188 217.900390625 485.010742188 217.900390625 485.010742188 161.849609375 c 4,25,26
 485.010742188 106.75 485.010742188 106.75 504.798828125 81.099609375 c 132,-1,27
 524.587890625 55.4501953125 524.587890625 55.4501953125 563.03515625 55.4501953125 c 260,16,17
206.833007812 372.75 m 4,28,29
 137.854492188 372.75 137.854492188 372.75 92.0576171875 415.025390625 c 132,-1,30
 46.259765625 457.299804688 46.259765625 457.299804688 46.259765625 534.25 c 260,31,32
 46.259765625 611.200195312 46.259765625 611.200195312 89.7958984375 653 c 132,-1,33
 133.33203125 694.799804688 133.33203125 694.799804688 209.094726562 694.799804688 c 4,34,35
 278.07421875 694.799804688 278.07421875 694.799804688 323.87109375 653 c 132,-1,36
 369.668945312 611.200195312 369.668945312 611.200195312 369.668945312 534.25 c 260,37,38
 369.668945312 457.299804688 369.668945312 457.299804688 325.567382812 415.025390625 c 132,-1,39
 281.466796875 372.75 281.466796875 372.75 206.833007812 372.75 c 4,28,29
207.963867188 427.849609375 m 260,40,41
 246.412109375 427.849609375 246.412109375 427.849609375 265.634765625 453.5 c 132,-1,42
 284.858398438 479.150390625 284.858398438 479.150390625 284.858398438 534.25 c 4,43,44
 284.858398438 590.299804688 284.858398438 590.299804688 265.634765625 614.525390625 c 132,-1,45
 246.412109375 638.75 246.412109375 638.75 207.963867188 638.75 c 260,46,47
 169.517578125 638.75 169.517578125 638.75 149.727539062 614.525390625 c 132,-1,48
 129.939453125 590.299804688 129.939453125 590.299804688 129.939453125 534.25 c 4,49,50
 129.939453125 479.150390625 129.939453125 479.150390625 149.727539062 453.5 c 132,-1,51
 169.517578125 427.849609375 169.517578125 427.849609375 207.963867188 427.849609375 c 260,40,41
EndSplineSet
EndChar

StartChar: quotesingle.deva
Encoding: 39 39 7
Width: 771
Flags: W
LayerCount: 2
Fore
SplineSet
350.162109375 456 m 1,0,-1
 324.462890625 714 l 1,1,-1
 446.537109375 714 l 1,2,-1
 420.837890625 456 l 1,3,-1
 350.162109375 456 l 1,0,-1
EndSplineSet
EndChar

StartChar: parenleft.deva
Encoding: 40 40 8
Width: 771
Flags: W
LayerCount: 2
Fore
SplineSet
426.620117188 -158 m 1,0,1
 328.959960938 -70 328.959960938 -70 283.342773438 41.5 c 128,-1,2
 237.724609375 153 237.724609375 153 237.724609375 274 c 0,3,4
 237.724609375 396 237.724609375 396 283.342773438 509.5 c 128,-1,5
 328.959960938 623 328.959960938 623 426.620117188 714 c 1,6,-1
 533.275390625 714 l 1,7,8
 443.325195312 620 443.325195312 620 397.70703125 507 c 128,-1,9
 352.08984375 394 352.08984375 394 352.08984375 275 c 0,10,11
 352.08984375 159 352.08984375 159 397.70703125 47.5 c 128,-1,12
 443.325195312 -64 443.325195312 -64 531.990234375 -158 c 1,13,-1
 426.620117188 -158 l 1,0,1
EndSplineSet
EndChar

StartChar: parenright.deva
Encoding: 41 41 9
Width: 771
Flags: W
LayerCount: 2
Fore
SplineSet
344.379882812 714 m 1,0,1
 442.040039062 626 442.040039062 626 487.657226562 514.5 c 128,-1,2
 533.275390625 403 533.275390625 403 533.275390625 282 c 0,3,4
 533.275390625 160 533.275390625 160 487.657226562 46.5 c 128,-1,5
 442.040039062 -67 442.040039062 -67 344.379882812 -158 c 1,6,-1
 237.724609375 -158 l 1,7,8
 327.674804688 -64 327.674804688 -64 373.29296875 49.5 c 128,-1,9
 418.91015625 163 418.91015625 163 418.91015625 281 c 0,10,11
 418.91015625 397 418.91015625 397 373.29296875 508.5 c 128,-1,12
 327.674804688 620 327.674804688 620 239.009765625 714 c 1,13,-1
 344.379882812 714 l 1,0,1
EndSplineSet
EndChar

StartChar: asterisk.deva
Encoding: 42 42 10
Width: 771
Flags: W
LayerCount: 2
Fore
SplineSet
487.657226562 334 m 1,0,-1
 383.572265625 489 l 1,1,-1
 280.772460938 335 l 1,2,-1
 185.682617188 382 l 1,3,-1
 321.892578125 516 l 1,4,-1
 113.72265625 537 l 1,5,-1
 131.712890625 612 l 1,6,-1
 350.162109375 569 l 1,7,-1
 332.172851562 746 l 1,8,-1
 433.6875 746 l 1,9,-1
 418.267578125 569 l 1,10,-1
 638.002929688 616 l 1,11,-1
 657.27734375 534 l 1,12,-1
 450.392578125 514 l 1,13,-1
 586.602539062 381 l 1,14,-1
 487.657226562 334 l 1,0,-1
EndSplineSet
EndChar

StartChar: plus.deva
Encoding: 43 43 11
Width: 771
Flags: W
LayerCount: 2
Fore
SplineSet
340.525390625 121 m 1,0,-1
 340.525390625 317 l 1,1,-1
 102.799804688 317 l 1,2,-1
 102.799804688 388 l 1,3,-1
 340.525390625 388 l 1,4,-1
 340.525390625 585 l 1,5,-1
 433.044921875 585 l 1,6,-1
 433.044921875 388 l 1,7,-1
 668.200195312 388 l 1,8,-1
 668.200195312 317 l 1,9,-1
 433.044921875 317 l 1,10,-1
 433.044921875 121 l 1,11,-1
 340.525390625 121 l 1,0,-1
EndSplineSet
EndChar

StartChar: comma.deva
Encoding: 44 44 12
Width: 771
Flags: W
LayerCount: 2
Fore
SplineSet
276.91796875 -140 m 1,0,1
 291.052734375 -96 291.052734375 -96 303.90234375 -48.5 c 128,-1,2
 316.752929688 -1 316.752929688 -1 328.317382812 45 c 128,-1,3
 339.8828125 91 339.8828125 91 346.307617188 129 c 1,4,-1
 483.802734375 129 l 1,5,-1
 494.08203125 117 l 1,6,7
 485.087890625 88 485.087890625 88 470.952148438 55.5 c 128,-1,8
 456.817382812 23 456.817382812 23 440.754882812 -10.5 c 128,-1,9
 424.692382812 -44 424.692382812 -44 407.344726562 -77 c 128,-1,10
 389.997070312 -110 389.997070312 -110 372.0078125 -140 c 1,11,-1
 276.91796875 -140 l 1,0,1
EndSplineSet
EndChar

StartChar: hyphen.deva
Encoding: 45 45 13
Width: 771
Flags: W
LayerCount: 2
Fore
SplineSet
192.75 230 m 1,0,-1
 192.75 310 l 1,1,-1
 578.25 310 l 1,2,-1
 578.25 230 l 1,3,-1
 192.75 230 l 1,0,-1
EndSplineSet
EndChar

StartChar: period.deva
Encoding: 46 46 14
Width: 771
Flags: W
LayerCount: 2
Fore
SplineSet
385.5 -10 m 256,0,1
 352.08984375 -10 352.08984375 -10 328.959960938 6 c 128,-1,2
 305.830078125 22 305.830078125 22 305.830078125 58 c 0,3,4
 305.830078125 96 305.830078125 96 328.959960938 111 c 128,-1,5
 352.08984375 126 352.08984375 126 385.5 126 c 256,6,7
 418.91015625 126 418.91015625 126 442.040039062 111 c 128,-1,8
 465.169921875 96 465.169921875 96 465.169921875 58 c 0,9,10
 465.169921875 22 465.169921875 22 442.040039062 6 c 128,-1,11
 418.91015625 -10 418.91015625 -10 385.5 -10 c 256,0,1
EndSplineSet
EndChar

StartChar: slash.deva
Encoding: 47 47 15
Width: 771
Flags: W
LayerCount: 2
Fore
SplineSet
154.200195312 0 m 1,0,-1
 506.290039062 714 l 1,1,-1
 616.799804688 714 l 1,2,-1
 264.709960938 0 l 1,3,-1
 154.200195312 0 l 1,0,-1
EndSplineSet
EndChar

StartChar: zero.deva
Encoding: 48 48 16
Width: 771
Flags: W
LayerCount: 2
Fore
SplineSet
384 -9 m 0,0,1
 277 -9 277 -9 209 26 c 128,-1,2
 141 61 141 61 109 126.5 c 128,-1,3
 77 192 77 192 77 284 c 128,-1,4
 77 376 77 376 108 441 c 128,-1,5
 139 506 139 506 206 540.5 c 128,-1,6
 273 575 273 575 384 575 c 0,7,8
 492 575 492 575 560.5 541 c 128,-1,9
 629 507 629 507 661.5 441.5 c 128,-1,10
 694 376 694 376 694 284 c 0,11,12
 694 215 694 215 676.5 160.5 c 128,-1,13
 659 106 659 106 622.5 68.5 c 128,-1,14
 586 31 586 31 527 11 c 128,-1,15
 468 -9 468 -9 384 -9 c 0,0,1
237 79 m 1,16,-1
 162 120 l 1,17,-1
 521 497 l 1,18,-1
 588 444 l 1,19,-1
 237 79 l 1,16,-1
384 54 m 0,20,21
 489 54 489 54 539.5 110 c 128,-1,22
 590 166 590 166 590 284 c 0,23,24
 590 360 590 360 568 410 c 128,-1,25
 546 460 546 460 500.5 486 c 128,-1,26
 455 512 455 512 384 512 c 0,27,28
 315 512 315 512 271 487.5 c 128,-1,29
 227 463 227 463 206 412.5 c 128,-1,30
 185 362 185 362 185 284 c 0,31,32
 185 173 185 173 230.5 113.5 c 128,-1,33
 276 54 276 54 384 54 c 0,20,21
EndSplineSet
EndChar

StartChar: one.deva
Encoding: 49 49 17
Width: 771
Flags: W
LayerCount: 2
Fore
SplineSet
352.5 354 m 2,0,1
 352.5 376 352.5 376 353 402 c 128,-1,2
 353.5 428 353.5 428 355 452 c 128,-1,3
 356.5 476 356.5 476 357.5 494 c 1,4,5
 336.5 487 336.5 487 320 482 c 128,-1,6
 303.5 477 303.5 477 270.5 467 c 2,7,-1
 163.5 433 l 1,8,-1
 113.5 487 l 1,9,-1
 369.5 567 l 1,10,-1
 462.5 567 l 1,11,-1
 462.5 -1 l 1,12,-1
 352.5 -1 l 1,13,-1
 352.5 354 l 2,0,1
159.5 -1 m 1,14,-1
 159.5 47 l 1,15,-1
 352.5 55 l 1,16,-1
 462.5 55 l 1,17,-1
 657.5 47 l 1,18,-1
 657.5 -1 l 1,19,-1
 159.5 -1 l 1,14,-1
EndSplineSet
EndChar

StartChar: two.deva
Encoding: 50 50 18
Width: 771
Flags: W
LayerCount: 2
Fore
SplineSet
80.5 0 m 1,0,-1
 80.5 60 l 1,1,-1
 324.5 209 l 2,2,3
 388.5 248 388.5 248 433.5 282 c 128,-1,4
 478.5 316 478.5 316 502 348.5 c 128,-1,5
 525.5 381 525.5 381 525.5 417 c 0,6,7
 525.5 468 525.5 468 481 490.5 c 128,-1,8
 436.5 513 436.5 513 366.5 513 c 0,9,10
 306.5 513 306.5 513 253 498 c 128,-1,11
 199.5 483 199.5 483 153.5 460 c 1,12,-1
 89.5 509 l 1,13,14
 124.5 528 124.5 528 166.5 543 c 128,-1,15
 208.5 558 208.5 558 260 567 c 128,-1,16
 311.5 576 311.5 576 370.5 576 c 0,17,18
 452.5 576 452.5 576 513.5 557.5 c 128,-1,19
 574.5 539 574.5 539 608 504.5 c 128,-1,20
 641.5 470 641.5 470 641.5 419 c 0,21,22
 641.5 376 641.5 376 616.5 337.5 c 128,-1,23
 591.5 299 591.5 299 544.5 262 c 128,-1,24
 497.5 225 497.5 225 432.5 185 c 2,25,-1
 235.5 67 l 1,26,-1
 235.5 64 l 1,27,-1
 690.5 64 l 1,28,-1
 690.5 0 l 1,29,-1
 80.5 0 l 1,0,-1
EndSplineSet
EndChar

StartChar: three.deva
Encoding: 51 51 19
Width: 771
Flags: W
LayerCount: 2
Fore
SplineSet
335.5 -9 m 0,0,1
 280.5 -9 280.5 -9 216.5 -2 c 128,-1,2
 152.5 5 152.5 5 95.5 22 c 1,3,-1
 95.5 90 l 1,4,5
 152.5 72 152.5 72 218 63 c 128,-1,6
 283.5 54 283.5 54 343.5 54 c 0,7,8
 455.5 54 455.5 54 507 83.5 c 128,-1,9
 558.5 113 558.5 113 558.5 160 c 0,10,11
 558.5 197 558.5 197 530.5 219 c 128,-1,12
 502.5 241 502.5 241 451.5 251 c 128,-1,13
 400.5 261 400.5 261 325.5 261 c 2,14,-1
 230.5 261 l 1,15,-1
 230.5 324 l 1,16,-1
 325.5 324 l 2,17,18
 392.5 324 392.5 324 437.5 337.5 c 128,-1,19
 482.5 351 482.5 351 506 374.5 c 128,-1,20
 529.5 398 529.5 398 529.5 428 c 0,21,22
 529.5 468 529.5 468 489 490 c 128,-1,23
 448.5 512 448.5 512 370.5 512 c 0,24,25
 304.5 512 304.5 512 250 498 c 128,-1,26
 195.5 484 195.5 484 157.5 468 c 1,27,-1
 99.5 517 l 1,28,29
 148.5 541 148.5 541 219 558 c 128,-1,30
 289.5 575 289.5 575 378.5 575 c 256,31,32
 467.5 575 467.5 575 527 556.5 c 128,-1,33
 586.5 538 586.5 538 616.5 507 c 128,-1,34
 646.5 476 646.5 476 646.5 434 c 0,35,36
 646.5 396 646.5 396 623 367.5 c 128,-1,37
 599.5 339 599.5 339 556.5 321.5 c 128,-1,38
 513.5 304 513.5 304 455.5 298 c 1,39,-1
 455.5 296 l 1,40,41
 527.5 290 527.5 290 576 272.5 c 128,-1,42
 624.5 255 624.5 255 650 226 c 128,-1,43
 675.5 197 675.5 197 675.5 157 c 0,44,45
 675.5 109 675.5 109 639.5 71.5 c 128,-1,46
 603.5 34 603.5 34 528.5 12.5 c 128,-1,47
 453.5 -9 453.5 -9 335.5 -9 c 0,0,1
EndSplineSet
EndChar

StartChar: four.deva
Encoding: 52 52 20
Width: 771
Flags: W
LayerCount: 2
Fore
SplineSet
462.5 -1 m 1,0,-1
 462.5 127 l 1,1,-1
 64.5 127 l 1,2,-1
 64.5 186 l 1,3,-1
 442.5 571 l 1,4,-1
 573.5 571 l 1,5,-1
 573.5 188 l 1,6,-1
 706.5 188 l 1,7,-1
 706.5 127 l 1,8,-1
 573.5 127 l 1,9,-1
 573.5 -1 l 1,10,-1
 462.5 -1 l 1,0,-1
176.5 188 m 1,11,-1
 462.5 188 l 1,12,-1
 462.5 330 l 2,13,14
 462.5 351 462.5 351 463.5 375 c 128,-1,15
 464.5 399 464.5 399 465.5 422 c 128,-1,16
 466.5 445 466.5 445 468 464.5 c 128,-1,17
 469.5 484 469.5 484 470.5 497 c 1,18,-1
 465.5 497 l 1,19,20
 456.5 482 456.5 482 439 461.5 c 128,-1,21
 421.5 441 421.5 441 408.5 427 c 2,22,-1
 176.5 188 l 1,11,-1
EndSplineSet
EndChar

StartChar: five.deva
Encoding: 53 53 21
Width: 771
Flags: W
LayerCount: 2
Fore
SplineSet
330.5 -10 m 0,0,1
 270.5 -10 270.5 -10 208.5 -2 c 128,-1,2
 146.5 6 146.5 6 103.5 21 c 1,3,-1
 103.5 89 l 1,4,5
 147.5 71 147.5 71 203.5 62 c 128,-1,6
 259.5 53 259.5 53 320.5 53 c 0,7,8
 428.5 53 428.5 53 489 81 c 128,-1,9
 549.5 109 549.5 109 549.5 168 c 0,10,11
 549.5 208 549.5 208 522.5 234.5 c 128,-1,12
 495.5 261 495.5 261 446 274.5 c 128,-1,13
 396.5 288 396.5 288 329.5 288 c 0,14,15
 293.5 288 293.5 288 252.5 284.5 c 128,-1,16
 211.5 281 211.5 281 179.5 276 c 1,17,-1
 122.5 299 l 1,18,-1
 157.5 566 l 1,19,-1
 614.5 566 l 1,20,-1
 614.5 502 l 1,21,-1
 256.5 502 l 1,22,-1
 231.5 338 l 1,23,24
 258.5 342 258.5 342 298 344 c 128,-1,25
 337.5 346 337.5 346 366.5 346 c 0,26,27
 450.5 346 450.5 346 518.5 327 c 128,-1,28
 586.5 308 586.5 308 627 269.5 c 128,-1,29
 667.5 231 667.5 231 667.5 173 c 0,30,31
 667.5 117 667.5 117 628 76 c 128,-1,32
 588.5 35 588.5 35 513.5 12.5 c 128,-1,33
 438.5 -10 438.5 -10 330.5 -10 c 0,0,1
EndSplineSet
EndChar

StartChar: six.deva
Encoding: 54 54 22
Width: 771
Flags: W
LayerCount: 2
Fore
SplineSet
396 -9 m 0,0,1
 323 -9 323 -9 263.5 6.5 c 128,-1,2
 204 22 204 22 163 53.5 c 128,-1,3
 122 85 122 85 99.5 132.5 c 128,-1,4
 77 180 77 180 77 244 c 0,5,6
 77 305 77 305 94.5 364 c 128,-1,7
 112 423 112 423 158 470.5 c 128,-1,8
 204 518 204 518 287.5 546.5 c 128,-1,9
 371 575 371 575 503 575 c 0,10,11
 529 575 529 575 563 573.5 c 128,-1,12
 597 572 597 572 618 568 c 1,13,-1
 618 505 l 1,14,15
 596 510 596 510 566.5 512 c 128,-1,16
 537 514 537 514 507 514 c 0,17,18
 414 514 414 514 354 496.5 c 128,-1,19
 294 479 294 479 259.5 448 c 128,-1,20
 225 417 225 417 209.5 376 c 128,-1,21
 194 335 194 335 191 289 c 1,22,-1
 199 289 l 1,23,24
 216 309 216 309 245.5 324.5 c 128,-1,25
 275 340 275 340 317.5 349.5 c 128,-1,26
 360 359 360 359 414 359 c 0,27,28
 542 359 542 359 618 312.5 c 128,-1,29
 694 266 694 266 694 182 c 0,30,31
 694 123 694 123 657 80 c 128,-1,32
 620 37 620 37 553.5 14 c 128,-1,33
 487 -9 487 -9 396 -9 c 0,0,1
394 51 m 0,34,35
 478 51 478 51 530.5 81.5 c 128,-1,36
 583 112 583 112 583 182 c 0,37,38
 583 241 583 241 536 272 c 128,-1,39
 489 303 489 303 398 303 c 0,40,41
 336 303 336 303 289.5 287 c 128,-1,42
 243 271 243 271 217 246.5 c 128,-1,43
 191 222 191 222 191 195 c 0,44,45
 191 174 191 174 199.5 153.5 c 128,-1,46
 208 133 208 133 224 114.5 c 128,-1,47
 240 96 240 96 264.5 81.5 c 128,-1,48
 289 67 289 67 321.5 59 c 128,-1,49
 354 51 354 51 394 51 c 0,34,35
EndSplineSet
EndChar

StartChar: seven.deva
Encoding: 55 55 23
Width: 771
Flags: W
LayerCount: 2
Fore
SplineSet
223 -1 m 1,0,-1
 577 503 l 1,1,-1
 77 503 l 1,2,-1
 77 567 l 1,3,-1
 694 567 l 1,4,-1
 694 511 l 1,5,-1
 345 -1 l 1,6,-1
 223 -1 l 1,0,-1
EndSplineSet
EndChar

StartChar: eight.deva
Encoding: 56 56 24
Width: 771
Flags: W
LayerCount: 2
Fore
SplineSet
380 -9 m 0,0,1
 291 -9 291 -9 225.5 9.5 c 128,-1,2
 160 28 160 28 124 61.5 c 128,-1,3
 88 95 88 95 88 141 c 0,4,5
 88 182 88 182 114 211 c 128,-1,6
 140 240 140 240 182 261 c 128,-1,7
 224 282 224 282 276 297 c 1,8,9
 235 312 235 312 198.5 332 c 128,-1,10
 162 352 162 352 140 379 c 128,-1,11
 118 406 118 406 118 440 c 0,12,13
 118 485 118 485 155 515 c 128,-1,14
 192 545 192 545 254 560 c 128,-1,15
 316 575 316 575 388 575 c 256,16,17
 460 575 460 575 520 560 c 128,-1,18
 580 545 580 545 617 514.5 c 128,-1,19
 654 484 654 484 654 440 c 0,20,21
 654 387 654 387 604.5 354 c 128,-1,22
 555 321 555 321 480 300 c 1,23,24
 537 282 537 282 583 260 c 128,-1,25
 629 238 629 238 656 209.5 c 128,-1,26
 683 181 683 181 683 142 c 0,27,28
 683 98 683 98 646 64 c 128,-1,29
 609 30 609 30 541.5 10.5 c 128,-1,30
 474 -9 474 -9 380 -9 c 0,0,1
384 49 m 0,31,32
 475 49 475 49 523 76.5 c 128,-1,33
 571 104 571 104 571 146 c 0,34,35
 571 175 571 175 548.5 195 c 128,-1,36
 526 215 526 215 482 232.5 c 128,-1,37
 438 250 438 250 370 269 c 1,38,39
 319 255 319 255 280.5 237 c 128,-1,40
 242 219 242 219 221.5 195.5 c 128,-1,41
 201 172 201 172 201 142 c 0,42,43
 201 101 201 101 245 75 c 128,-1,44
 289 49 289 49 384 49 c 0,31,32
388 328 m 1,45,46
 432 340 432 340 466.5 354.5 c 128,-1,47
 501 369 501 369 521.5 389 c 128,-1,48
 542 409 542 409 542 436 c 0,49,50
 542 475 542 475 499.5 495 c 128,-1,51
 457 515 457 515 385 515 c 0,52,53
 314 515 314 515 272 495.5 c 128,-1,54
 230 476 230 476 230 436 c 0,55,56
 230 407 230 407 253 387 c 128,-1,57
 276 367 276 367 312 353 c 128,-1,58
 348 339 348 339 388 328 c 1,45,46
EndSplineSet
EndChar

StartChar: nine.deva
Encoding: 57 57 25
Width: 771
Flags: W
LayerCount: 2
Fore
SplineSet
279 -9 m 0,0,1
 249 -9 249 -9 218 -7 c 128,-1,2
 187 -5 187 -5 166 -2 c 1,3,-1
 166 61 l 1,4,5
 188 56 188 56 215.5 54 c 128,-1,6
 243 52 243 52 273 52 c 0,7,8
 360 52 360 52 418 69.5 c 128,-1,9
 476 87 476 87 510.5 118.5 c 128,-1,10
 545 150 545 150 561 190.5 c 128,-1,11
 577 231 577 231 579 277 c 1,12,-1
 572 277 l 1,13,14
 555 257 555 257 524.5 241.5 c 128,-1,15
 494 226 494 226 452.5 216.5 c 128,-1,16
 411 207 411 207 357 207 c 0,17,18
 229 207 229 207 153 254 c 128,-1,19
 77 301 77 301 77 387 c 0,20,21
 77 445 77 445 113.5 487 c 128,-1,22
 150 529 150 529 217.5 552 c 128,-1,23
 285 575 285 575 378 575 c 0,24,25
 449 575 449 575 507 560 c 128,-1,26
 565 545 565 545 607 512.5 c 128,-1,27
 649 480 649 480 671.5 430 c 128,-1,28
 694 380 694 380 694 310 c 0,29,30
 694 267 694 267 683.5 222 c 128,-1,31
 673 177 673 177 646.5 135.5 c 128,-1,32
 620 94 620 94 573.5 61.5 c 128,-1,33
 527 29 527 29 454.5 10 c 128,-1,34
 382 -9 382 -9 279 -9 c 0,0,1
369 263 m 0,35,36
 429 263 429 263 476.5 278 c 128,-1,37
 524 293 524 293 551.5 319 c 128,-1,38
 579 345 579 345 579 378 c 0,39,40
 579 399 579 399 567 422.5 c 128,-1,41
 555 446 555 446 530.5 467 c 128,-1,42
 506 488 506 488 467.5 501.5 c 128,-1,43
 429 515 429 515 376 515 c 0,44,45
 290 515 290 515 238.5 483.5 c 128,-1,46
 187 452 187 452 187 386 c 0,47,48
 187 322 187 322 235.5 292.5 c 128,-1,49
 284 263 284 263 369 263 c 0,35,36
EndSplineSet
EndChar

StartChar: colon.deva
Encoding: 58 58 26
Width: 771
Flags: W
LayerCount: 2
Fore
SplineSet
386.78515625 410 m 256,0,1
 353.375 410 353.375 410 330.245117188 426 c 128,-1,2
 307.115234375 442 307.115234375 442 307.115234375 478 c 0,3,4
 307.115234375 516 307.115234375 516 330.245117188 531 c 128,-1,5
 353.375 546 353.375 546 386.78515625 546 c 256,6,7
 420.1953125 546 420.1953125 546 442.682617188 531 c 128,-1,8
 465.169921875 516 465.169921875 516 465.169921875 478 c 0,9,10
 465.169921875 442 465.169921875 442 442.682617188 426 c 128,-1,11
 420.1953125 410 420.1953125 410 386.78515625 410 c 256,0,1
385.5 -10 m 256,12,13
 352.08984375 -10 352.08984375 -10 328.959960938 6 c 128,-1,14
 305.830078125 22 305.830078125 22 305.830078125 58 c 0,15,16
 305.830078125 96 305.830078125 96 328.959960938 111 c 128,-1,17
 352.08984375 126 352.08984375 126 385.5 126 c 256,18,19
 418.91015625 126 418.91015625 126 441.397460938 111 c 128,-1,20
 463.884765625 96 463.884765625 96 463.884765625 58 c 0,21,22
 463.884765625 22 463.884765625 22 441.397460938 6 c 128,-1,23
 418.91015625 -10 418.91015625 -10 385.5 -10 c 256,12,13
EndSplineSet
EndChar

StartChar: semicolon.deva
Encoding: 59 59 27
Width: 771
Flags: W
LayerCount: 2
Fore
SplineSet
273.705078125 -140 m 1,0,1
 287.83984375 -96 287.83984375 -96 300.690429688 -48.5 c 128,-1,2
 313.540039062 -1 313.540039062 -1 325.10546875 45 c 128,-1,3
 336.669921875 91 336.669921875 91 343.094726562 129 c 1,4,-1
 480.58984375 129 l 1,5,-1
 490.870117188 117 l 1,6,7
 481.875 88 481.875 88 467.740234375 55.5 c 128,-1,8
 453.60546875 23 453.60546875 23 437.54296875 -10.5 c 128,-1,9
 421.48046875 -44 421.48046875 -44 404.1328125 -77 c 128,-1,10
 386.78515625 -110 386.78515625 -110 368.794921875 -140 c 1,11,-1
 273.705078125 -140 l 1,0,1
417.625 410 m 256,12,13
 384.21484375 410 384.21484375 410 361.084960938 426 c 128,-1,14
 337.955078125 442 337.955078125 442 337.955078125 478 c 0,15,16
 337.955078125 516 337.955078125 516 361.084960938 531 c 128,-1,17
 384.21484375 546 384.21484375 546 417.625 546 c 256,18,19
 451.03515625 546 451.03515625 546 474.165039062 531 c 128,-1,20
 497.294921875 516 497.294921875 516 497.294921875 478 c 0,21,22
 497.294921875 442 497.294921875 442 474.165039062 426 c 128,-1,23
 451.03515625 410 451.03515625 410 417.625 410 c 256,12,13
EndSplineSet
EndChar

StartChar: less.deva
Encoding: 60 60 28
Width: 771
Flags: W
LayerCount: 2
Fore
SplineSet
655.349609375 116 m 1,0,-1
 115.650390625 323 l 1,1,-1
 115.650390625 373 l 1,2,-1
 655.349609375 608 l 1,3,-1
 655.349609375 530 l 1,4,-1
 236.440429688 351 l 1,5,-1
 655.349609375 194 l 1,6,-1
 655.349609375 116 l 1,0,-1
EndSplineSet
EndChar

StartChar: equal.deva
Encoding: 61 61 29
Width: 771
Flags: W
LayerCount: 2
Fore
SplineSet
89.9501953125 407 m 1,0,-1
 89.9501953125 487 l 1,1,-1
 681.049804688 487 l 1,2,-1
 681.049804688 407 l 1,3,-1
 89.9501953125 407 l 1,0,-1
89.9501953125 217 m 1,4,-1
 89.9501953125 297 l 1,5,-1
 681.049804688 297 l 1,6,-1
 681.049804688 217 l 1,7,-1
 89.9501953125 217 l 1,4,-1
EndSplineSet
EndChar

StartChar: greater.deva
Encoding: 62 62 30
Width: 771
Flags: W
LayerCount: 2
Fore
SplineSet
115.650390625 116 m 1,0,-1
 115.650390625 194 l 1,1,-1
 534.559570312 351 l 1,2,-1
 115.650390625 530 l 1,3,-1
 115.650390625 608 l 1,4,-1
 655.349609375 373 l 1,5,-1
 655.349609375 323 l 1,6,-1
 115.650390625 116 l 1,0,-1
EndSplineSet
EndChar

StartChar: question.deva
Encoding: 63 63 31
Width: 771
Flags: W
LayerCount: 2
Fore
SplineSet
295.549804688 220 m 2,0,1
 295.549804688 258 295.549804688 258 307.115234375 286 c 128,-1,2
 318.6796875 314 318.6796875 314 347.592773438 339.5 c 128,-1,3
 376.504882812 365 376.504882812 365 425.334960938 392 c 0,4,5
 469.025390625 416 469.025390625 416 495.3671875 437 c 128,-1,6
 521.709960938 458 521.709960938 458 533.91796875 483 c 128,-1,7
 546.125 508 546.125 508 546.125 545 c 0,8,9
 546.125 589 546.125 589 504.362304688 617.5 c 128,-1,10
 462.599609375 646 462.599609375 646 382.9296875 646 c 0,11,12
 316.110351562 646 316.110351562 646 262.782226562 633.5 c 128,-1,13
 209.455078125 621 209.455078125 621 156.76953125 602 c 1,14,-1
 115.650390625 677 l 1,15,16
 168.334960938 695 168.334960938 695 229.372070312 709.5 c 128,-1,17
 290.41015625 724 290.41015625 724 376.504882812 724 c 256,18,19
 462.599609375 724 462.599609375 724 524.922851562 702.5 c 128,-1,20
 587.245117188 681 587.245117188 681 621.297851562 642 c 128,-1,21
 655.349609375 603 655.349609375 603 655.349609375 549 c 0,22,23
 655.349609375 502 655.349609375 502 639.9296875 468 c 128,-1,24
 624.509765625 434 624.509765625 434 593.02734375 406.5 c 128,-1,25
 561.544921875 379 561.544921875 379 511.4296875 350 c 256,26,27
 461.315429688 321 461.315429688 321 436.2578125 300.5 c 128,-1,28
 411.200195312 280 411.200195312 280 403.490234375 260 c 128,-1,29
 395.780273438 240 395.780273438 240 395.780273438 211 c 2,30,-1
 395.780273438 202 l 1,31,-1
 295.549804688 202 l 1,32,-1
 295.549804688 220 l 2,0,1
350.8046875 -10 m 256,33,34
 317.39453125 -10 317.39453125 -10 294.264648438 6 c 128,-1,35
 271.134765625 22 271.134765625 22 271.134765625 58 c 0,36,37
 271.134765625 96 271.134765625 96 294.264648438 111 c 128,-1,38
 317.39453125 126 317.39453125 126 350.8046875 126 c 256,39,40
 384.21484375 126 384.21484375 126 407.344726562 111 c 128,-1,41
 430.474609375 96 430.474609375 96 430.474609375 58 c 0,42,43
 430.474609375 22 430.474609375 22 407.344726562 6 c 128,-1,44
 384.21484375 -10 384.21484375 -10 350.8046875 -10 c 256,33,34
EndSplineSet
EndChar

StartChar: bracketleft.deva
Encoding: 91 91 32
Width: 771
Flags: W
LayerCount: 2
Fore
SplineSet
288.5 832 m 1,0,-1
 482.5 832 l 1,1,-1
 482.5 762 l 1,2,-1
 368.5 762 l 1,3,-1
 368.5 -96 l 1,4,-1
 482.5 -96 l 1,5,-1
 482.5 -166 l 1,6,-1
 288.5 -166 l 1,7,-1
 288.5 832 l 1,0,-1
EndSplineSet
EndChar

StartChar: backslash.deva
Encoding: 92 92 33
Width: 771
Flags: W
LayerCount: 2
Fore
SplineSet
213 832 m 1,0,-1
 295 832 l 1,1,-1
 558 -166 l 1,2,-1
 476 -166 l 1,3,-1
 213 832 l 1,0,-1
EndSplineSet
EndChar

StartChar: bracketright.deva
Encoding: 93 93 34
Width: 771
Flags: W
LayerCount: 2
Fore
SplineSet
288.5 -96 m 1,0,-1
 401.5 -96 l 1,1,-1
 401.5 762 l 1,2,-1
 288.5 762 l 1,3,-1
 288.5 832 l 1,4,-1
 482.5 832 l 1,5,-1
 482.5 -166 l 1,6,-1
 288.5 -166 l 1,7,-1
 288.5 -96 l 1,0,-1
EndSplineSet
EndChar

StartChar: asciicircum.deva
Encoding: 94 94 35
Width: 771
Flags: W
LayerCount: 2
Fore
SplineSet
363.5 719 m 1,0,-1
 413.5 719 l 1,1,-1
 631.5 268 l 1,2,-1
 553.5 268 l 1,3,-1
 388.5 627 l 1,4,-1
 218.5 268 l 1,5,-1
 139.5 268 l 1,6,-1
 363.5 719 l 1,0,-1
EndSplineSet
EndChar

StartChar: underscore.deva
Encoding: 95 95 36
Width: 771
Flags: W
LayerCount: 2
Fore
SplineSet
178 -90 m 1,0,-1
 593 -90 l 1,1,-1
 593 -158 l 1,2,-1
 178 -158 l 1,3,-1
 178 -90 l 1,0,-1
EndSplineSet
EndChar

StartChar: braceleft.deva
Encoding: 123 123 37
Width: 771
Flags: W
LayerCount: 2
Fore
SplineSet
591.099609375 -158 m 1,0,1
 512.71484375 -157 512.71484375 -157 455.532226562 -140 c 128,-1,2
 398.349609375 -123 398.349609375 -123 367.509765625 -87.5 c 128,-1,3
 336.669921875 -52 336.669921875 -52 336.669921875 1 c 2,4,-1
 336.669921875 148 l 2,5,6
 336.669921875 199 336.669921875 199 296.192382812 220.5 c 128,-1,7
 255.71484375 242 255.71484375 242 179.900390625 242 c 1,8,-1
 179.900390625 315 l 1,9,10
 255.71484375 316 255.71484375 316 296.192382812 337 c 128,-1,11
 336.669921875 358 336.669921875 358 336.669921875 408 c 2,12,-1
 336.669921875 556 l 2,13,14
 336.669921875 609 336.669921875 609 368.794921875 644 c 128,-1,15
 400.919921875 679 400.919921875 679 458.745117188 696.5 c 128,-1,16
 516.5703125 714 516.5703125 714 591.099609375 714 c 1,17,-1
 591.099609375 642 l 1,18,19
 547.41015625 641 547.41015625 641 515.28515625 631 c 128,-1,20
 483.16015625 621 483.16015625 621 465.8125 601 c 128,-1,21
 448.46484375 581 448.46484375 581 448.46484375 548 c 2,22,-1
 448.46484375 404 l 2,23,24
 448.46484375 353 448.46484375 353 413.76953125 322.5 c 128,-1,25
 379.075195312 292 379.075195312 292 308.400390625 282 c 1,26,-1
 308.400390625 276 l 1,27,28
 380.360351562 266 380.360351562 266 414.412109375 235.5 c 128,-1,29
 448.46484375 205 448.46484375 205 448.46484375 154 c 2,30,-1
 448.46484375 7 l 2,31,32
 448.46484375 -42 448.46484375 -42 485.73046875 -63.5 c 128,-1,33
 522.995117188 -85 522.995117188 -85 591.099609375 -86 c 1,34,-1
 591.099609375 -158 l 1,0,1
EndSplineSet
EndChar

StartChar: bar.deva
Encoding: 124 124 38
Width: 771
Flags: W
LayerCount: 2
Fore
SplineSet
338.59765625 -240 m 1,0,-1
 338.59765625 760 l 1,1,-1
 432.40234375 760 l 1,2,-1
 432.40234375 -240 l 1,3,-1
 338.59765625 -240 l 1,0,-1
EndSplineSet
EndChar

StartChar: braceright.deva
Encoding: 125 125 39
Width: 771
Flags: W
LayerCount: 2
Fore
SplineSet
179.900390625 714 m 1,0,1
 259.5703125 714 259.5703125 714 316.110351562 696.5 c 128,-1,2
 372.650390625 679 372.650390625 679 403.490234375 644 c 128,-1,3
 434.330078125 609 434.330078125 609 434.330078125 555 c 2,4,-1
 434.330078125 408 l 2,5,6
 434.330078125 357 434.330078125 357 474.807617188 335.5 c 128,-1,7
 515.28515625 314 515.28515625 314 591.099609375 314 c 1,8,-1
 591.099609375 241 l 1,9,10
 515.28515625 240 515.28515625 240 474.807617188 219 c 128,-1,11
 434.330078125 198 434.330078125 198 434.330078125 148 c 2,12,-1
 434.330078125 0 l 2,13,14
 434.330078125 -53 434.330078125 -53 402.205078125 -88 c 128,-1,15
 370.080078125 -123 370.080078125 -123 312.897460938 -140.5 c 128,-1,16
 255.71484375 -158 255.71484375 -158 179.900390625 -158 c 1,17,-1
 179.900390625 -86 l 1,18,19
 224.875 -85 224.875 -85 256.357421875 -75 c 128,-1,20
 287.83984375 -65 287.83984375 -65 305.1875 -44.5 c 128,-1,21
 322.53515625 -24 322.53515625 -24 322.53515625 8 c 2,22,-1
 322.53515625 152 l 2,23,24
 322.53515625 203 322.53515625 203 357.23046875 233.5 c 128,-1,25
 391.924804688 264 391.924804688 264 462.599609375 274 c 1,26,-1
 462.599609375 280 l 1,27,28
 391.924804688 290 391.924804688 290 357.23046875 320.5 c 128,-1,29
 322.53515625 351 322.53515625 351 322.53515625 402 c 2,30,-1
 322.53515625 549 l 2,31,32
 322.53515625 598 322.53515625 598 285.26953125 619.5 c 128,-1,33
 248.004882812 641 248.004882812 641 179.900390625 642 c 1,34,-1
 179.900390625 714 l 1,0,1
EndSplineSet
EndChar

StartChar: asciitilde.deva
Encoding: 126 126 40
Width: 771
Flags: W
LayerCount: 2
Fore
SplineSet
96.375 287 m 1,0,1
 100.23046875 316 100.23046875 316 107.940429688 346.5 c 128,-1,2
 115.650390625 377 115.650390625 377 132.35546875 403.5 c 128,-1,3
 149.059570312 430 149.059570312 430 177.97265625 446 c 128,-1,4
 206.884765625 462 206.884765625 462 253.14453125 462 c 0,5,6
 282.700195312 462 282.700195312 462 307.7578125 454.5 c 128,-1,7
 332.815429688 447 332.815429688 447 358.514648438 432.5 c 128,-1,8
 384.21484375 418 384.21484375 418 413.76953125 396 c 0,9,10
 440.754882812 377 440.754882812 377 466.455078125 361.5 c 128,-1,11
 492.155273438 346 492.155273438 346 519.139648438 346 c 0,12,13
 555.120117188 346 555.120117188 346 571.825195312 376.5 c 128,-1,14
 588.530273438 407 588.530273438 407 597.525390625 462 c 1,15,-1
 674.625 462 l 1,16,17
 670.76953125 436 670.76953125 436 662.41796875 406 c 128,-1,18
 654.065429688 376 654.065429688 376 637.360351562 349 c 128,-1,19
 620.655273438 322 620.655273438 322 591.7421875 304.5 c 128,-1,20
 562.830078125 287 562.830078125 287 517.85546875 287 c 0,21,22
 488.299804688 287 488.299804688 287 461.95703125 295 c 128,-1,23
 435.615234375 303 435.615234375 303 411.842773438 317.5 c 128,-1,24
 388.0703125 332 388.0703125 332 363.655273438 350 c 0,25,26
 334.099609375 373 334.099609375 373 308.400390625 388 c 128,-1,27
 282.700195312 403 282.700195312 403 253.14453125 403 c 0,28,29
 215.879882812 403 215.879882812 403 197.247070312 374.5 c 128,-1,30
 178.615234375 346 178.615234375 346 172.190429688 287 c 1,31,-1
 96.375 287 l 1,0,1
EndSplineSet
EndChar

StartChar: A
Encoding: 65 65 42
Width: 771
Flags: W
LayerCount: 2
Fore
SplineSet
668.5 551 m 1,0,-1
 668.5 0 l 1,1,-1
 587.5 0 l 1,2,-1
 587.5 551 l 1,3,-1
 514.5 551 l 1,4,-1
 514.5 622 l 1,5,-1
 748.5 622 l 5,6,-1
 748.5 551 l 5,7,-1
 668.5 551 l 1,0,-1
291.5 632 m 0,8,9
 369.5 632 369.5 632 411 593 c 128,-1,10
 452.5 554 452.5 554 452.5 495 c 0,11,12
 452.5 452 452.5 452 430 417.5 c 128,-1,13
 407.5 383 407.5 383 363.5 363 c 128,-1,14
 319.5 343 319.5 343 253.5 341 c 1,15,-1
 248.5 411 l 1,16,17
 316.5 413 316.5 413 345 435 c 128,-1,18
 373.5 457 373.5 457 373.5 494 c 0,19,20
 373.5 530 373.5 530 350 546 c 128,-1,21
 326.5 562 326.5 562 295.5 562 c 0,22,23
 258.5 562 258.5 562 228.5 552 c 128,-1,24
 198.5 542 198.5 542 164.5 525 c 1,25,-1
 139.5 594 l 1,26,27
 165.5 608 165.5 608 204 620 c 128,-1,28
 242.5 632 242.5 632 291.5 632 c 0,8,9
463.5 218 m 0,29,30
 463.5 172 463.5 172 442.5 141 c 128,-1,31
 421.5 110 421.5 110 386 95 c 128,-1,32
 350.5 80 350.5 80 305.5 80 c 0,33,34
 248.5 80 248.5 80 200 108 c 128,-1,35
 151.5 136 151.5 136 108 197 c 128,-1,36
 64.5 258 64.5 258 22.5 356 c 1,37,-1
 93.5 382 l 1,38,39
 122.5 311 122.5 311 154 259.5 c 128,-1,40
 185.5 208 185.5 208 221.5 180.5 c 128,-1,41
 257.5 153 257.5 153 298.5 153 c 0,42,43
 336.5 153 336.5 153 360.5 170.5 c 128,-1,44
 384.5 188 384.5 188 384.5 227 c 0,45,46
 384.5 275 384.5 275 351.5 310 c 128,-1,47
 318.5 345 318.5 345 271.5 374 c 1,48,-1
 330.5 377 l 1,49,-1
 373.5 386 l 1,50,51
 387.5 374 387.5 374 404.5 357 c 128,-1,52
 421.5 340 421.5 340 431.5 323 c 1,53,-1
 436.5 304 l 1,54,55
 449.5 285 449.5 285 456.5 264 c 128,-1,56
 463.5 243 463.5 243 463.5 218 c 0,29,30
479.5 350 m 0,57,58
 527.5 350 527.5 350 562.5 357.5 c 128,-1,59
 597.5 365 597.5 365 644.5 382 c 1,60,-1
 644.5 310 l 1,61,62
 601.5 291 601.5 291 567 285 c 128,-1,63
 532.5 279 532.5 279 491.5 279 c 0,64,65
 476.5 279 476.5 279 456.5 281.5 c 128,-1,66
 436.5 284 436.5 284 419 287.5 c 128,-1,67
 401.5 291 401.5 291 393.5 294 c 1,68,-1
 346.5 350 l 1,69,-1
 352.5 365 l 1,70,71
 381.5 358 381.5 358 413.5 354 c 128,-1,72
 445.5 350 445.5 350 479.5 350 c 0,57,58
EndSplineSet
EndChar

StartChar: B
Encoding: 66 66 43
Width: 771
Flags: W
AnchorPoint: "Anchor-1" 378 798 basechar 0
LayerCount: 2
Fore
SplineSet
332 638 m 5,0,1
 319 661 319 661 297 687.5 c 132,-1,2
 275 714 275 714 251 740 c 132,-1,3
 227 766 227 766 209 785 c 5,4,-1
 209 798 l 5,5,-1
 269 798 l 5,6,7
 295 781 295 781 323 757 c 132,-1,8
 351 733 351 733 376 706 c 5,9,10
 403 733 403 733 431 757 c 132,-1,11
 459 781 459 781 485 798 c 5,12,-1
 547 798 l 5,13,-1
 547 785 l 5,14,15
 528 766 528 766 503.5 740 c 132,-1,16
 479 714 479 714 456.5 687.5 c 132,-1,17
 434 661 434 661 422 638 c 5,18,-1
 332 638 l 5,0,1
678 551 m 5,19,-1
 575 551 l 5,20,-1
 575 0 l 5,21,-1
 494 0 l 5,22,-1
 494 201 l 5,23,-1
 509 175 l 5,24,25
 491 162 491 162 466.5 148.5 c 132,-1,26
 442 135 442 135 409.5 126.5 c 132,-1,27
 377 118 377 118 334 118 c 4,28,29
 278 118 278 118 233.5 139 c 132,-1,30
 189 160 189 160 164 197.5 c 132,-1,31
 139 235 139 235 139 286 c 4,32,33
 139 343 139 343 166.5 383 c 132,-1,34
 194 423 194 423 243.5 443.5 c 132,-1,35
 293 464 293 464 358 464 c 4,36,37
 372 464 372 464 392 462.5 c 132,-1,38
 412 461 412 461 431.5 459 c 132,-1,39
 451 457 451 457 462 454 c 5,40,-1
 456 385 l 5,41,42
 436 389 436 389 411 392 c 132,-1,43
 386 395 386 395 361 395 c 4,44,45
 295 395 295 395 257.5 367.5 c 132,-1,46
 220 340 220 340 220 287 c 4,47,48
 220 235 220 235 253.5 209.5 c 132,-1,49
 287 184 287 184 335 184 c 4,50,51
 376 184 376 184 408.5 197 c 132,-1,52
 441 210 441 210 465.5 230 c 132,-1,53
 490 250 490 250 507 271 c 5,54,-1
 494 220 l 5,55,-1
 494 551 l 5,56,-1
 93 551 l 5,57,-1
 93 622 l 5,58,-1
 678 622 l 5,59,-1
 678 551 l 5,19,-1
298 424 m 5,60,-1
 470 209 l 5,61,-1
 424 167 l 5,62,-1
 236 401 l 5,63,-1
 298 424 l 5,60,-1
EndSplineSet
EndChar

StartChar: C
Encoding: 67 67 44
Width: 771
Flags: W
LayerCount: 2
Fore
SplineSet
332.567382812 637 m 5,0,1
 319.567382812 660 319.567382812 660 297.567382812 686.5 c 132,-1,2
 275.567382812 713 275.567382812 713 251.567382812 739 c 132,-1,3
 227.567382812 765 227.567382812 765 209.567382812 784 c 5,4,-1
 209.567382812 797 l 5,5,-1
 269.567382812 797 l 5,6,7
 295.567382812 780 295.567382812 780 323.567382812 756 c 132,-1,8
 351.567382812 732 351.567382812 732 376.567382812 705 c 5,9,10
 403.567382812 732 403.567382812 732 431.567382812 756 c 132,-1,11
 459.567382812 780 459.567382812 780 485.567382812 797 c 5,12,-1
 547.567382812 797 l 5,13,-1
 547.567382812 784 l 5,14,15
 528.567382812 765 528.567382812 765 504.067382812 739 c 132,-1,16
 479.567382812 713 479.567382812 713 457.067382812 686.5 c 132,-1,17
 434.567382812 660 434.567382812 660 422.567382812 637 c 5,18,-1
 332.567382812 637 l 5,0,1
508.52734375 -10 m 0,19,20
 356.567382812 -10 356.567382812 -10 273.372070312 57 c 0,21,22
 189.567382812 124 189.567382812 124 189.84765625 245 c 0,23,24
 189.567382812 325 189.567382812 325 227.112304688 380.5 c 128,-1,25
 264.567382812 436 264.567382812 436 333.767578125 465 c 1,26,-1
 74.8623046875 465 l 1,27,-1
 74.8623046875 537 l 1,28,-1
 696.137695312 537 l 1,29,-1
 696.137695312 465 l 1,30,-1
 565.067382812 465 l 2,31,32
 444.567382812 465 444.567382812 465 375.530273438 411.5 c 128,-1,33
 306.567382812 358 306.567382812 358 306.782226562 252 c 0,34,35
 306.567382812 165 306.567382812 165 362.037109375 114.5 c 128,-1,36
 417.567382812 64 417.567382812 64 520.092773438 64 c 0,37,38
 567.567382812 64 567.567382812 64 611.327148438 73.5 c 0,39,40
 654.567382812 83 654.567382812 83 696.137695312 99 c 1,41,-1
 696.137695312 21 l 1,42,43
 658.567382812 5 658.567382812 5 613.897460938 -2.5 c 0,44,45
 568.567382812 -10 568.567382812 -10 508.52734375 -10 c 0,19,20
EndSplineSet
EndChar

StartChar: D
Encoding: 68 68 45
Width: 771
Flags: W
AnchorPoint: "Anchor-2" 397.5 0 basechar 0
AnchorPoint: "Anchor-1" 514.5 0 basechar 0
AnchorPoint: "Anchor-0" 413.5 622 basechar 0
LayerCount: 2
Fore
SplineSet
531.5 -58 m 5,0,1
 515.5 -32 515.5 -32 500.5 -5 c 132,-1,2
 485.5 22 485.5 22 473.5 46.5 c 132,-1,3
 461.5 71 461.5 71 453.5 89 c 6,4,-1
 439.5 121 l 6,5,6
 433.5 129 433.5 129 429 147 c 132,-1,7
 424.5 165 424.5 165 424.5 176 c 4,8,9
 424.5 211 424.5 211 445.5 225.5 c 132,-1,10
 466.5 240 466.5 240 491.5 240 c 4,11,12
 534.5 240 534.5 240 557 215.5 c 132,-1,13
 579.5 191 579.5 191 579.5 162 c 4,14,15
 579.5 135 579.5 135 569.5 118.5 c 132,-1,16
 559.5 102 559.5 102 542.5 93 c 132,-1,17
 525.5 84 525.5 84 504.5 79 c 6,18,-1
 479.5 77 l 6,19,20
 466.5 73 466.5 73 447 70.5 c 132,-1,21
 427.5 68 427.5 68 405.5 68 c 4,22,23
 363.5 68 363.5 68 321 78.5 c 132,-1,24
 278.5 89 278.5 89 243 112.5 c 132,-1,25
 207.5 136 207.5 136 186 175.5 c 132,-1,26
 164.5 215 164.5 215 164.5 272 c 4,27,28
 164.5 316 164.5 316 180 347.5 c 132,-1,29
 195.5 379 195.5 379 220.5 401 c 4,30,31
 253.5 430 253.5 430 301.5 443 c 132,-1,32
 349.5 456 349.5 456 408.5 456 c 6,33,-1
 449.5 456 l 5,34,-1
 413.5 420 l 5,35,-1
 413.5 551 l 5,36,-1
 118.5 551 l 5,37,-1
 118.5 622 l 5,38,-1
 652.5 622 l 5,39,-1
 652.5 551 l 5,40,-1
 494.5 551 l 5,41,-1
 494.5 385 l 5,42,-1
 445.5 385 l 6,43,44
 387.5 385 387.5 385 352 378 c 132,-1,45
 316.5 371 316.5 371 291.5 355 c 4,46,47
 269.5 340 269.5 340 257 317 c 132,-1,48
 244.5 294 244.5 294 244.5 262 c 4,49,50
 244.5 209 244.5 209 284 174.5 c 132,-1,51
 323.5 140 323.5 140 405.5 140 c 4,52,53
 417.5 140 417.5 140 430.5 141 c 132,-1,54
 443.5 142 443.5 142 471.5 148 c 5,55,-1
 519.5 104 l 5,56,57
 533.5 75 533.5 75 551 46 c 132,-1,58
 568.5 17 568.5 17 598.5 -24 c 5,59,-1
 531.5 -58 l 5,0,1
EndSplineSet
EndChar

StartChar: E
Encoding: 69 69 46
Width: 771
Flags: W
AnchorPoint: "Anchor-2" 404.775 536 basechar 0
AnchorPoint: "Anchor-1" 424.05 0 basechar 0
LayerCount: 2
Fore
SplineSet
413.76953125 -10 m 0,0,1
 265.995117188 -10 265.995117188 -10 195.3203125 34.5 c 128,-1,2
 124.64453125 79 124.64453125 79 124.64453125 146 c 0,3,4
 124.64453125 186 124.64453125 186 145.84765625 211.5 c 128,-1,5
 167.049804688 237 167.049804688 237 201.745117188 252.5 c 128,-1,6
 236.440429688 268 236.440429688 268 277.559570312 277 c 1,7,-1
 277.559570312 282 l 1,8,9
 239.009765625 291 239.009765625 291 210.09765625 307 c 128,-1,10
 181.184570312 323 181.184570312 323 165.122070312 347.5 c 128,-1,11
 149.059570312 372 149.059570312 372 149.059570312 404 c 0,12,13
 149.059570312 449 149.059570312 449 183.112304688 481 c 128,-1,14
 217.165039062 513 217.165039062 513 276.91796875 529.5 c 128,-1,15
 336.669921875 546 336.669921875 546 413.76953125 546 c 0,16,17
 488.299804688 546 488.299804688 546 541.627929688 536 c 128,-1,18
 594.955078125 526 594.955078125 526 646.35546875 508 c 1,19,-1
 603.950195312 438 l 1,20,21
 561.544921875 453 561.544921875 453 517.212890625 463 c 128,-1,22
 472.879882812 473 472.879882812 473 412.485351562 473 c 0,23,24
 335.384765625 473 335.384765625 473 296.192382812 454 c 128,-1,25
 257 435 257 435 257 397 c 0,26,27
 257 353 257 353 310.327148438 334 c 128,-1,28
 363.655273438 315 363.655273438 315 453.60546875 315 c 2,29,-1
 525.565429688 315 l 1,30,-1
 525.565429688 243 l 1,31,-1
 431.759765625 243 l 2,32,33
 334.099609375 243 334.099609375 243 285.912109375 220 c 128,-1,34
 237.724609375 197 237.724609375 197 237.724609375 151 c 0,35,36
 237.724609375 118 237.724609375 118 262.139648438 98.5 c 128,-1,37
 286.5546875 79 286.5546875 79 327.674804688 70.5 c 128,-1,38
 368.794921875 62 368.794921875 62 420.1953125 62 c 0,39,40
 492.155273438 62 492.155273438 62 546.767578125 75 c 128,-1,41
 601.379882812 88 601.379882812 88 643.78515625 104 c 1,42,-1
 643.78515625 27 l 1,43,44
 603.950195312 11 603.950195312 11 548.6953125 0.5 c 128,-1,45
 493.440429688 -10 493.440429688 -10 413.76953125 -10 c 0,0,1
EndSplineSet
EndChar

StartChar: F
Encoding: 70 70 47
Width: 771
Flags: W
AnchorPoint: "Anchor-3" 732.45 572 basechar 0
AnchorPoint: "Anchor-2" 398.35 572 basechar 0
AnchorPoint: "Anchor-1" 398.35 0 basechar 0
LayerCount: 2
Fore
SplineSet
161.91015625 0 m 1,0,-1
 161.91015625 572 l 1,1,-1
 609.08984375 572 l 1,2,-1
 609.08984375 501 l 1,3,-1
 273.705078125 501 l 1,4,-1
 273.705078125 309 l 1,5,-1
 589.815429688 309 l 1,6,-1
 589.815429688 238 l 1,7,-1
 273.705078125 238 l 1,8,-1
 273.705078125 0 l 1,9,-1
 161.91015625 0 l 1,0,-1
EndSplineSet
EndChar

StartChar: G
Encoding: 71 71 48
Width: 771
Flags: W
LayerCount: 2
Fore
SplineSet
313 637 m 5,0,1
 300 660 300 660 278 686.5 c 132,-1,2
 256 713 256 713 232 739 c 132,-1,3
 208 765 208 765 190 784 c 5,4,-1
 190 797 l 5,5,-1
 250 797 l 5,6,7
 276 780 276 780 304 756 c 132,-1,8
 332 732 332 732 357 705 c 5,9,10
 384 732 384 732 412 756 c 132,-1,11
 440 780 440 780 466 797 c 5,12,-1
 528 797 l 5,13,-1
 528 784 l 5,14,15
 509 765 509 765 484.5 739 c 132,-1,16
 460 713 460 713 437.5 686.5 c 132,-1,17
 415 660 415 660 403 637 c 5,18,-1
 313 637 l 5,0,1
368 546 m 0,19,20
 421 546 421 546 463.5 526 c 128,-1,21
 506 506 506 506 536 465 c 1,22,-1
 541 465 l 1,23,-1
 553 536 l 1,24,-1
 623 536 l 1,25,-1
 623 -9 l 2,26,27
 623 -85 623 -85 597 -136.5 c 128,-1,28
 571 -188 571 -188 518 -214 c 128,-1,29
 465 -240 465 -240 383 -240 c 0,30,31
 325 -240 325 -240 276.5 -231.5 c 128,-1,32
 228 -223 228 -223 190 -206 c 1,33,-1
 190 -125 l 1,34,35
 228 -145 228 -145 279 -156 c 128,-1,36
 330 -167 330 -167 388 -167 c 0,37,38
 457 -167 457 -167 496.5 -126.5 c 128,-1,39
 536 -86 536 -86 536 -16 c 2,40,-1
 536 5 l 2,41,42
 536 17 536 17 537 39.5 c 128,-1,43
 538 62 538 62 539 71 c 1,44,-1
 535 71 l 1,45,46
 507 30 507 30 465.5 10 c 128,-1,47
 424 -10 424 -10 369 -10 c 0,48,49
 265 -10 265 -10 206.5 63 c 128,-1,50
 148 136 148 136 148 267 c 0,51,52
 148 395 148 395 206.5 470.5 c 128,-1,53
 265 546 265 546 368 546 c 0,19,20
380 472 m 0,54,55
 335 472 335 472 303.5 448 c 128,-1,56
 272 424 272 424 255.5 378 c 128,-1,57
 239 332 239 332 239 266 c 0,58,59
 239 167 239 167 275.5 114.5 c 128,-1,60
 312 62 312 62 382 62 c 0,61,62
 423 62 423 62 452 72.5 c 128,-1,63
 481 83 481 83 500 105.5 c 128,-1,64
 519 128 519 128 528 163 c 128,-1,65
 537 198 537 198 537 246 c 2,66,-1
 537 267 l 2,67,68
 537 340 537 340 520.5 385 c 128,-1,69
 504 430 504 430 469 451 c 128,-1,70
 434 472 434 472 380 472 c 0,54,55
EndSplineSet
EndChar

StartChar: H
Encoding: 72 72 49
Width: 771
Flags: W
AnchorPoint: "Anchor-2" 378.5 0 basechar 0
LayerCount: 2
Fore
SplineSet
249.5 229 m 5,0,1
 224.5 247 224.5 247 203 277.5 c 132,-1,2
 181.5 308 181.5 308 181.5 352 c 4,3,4
 181.5 380 181.5 380 191.5 400 c 132,-1,5
 201.5 420 201.5 420 218.5 433 c 4,6,7
 233.5 445 233.5 445 251.5 452 c 132,-1,8
 269.5 459 269.5 459 292 462 c 132,-1,9
 314.5 465 314.5 465 341.5 465 c 6,10,-1
 473.5 465 l 5,11,-1
 473.5 551 l 5,12,-1
 112.5 551 l 5,13,-1
 112.5 622 l 5,14,-1
 658.5 622 l 5,15,-1
 658.5 551 l 5,16,-1
 554.5 551 l 5,17,-1
 554.5 394 l 5,18,-1
 342.5 394 l 6,19,20
 311.5 394 311.5 394 298.5 391 c 132,-1,21
 285.5 388 285.5 388 276.5 381 c 4,22,23
 269.5 375 269.5 375 265.5 366.5 c 132,-1,24
 261.5 358 261.5 358 261.5 347 c 4,25,26
 261.5 323 261.5 323 276 305 c 132,-1,27
 290.5 287 290.5 287 309.5 274 c 5,28,-1
 249.5 229 l 5,0,1
433.5 69 m 5,29,30
 469.5 80 469.5 80 492.5 98 c 132,-1,31
 515.5 116 515.5 116 515.5 148 c 4,32,33
 515.5 186 515.5 186 486.5 207.5 c 132,-1,34
 457.5 229 457.5 229 392.5 229 c 4,35,36
 323.5 229 323.5 229 287 200.5 c 132,-1,37
 250.5 172 250.5 172 250.5 124 c 4,38,39
 250.5 101 250.5 101 256.5 79.5 c 132,-1,40
 262.5 58 262.5 58 279.5 34 c 132,-1,41
 296.5 10 296.5 10 329 -20 c 132,-1,42
 361.5 -50 361.5 -50 414.5 -89 c 5,43,-1
 360.5 -142 l 5,44,45
 299.5 -94 299.5 -94 257 -51.5 c 132,-1,46
 214.5 -9 214.5 -9 192.5 35 c 132,-1,47
 170.5 79 170.5 79 170.5 130 c 4,48,49
 170.5 186 170.5 186 203 224 c 132,-1,50
 235.5 262 235.5 262 287 281 c 132,-1,51
 338.5 300 338.5 300 396.5 300 c 4,52,53
 465.5 300 465.5 300 509 279 c 132,-1,54
 552.5 258 552.5 258 573 224.5 c 132,-1,55
 593.5 191 593.5 191 593.5 153 c 4,56,57
 593.5 95 593.5 95 559.5 57 c 132,-1,58
 525.5 19 525.5 19 460.5 2 c 5,59,-1
 433.5 69 l 5,29,30
EndSplineSet
EndChar

StartChar: I
Encoding: 73 73 50
Width: 771
Flags: W
AnchorPoint: "Anchor-4" 398.35 283 basechar 0
AnchorPoint: "Anchor-3" 627.08 760 basechar 0
AnchorPoint: "Anchor-1" 399.635 0 basechar 0
LayerCount: 2
Fore
SplineSet
312.5 638 m 5,0,1
 299.5 661 299.5 661 277.5 687.5 c 132,-1,2
 255.5 714 255.5 714 231.5 740 c 132,-1,3
 207.5 766 207.5 766 189.5 785 c 5,4,-1
 189.5 798 l 5,5,-1
 249.5 798 l 5,6,7
 275.5 781 275.5 781 303.5 757 c 132,-1,8
 331.5 733 331.5 733 356.5 706 c 5,9,10
 383.5 733 383.5 733 411.5 757 c 132,-1,11
 439.5 781 439.5 781 465.5 798 c 5,12,-1
 527.5 798 l 5,13,-1
 527.5 785 l 5,14,15
 508.5 766 508.5 766 484 740 c 132,-1,16
 459.5 714 459.5 714 437 687.5 c 132,-1,17
 414.5 661 414.5 661 402.5 638 c 5,18,-1
 312.5 638 l 5,0,1
89.9501953125 0 m 1,19,-1
 89.9501953125 60 l 1,20,-1
 335.384765625 75 l 1,21,-1
 335.384765625 461 l 1,22,-1
 110.509765625 474 l 1,23,-1
 110.509765625 536 l 1,24,-1
 451.03515625 536 l 1,25,-1
 451.03515625 75 l 1,26,-1
 681.049804688 60 l 1,27,-1
 681.049804688 0 l 1,28,-1
 89.9501953125 0 l 1,19,-1
EndSplineSet
EndChar

StartChar: J
Encoding: 74 74 51
Width: 771
Flags: W
AnchorPoint: "Anchor-3" 742.088 572 basechar 0
AnchorPoint: "Anchor-2" 532.633 572 basechar 0
AnchorPoint: "Anchor-1" 382.287 -15 basechar 0
LayerCount: 2
Fore
SplineSet
346.307617188 -15 m 0,0,1
 303.90234375 -15 303.90234375 -15 258.28515625 -7 c 128,-1,2
 212.66796875 1 212.66796875 1 176.6875 14 c 1,3,-1
 176.6875 99 l 1,4,5
 206.2421875 89 206.2421875 89 249.290039062 78.5 c 128,-1,6
 292.337890625 68 292.337890625 68 337.3125 68 c 0,7,8
 401.5625 68 401.5625 68 440.112304688 103.5 c 128,-1,9
 478.662109375 139 478.662109375 139 478.662109375 224 c 2,10,-1
 478.662109375 572 l 1,11,-1
 594.3125 572 l 1,12,-1
 594.3125 212 l 2,13,14
 594.3125 140 594.3125 140 566.04296875 89 c 128,-1,15
 537.772460938 38 537.772460938 38 483.16015625 11.5 c 128,-1,16
 428.547851562 -15 428.547851562 -15 346.307617188 -15 c 0,0,1
EndSplineSet
EndChar

StartChar: K
Encoding: 75 75 52
Width: 771
Flags: W
AnchorPoint: "Anchor-2" 415 0 basechar 0
AnchorPoint: "Anchor-1" 375 0 basechar 0
AnchorPoint: "Anchor-0" 375 622 basechar 0
LayerCount: 2
Fore
SplineSet
376 637 m 1,0,1
 363 660 363 660 341 686.5 c 128,-1,2
 319 713 319 713 295 739 c 128,-1,3
 271 765 271 765 253 784 c 1,4,-1
 253 797 l 1,5,-1
 313 797 l 1,6,7
 339 780 339 780 367 756 c 128,-1,8
 395 732 395 732 420 705 c 1,9,10
 447 732 447 732 475 756 c 128,-1,11
 503 780 503 780 529 797 c 1,12,-1
 591 797 l 1,13,-1
 591 784 l 1,14,15
 572 765 572 765 547.5 739 c 128,-1,16
 523 713 523 713 500.5 686.5 c 128,-1,17
 478 660 478 660 466 637 c 1,18,-1
 376 637 l 1,0,1
730 551 m 5,19,-1
 456 551 l 1,20,-1
 456 336 l 1,21,-1
 452 345 l 1,22,23
 476 371 476 371 507 385 c 128,-1,24
 538 399 538 399 573 399 c 0,25,26
 638 399 638 399 679 357.5 c 128,-1,27
 720 316 720 316 720 239 c 0,28,29
 720 193 720 193 705 141 c 128,-1,30
 690 89 690 89 655 39 c 1,31,-1
 583 80 l 1,32,33
 608 112 608 112 624 154 c 128,-1,34
 640 196 640 196 640 237 c 0,35,36
 640 284 640 284 620.5 307 c 128,-1,37
 601 330 601 330 566 330 c 0,38,39
 539 330 539 330 510 311 c 128,-1,40
 481 292 481 292 451 252 c 1,41,-1
 456 277 l 1,42,-1
 456 0 l 1,43,-1
 375 0 l 1,44,-1
 375 210 l 1,45,-1
 389 186 l 1,46,47
 373 172 373 172 350.5 156 c 128,-1,48
 328 140 328 140 298.5 129 c 128,-1,49
 269 118 269 118 230 118 c 0,50,51
 183 118 183 118 141.5 137 c 128,-1,52
 100 156 100 156 75 194.5 c 128,-1,53
 50 233 50 233 50 290 c 0,54,55
 50 344 50 344 75 383 c 128,-1,56
 100 422 100 422 145 443 c 128,-1,57
 190 464 190 464 248 464 c 0,58,59
 271 464 271 464 299.5 460.5 c 128,-1,60
 328 457 328 457 343 454 c 1,61,-1
 337 381 l 1,62,63
 321 385 321 385 296.5 388 c 128,-1,64
 272 391 272 391 253 391 c 0,65,66
 195 391 195 391 163 365 c 128,-1,67
 131 339 131 339 131 292 c 0,68,69
 131 239 131 239 161.5 213.5 c 128,-1,70
 192 188 192 188 232 188 c 0,71,72
 282 188 282 188 320.5 215 c 128,-1,73
 359 242 359 242 392 278 c 1,74,-1
 375 224 l 1,75,-1
 375 551 l 1,76,-1
 41 551 l 1,77,-1
 41 622 l 1,78,-1
 730 622 l 5,79,-1
 730 551 l 5,19,-1
EndSplineSet
EndChar

StartChar: L
Encoding: 76 76 53
Width: 771
Flags: W
LayerCount: 2
Fore
SplineSet
450.392578125 599 m 4,0,1
 521 599 521 599 577.607421875 587 c 4,2,3
 634 575 634 575 677.837890625 558 c 5,4,-1
 638.002929688 488 l 5,5,6
 599 502 599 502 552.549804688 514 c 132,-1,7
 506 526 506 526 452.962890625 526 c 4,8,9
 380 526 380 526 341.16796875 496.5 c 4,10,11
 302.6171875 466.704101562 302.6171875 466.704101562 302.6171875 401 c 6,12,-1
 302.6171875 359 l 5,13,-1
 564.7578125 359 l 5,14,-1
 564.7578125 293 l 5,15,-1
 302.6171875 293 l 5,16,-1
 302.6171875 217 l 2,17,18
 302.979492188 177.25 302.979492188 177.25 290.41015625 157.5 c 0,19,20
 278 138 278 138 258.28515625 122 c 0,21,22
 238 106 238 106 215.237304688 95 c 1,23,-1
 708.677734375 95 l 1,24,-1
 708.677734375 15 l 1,25,-1
 62.322265625 15 l 1,26,-1
 62.322265625 89 l 1,27,28
 100 96 100 96 127.857421875 112.5 c 0,29,30
 148 124 148 124 172.83203125 150.5 c 0,31,32
 189.537109375 168.500976562 189.537109375 168.500976562 189.537109375 216 c 2,33,-1
 189.537109375 293 l 5,34,-1
 66.177734375 293 l 5,35,-1
 66.177734375 359 l 5,36,-1
 189.537109375 359 l 5,37,-1
 189.537109375 410 l 6,38,39
 190.0234375 470.908203125 190.0234375 470.908203125 221.662109375 512 c 4,40,41
 254 554 254 554 312.897460938 576.5 c 4,42,43
 372 599 372 599 450.392578125 599 c 4,0,1
EndSplineSet
EndChar

StartChar: M
Encoding: 77 77 54
Width: 771
Flags: W
AnchorPoint: "Anchor-1" 385.5 798 basechar 0
LayerCount: 2
Fore
SplineSet
339.5 638 m 5,0,1
 326.5 661 326.5 661 304.5 687.5 c 132,-1,2
 282.5 714 282.5 714 258.5 740 c 132,-1,3
 234.5 766 234.5 766 216.5 785 c 5,4,-1
 216.5 798 l 5,5,-1
 276.5 798 l 5,6,7
 302.5 781 302.5 781 330.5 757 c 132,-1,8
 358.5 733 358.5 733 383.5 706 c 5,9,10
 410.5 733 410.5 733 438.5 757 c 132,-1,11
 466.5 781 466.5 781 492.5 798 c 5,12,-1
 554.5 798 l 5,13,-1
 554.5 785 l 5,14,15
 535.5 766 535.5 766 511 740 c 132,-1,16
 486.5 714 486.5 714 464 687.5 c 132,-1,17
 441.5 661 441.5 661 429.5 638 c 5,18,-1
 339.5 638 l 5,0,1
588.5 551 m 1,19,-1
 588.5 0 l 1,20,-1
 507.5 0 l 1,21,-1
 507.5 250 l 1,22,-1
 286.5 250 l 1,23,-1
 286.5 213 l 2,24,25
 286.5 180 286.5 180 272 165.5 c 128,-1,26
 257.5 151 257.5 151 238.5 151 c 256,27,28
 219.5 151 219.5 151 198.5 163.5 c 128,-1,29
 177.5 176 177.5 176 159.5 195.5 c 128,-1,30
 141.5 215 141.5 215 130 237 c 128,-1,31
 118.5 259 118.5 259 118.5 278 c 0,32,33
 118.5 296 118.5 296 132 308.5 c 128,-1,34
 145.5 321 145.5 321 179.5 321 c 2,35,-1
 205.5 321 l 1,36,-1
 205.5 551 l 1,37,-1
 79.5 551 l 1,38,-1
 79.5 622 l 1,39,-1
 691.5 622 l 1,40,-1
 691.5 551 l 1,41,-1
 588.5 551 l 1,19,-1
507.5 551 m 1,42,-1
 286.5 551 l 1,43,-1
 286.5 321 l 1,44,-1
 507.5 321 l 1,45,-1
 507.5 551 l 1,42,-1
EndSplineSet
EndChar

StartChar: N
Encoding: 78 78 55
Width: 771
Flags: W
AnchorPoint: "Anchor-1" 386 798 basechar 0
LayerCount: 2
Fore
SplineSet
340 638 m 5,0,1
 327 661 327 661 305 687.5 c 132,-1,2
 283 714 283 714 259 740 c 132,-1,3
 235 766 235 766 217 785 c 5,4,-1
 217 798 l 5,5,-1
 277 798 l 5,6,7
 303 781 303 781 331 757 c 132,-1,8
 359 733 359 733 384 706 c 5,9,10
 411 733 411 733 439 757 c 132,-1,11
 467 781 467 781 493 798 c 5,12,-1
 555 798 l 5,13,-1
 555 785 l 5,14,15
 536 766 536 766 511.5 740 c 132,-1,16
 487 714 487 714 464.5 687.5 c 132,-1,17
 442 661 442 661 430 638 c 5,18,-1
 340 638 l 5,0,1
101 622 m 5,19,-1
 670 622 l 5,20,-1
 670 551 l 5,21,-1
 567 551 l 5,22,-1
 567 0 l 5,23,-1
 486 0 l 5,24,-1
 486 298 l 5,25,-1
 305 298 l 5,26,-1
 305 244 l 6,27,28
 305 216 305 216 291 202 c 132,-1,29
 277 188 277 188 254 188 c 4,30,31
 236 188 236 188 215.5 200 c 132,-1,32
 195 212 195 212 177.5 232 c 132,-1,33
 160 252 160 252 149 274.5 c 132,-1,34
 138 297 138 297 138 318 c 4,35,36
 138 341 138 341 151.5 355 c 132,-1,37
 165 369 165 369 199 369 c 6,38,-1
 486 369 l 5,39,-1
 486 551 l 5,40,-1
 101 551 l 5,41,-1
 101 622 l 5,19,-1
EndSplineSet
EndChar

StartChar: O
Encoding: 79 79 56
Width: 771
Flags: W
AnchorPoint: "Anchor-1" 384.5 794 basechar 0
LayerCount: 2
Fore
SplineSet
338.5 634 m 5,0,1
 325.5 657 325.5 657 303.5 683.5 c 132,-1,2
 281.5 710 281.5 710 257.5 736 c 132,-1,3
 233.5 762 233.5 762 215.5 781 c 5,4,-1
 215.5 794 l 5,5,-1
 275.5 794 l 5,6,7
 301.5 777 301.5 777 329.5 753 c 132,-1,8
 357.5 729 357.5 729 382.5 702 c 5,9,10
 409.5 729 409.5 729 437.5 753 c 132,-1,11
 465.5 777 465.5 777 491.5 794 c 5,12,-1
 553.5 794 l 5,13,-1
 553.5 781 l 5,14,15
 534.5 762 534.5 762 510 736 c 132,-1,16
 485.5 710 485.5 710 463 683.5 c 132,-1,17
 440.5 657 440.5 657 428.5 634 c 5,18,-1
 338.5 634 l 5,0,1
633.5 269 m 0,19,20
 633.5 202 633.5 202 616 150.5 c 128,-1,21
 598.5 99 598.5 99 566 63 c 128,-1,22
 533.5 27 533.5 27 487 8.5 c 128,-1,23
 440.5 -10 440.5 -10 383.5 -10 c 0,24,25
 330.5 -10 330.5 -10 285.5 8.5 c 128,-1,26
 240.5 27 240.5 27 207.5 63 c 128,-1,27
 174.5 99 174.5 99 156 150.5 c 128,-1,28
 137.5 202 137.5 202 137.5 269 c 0,29,30
 137.5 358 137.5 358 167.5 419.5 c 128,-1,31
 197.5 481 197.5 481 253.5 513.5 c 128,-1,32
 309.5 546 309.5 546 386.5 546 c 0,33,34
 459.5 546 459.5 546 515 513.5 c 128,-1,35
 570.5 481 570.5 481 602 419.5 c 128,-1,36
 633.5 358 633.5 358 633.5 269 c 0,19,20
228.5 269 m 0,37,38
 228.5 206 228.5 206 245 159.5 c 128,-1,39
 261.5 113 261.5 113 296.5 88 c 128,-1,40
 331.5 63 331.5 63 385.5 63 c 256,41,42
 439.5 63 439.5 63 474.5 88 c 128,-1,43
 509.5 113 509.5 113 526 159.5 c 128,-1,44
 542.5 206 542.5 206 542.5 269 c 0,45,46
 542.5 333 542.5 333 525.5 378 c 128,-1,47
 508.5 423 508.5 423 474 447.5 c 128,-1,48
 439.5 472 439.5 472 384.5 472 c 0,49,50
 302.5 472 302.5 472 265.5 418 c 128,-1,51
 228.5 364 228.5 364 228.5 269 c 0,37,38
EndSplineSet
EndChar

StartChar: P
Encoding: 80 80 57
Width: 771
Flags: W
AnchorPoint: "Anchor-1" 379 797 basechar 0
LayerCount: 2
Fore
SplineSet
333 637 m 5,0,1
 320 660 320 660 298 686.5 c 132,-1,2
 276 713 276 713 252 739 c 132,-1,3
 228 765 228 765 210 784 c 5,4,-1
 210 797 l 5,5,-1
 270 797 l 5,6,7
 296 780 296 780 324 756 c 132,-1,8
 352 732 352 732 377 705 c 5,9,10
 404 732 404 732 432 756 c 132,-1,11
 460 780 460 780 486 797 c 5,12,-1
 548 797 l 5,13,-1
 548 784 l 5,14,15
 529 765 529 765 504.5 739 c 132,-1,16
 480 713 480 713 457.5 686.5 c 132,-1,17
 435 660 435 660 423 637 c 5,18,-1
 333 637 l 5,0,1
573 551 m 1,19,-1
 573 0 l 1,20,-1
 492 0 l 1,21,-1
 492 227 l 1,22,-1
 511 203 l 1,23,24
 490 189 490 189 466 175.5 c 128,-1,25
 442 162 442 162 413.5 154 c 128,-1,26
 385 146 385 146 348 146 c 0,27,28
 308 146 308 146 275.5 159.5 c 128,-1,29
 243 173 243 173 222 194 c 0,30,31
 205 212 205 212 194 233.5 c 128,-1,32
 183 255 183 255 178 285 c 128,-1,33
 173 315 173 315 173 358 c 2,34,-1
 173 551 l 1,35,-1
 94 551 l 1,36,-1
 94 622 l 1,37,-1
 677 622 l 1,38,-1
 677 551 l 1,39,-1
 573 551 l 1,19,-1
492 551 m 1,40,-1
 254 551 l 1,41,-1
 254 369 l 2,42,43
 254 328 254 328 257 304 c 128,-1,44
 260 280 260 280 266.5 265.5 c 128,-1,45
 273 251 273 251 284 240 c 0,46,47
 296 228 296 228 314 222.5 c 128,-1,48
 332 217 332 217 357 217 c 0,49,50
 388 217 388 217 416.5 229 c 128,-1,51
 445 241 445 241 468.5 259.5 c 128,-1,52
 492 278 492 278 508 298 c 1,53,-1
 492 246 l 1,54,-1
 492 551 l 1,40,-1
EndSplineSet
EndChar

StartChar: Q
Encoding: 81 81 58
Width: 771
Flags: W
LayerCount: 2
Fore
SplineSet
708.03515625 -1 m 5,0,1
 682.334960938 -1 682.334960938 -1 657.919921875 6 c 132,-1,2
 633.504882812 13 633.504882812 13 615.514648438 30 c 5,3,-1
 615.514648438 235 l 5,4,5
 579.53515625 210 579.53515625 210 531.990234375 194.5 c 132,-1,6
 484.4453125 179 484.4453125 179 420.1953125 179 c 4,7,8
 366.224609375 179 366.224609375 179 303.259765625 202 c 132,-1,9
 240.294921875 225 240.294921875 225 186.325195312 262 c 132,-1,10
 132.35546875 299 132.35546875 299 96.375 345 c 132,-1,11
 60.39453125 391 60.39453125 391 60.39453125 437 c 4,12,13
 60.39453125 485 60.39453125 485 82.8828125 522 c 132,-1,14
 105.370117188 559 105.370117188 559 143.919921875 584.5 c 132,-1,15
 182.469726562 610 182.469726562 610 234.512695312 623 c 132,-1,16
 286.5546875 636 286.5546875 636 345.665039062 636 c 4,17,18
 389.35546875 636 389.35546875 636 427.905273438 628 c 4,19,20
 490.870117188 615 490.870117188 615 499.865234375 606.5 c 4,21,22
 544.83984375 566 544.83984375 566 562.1875 575.5 c 4,23,24
 566.684570312 578 566.684570312 578 615.514648438 662 c 5,25,-1
 612.9453125 661 l 5,26,-1
 710.60546875 661 l 6,27,-1
 708.03515625 -1 l 5,0,1
346.950195312 236 m 4,28,29
 395.780273438 236 395.780273438 236 442.040039062 248.5 c 132,-1,30
 488.299804688 261 488.299804688 261 526.849609375 284 c 5,31,-1
 227.4453125 524 l 5,32,33
 192.75 500 192.75 500 173.474609375 465.5 c 132,-1,34
 154.200195312 431 154.200195312 431 154.200195312 386 c 4,35,36
 154.200195312 350 154.200195312 350 168.977539062 322 c 132,-1,37
 183.754882812 294 183.754882812 294 209.455078125 275 c 132,-1,38
 235.155273438 256 235.155273438 256 270.4921875 246 c 132,-1,39
 305.830078125 236 305.830078125 236 346.950195312 236 c 4,28,29
615.514648438 515 m 5,40,41
 570.540039062 542 570.540039062 542 522.352539062 557.5 c 132,-1,42
 474.165039062 573 474.165039062 573 411.200195312 573 c 4,43,44
 318.6796875 573 318.6796875 573 253.14453125 540 c 5,45,-1
 549.98046875 300 l 5,46,47
 570.540039062 315 570.540039062 315 587.245117188 333 c 132,-1,48
 603.950195312 351 603.950195312 351 615.514648438 371 c 5,49,-1
 615.514648438 515 l 5,40,41
EndSplineSet
EndChar

StartChar: R
Encoding: 82 82 59
Width: 771
Flags: W
AnchorPoint: "Anchor-2" 366.5 0 basechar 0
AnchorPoint: "Anchor-1" 377.5 0 basechar 0
LayerCount: 2
Fore
SplineSet
324.5 637 m 1,0,1
 311.5 660 311.5 660 289.5 686.5 c 128,-1,2
 267.5 713 267.5 713 243.5 739 c 128,-1,3
 219.5 765 219.5 765 201.5 784 c 1,4,-1
 201.5 797 l 1,5,-1
 261.5 797 l 1,6,7
 287.5 780 287.5 780 315.5 756 c 128,-1,8
 343.5 732 343.5 732 368.5 705 c 1,9,10
 395.5 732 395.5 732 423.5 756 c 128,-1,11
 451.5 780 451.5 780 477.5 797 c 1,12,-1
 539.5 797 l 1,13,-1
 539.5 784 l 1,14,15
 520.5 765 520.5 765 496 739 c 128,-1,16
 471.5 713 471.5 713 449 686.5 c 128,-1,17
 426.5 660 426.5 660 414.5 637 c 1,18,-1
 324.5 637 l 1,0,1
445.5 551 m 1,19,-1
 473.5 566 l 1,20,21
 484.5 550 484.5 550 491 523 c 128,-1,22
 497.5 496 497.5 496 497.5 458 c 0,23,24
 497.5 402 497.5 402 474.5 363.5 c 128,-1,25
 451.5 325 451.5 325 411.5 298 c 128,-1,26
 371.5 271 371.5 271 320.5 251 c 1,27,-1
 324.5 259 l 1,28,29
 354.5 224 354.5 224 392 186.5 c 128,-1,30
 429.5 149 429.5 149 471.5 112.5 c 128,-1,31
 513.5 76 513.5 76 556.5 42 c 1,32,-1
 502.5 -12 l 1,33,34
 443.5 37 443.5 37 391.5 87 c 128,-1,35
 339.5 137 339.5 137 299.5 181 c 128,-1,36
 259.5 225 259.5 225 236.5 256 c 0,37,38
 214.5 287 214.5 287 208 305 c 128,-1,39
 201.5 323 201.5 323 201.5 340 c 0,40,41
 201.5 359 201.5 359 216.5 376 c 128,-1,42
 231.5 393 231.5 393 265.5 393 c 0,43,44
 303.5 393 303.5 393 327.5 368 c 128,-1,45
 351.5 343 351.5 343 370.5 300 c 1,46,-1
 308.5 335 l 1,47,48
 365.5 354 365.5 354 391.5 387.5 c 128,-1,49
 417.5 421 417.5 421 417.5 468 c 0,50,51
 417.5 497 417.5 497 410 525.5 c 128,-1,52
 402.5 554 402.5 554 391.5 565 c 1,53,-1
 436.5 551 l 1,54,-1
 78.5 551 l 5,55,-1
 78.5 622 l 5,56,-1
 692.5 622 l 1,57,-1
 692.5 551 l 1,58,-1
 445.5 551 l 1,19,-1
EndSplineSet
EndChar

StartChar: S
Encoding: 83 83 60
Width: 771
Flags: W
AnchorPoint: "Anchor-1" 409 796 basechar 0
LayerCount: 2
Fore
SplineSet
363 636 m 5,0,1
 350 659 350 659 328 685.5 c 132,-1,2
 306 712 306 712 282 738 c 132,-1,3
 258 764 258 764 240 783 c 5,4,-1
 240 796 l 5,5,-1
 300 796 l 5,6,7
 326 779 326 779 354 755 c 132,-1,8
 382 731 382 731 407 704 c 5,9,10
 434 731 434 731 462 755 c 132,-1,11
 490 779 490 779 516 796 c 5,12,-1
 578 796 l 5,13,-1
 578 783 l 5,14,15
 559 764 559 764 534.5 738 c 132,-1,16
 510 712 510 712 487.5 685.5 c 132,-1,17
 465 659 465 659 453 636 c 5,18,-1
 363 636 l 5,0,1
285 551 m 5,19,-1
 313 566 l 5,20,21
 324 550 324 550 331 523 c 132,-1,22
 338 496 338 496 338 458 c 4,23,24
 338 414 338 414 327.5 381.5 c 132,-1,25
 317 349 317 349 298 328 c 5,26,-1
 297 319 l 5,27,28
 279 296 279 296 254.5 279 c 132,-1,29
 230 262 230 262 199 250 c 5,30,-1
 203 259 l 5,31,32
 244 206 244 206 300.5 149 c 132,-1,33
 357 92 357 92 420 42 c 5,34,-1
 366 -12 l 5,35,36
 310 37 310 37 260.5 87 c 132,-1,37
 211 137 211 137 173 181 c 132,-1,38
 135 225 135 225 113 256 c 260,39,40
 91 287 91 287 85.5 305 c 132,-1,41
 80 323 80 323 80 340 c 4,42,43
 80 359 80 359 95 376 c 132,-1,44
 110 393 110 393 144 393 c 4,45,46
 169 393 169 393 187.5 381.5 c 132,-1,47
 206 370 206 370 221 349.5 c 132,-1,48
 236 329 236 329 249 300 c 5,49,-1
 188 331 l 5,50,51
 216 339 216 339 230.5 359 c 132,-1,52
 245 379 245 379 251 405.5 c 132,-1,53
 257 432 257 432 257 458 c 4,54,55
 257 496 257 496 250 523.5 c 132,-1,56
 243 551 243 551 234 564 c 5,57,-1
 277 551 l 5,58,-1
 40 551 l 5,59,-1
 40 622 l 5,60,-1
 457 622 l 5,61,-1
 457 551 l 5,62,-1
 285 551 l 5,19,-1
627 551 m 5,63,-1
 627 0 l 5,64,-1
 546 0 l 5,65,-1
 546 551 l 5,66,-1
 436 551 l 5,67,-1
 436 622 l 5,68,-1
 731 622 l 5,69,-1
 731 551 l 5,70,-1
 627 551 l 5,63,-1
409 322 m 4,71,72
 443 322 443 322 471 325 c 132,-1,73
 499 328 499 328 527 334.5 c 132,-1,74
 555 341 555 341 587 353 c 5,75,-1
 587 280 l 5,76,77
 544 263 544 263 508.5 257 c 132,-1,78
 473 251 473 251 420 251 c 4,79,80
 387 251 387 251 350.5 255.5 c 132,-1,81
 314 260 314 260 282 268.5 c 132,-1,82
 250 277 250 277 230 287 c 5,83,-1
 250 347 l 5,84,85
 270 340 270 340 296 334 c 132,-1,86
 322 328 322 328 351 325 c 132,-1,87
 380 322 380 322 409 322 c 4,71,72
EndSplineSet
EndChar

StartChar: T
Encoding: 84 84 61
Width: 771
Flags: W
LayerCount: 2
Fore
SplineSet
574.5 551 m 5,0,-1
 574.5 0 l 5,1,-1
 493.5 0 l 5,2,-1
 493.5 328 l 5,3,-1
 384.5 328 l 6,4,5
 323.5 328 323.5 328 293 322 c 132,-1,6
 262.5 316 262.5 316 243.5 299 c 4,7,8
 231.5 289 231.5 289 225.5 274 c 132,-1,9
 219.5 259 219.5 259 219.5 237 c 4,10,11
 219.5 204 219.5 204 236 173.5 c 132,-1,12
 252.5 143 252.5 143 285 110.5 c 132,-1,13
 317.5 78 317.5 78 364.5 40 c 5,14,-1
 310.5 -12 l 5,15,16
 264.5 28 264.5 28 225 68 c 132,-1,17
 185.5 108 185.5 108 162 151 c 132,-1,18
 138.5 194 138.5 194 138.5 242 c 4,19,20
 138.5 277 138.5 277 152 305 c 132,-1,21
 165.5 333 165.5 333 186.5 351 c 4,22,23
 205.5 368 205.5 368 229.5 378.5 c 132,-1,24
 253.5 389 253.5 389 287 394 c 132,-1,25
 320.5 399 320.5 399 365.5 399 c 6,26,-1
 493.5 399 l 5,27,-1
 493.5 551 l 5,28,-1
 93.5 551 l 5,29,-1
 93.5 622 l 5,30,-1
 677.5 622 l 5,31,-1
 677.5 551 l 5,32,-1
 574.5 551 l 5,0,-1
EndSplineSet
EndChar

StartChar: U
Encoding: 85 85 62
Width: 771
Flags: W
AnchorPoint: "Anchor-3" 751.725 572 basechar 0
AnchorPoint: "Anchor-2" 385.5 572 basechar 0
AnchorPoint: "Anchor-1" 385.5 0 basechar 0
LayerCount: 2
Fore
SplineSet
381.64453125 -8 m 0,0,1
 245.434570312 -8 245.434570312 -8 170.905273438 49.5 c 128,-1,2
 96.375 107 96.375 107 96.375 211 c 2,3,-1
 96.375 572 l 1,4,-1
 209.455078125 572 l 1,5,-1
 209.455078125 215 l 2,6,7
 209.455078125 142 209.455078125 142 255.71484375 103.5 c 128,-1,8
 301.974609375 65 301.974609375 65 388.0703125 65 c 0,9,10
 472.879882812 65 472.879882812 65 517.212890625 103.5 c 128,-1,11
 561.544921875 142 561.544921875 142 561.544921875 213 c 2,12,-1
 561.544921875 572 l 1,13,-1
 674.625 572 l 1,14,-1
 674.625 212 l 2,15,16
 674.625 143 674.625 143 640.572265625 94 c 128,-1,17
 606.51953125 45 606.51953125 45 540.985351562 18.5 c 128,-1,18
 475.450195312 -8 475.450195312 -8 381.64453125 -8 c 0,0,1
EndSplineSet
EndChar

StartChar: V
Encoding: 86 86 63
Width: 771
Flags: W
AnchorPoint: "Anchor-1" 376 797 basechar 0
LayerCount: 2
Fore
SplineSet
330 637 m 5,0,1
 317 660 317 660 295 686.5 c 132,-1,2
 273 713 273 713 249 739 c 132,-1,3
 225 765 225 765 207 784 c 5,4,-1
 207 797 l 5,5,-1
 267 797 l 5,6,7
 293 780 293 780 321 756 c 132,-1,8
 349 732 349 732 374 705 c 5,9,10
 401 732 401 732 429 756 c 132,-1,11
 457 780 457 780 483 797 c 5,12,-1
 545 797 l 5,13,-1
 545 784 l 5,14,15
 526 765 526 765 501.5 739 c 132,-1,16
 477 713 477 713 454.5 686.5 c 132,-1,17
 432 660 432 660 420 637 c 5,18,-1
 330 637 l 5,0,1
680 551 m 1,19,-1
 558 551 l 1,20,-1
 558 0 l 1,21,-1
 478 0 l 1,22,-1
 478 201 l 1,23,-1
 493 176 l 1,24,25
 466 155 466 155 426 136.5 c 128,-1,26
 386 118 386 118 324 118 c 0,27,28
 270 118 270 118 228 139 c 128,-1,29
 186 160 186 160 161.5 197.5 c 128,-1,30
 137 235 137 235 137 286 c 0,31,32
 137 372 137 372 194.5 418 c 128,-1,33
 252 464 252 464 346 464 c 0,34,35
 359 464 359 464 378.5 462.5 c 128,-1,36
 398 461 398 461 416.5 459 c 128,-1,37
 435 457 435 457 445 454 c 1,38,-1
 440 381 l 1,39,40
 421 385 421 385 397 388 c 128,-1,41
 373 391 373 391 350 391 c 0,42,43
 288 391 288 391 253 364 c 128,-1,44
 218 337 218 337 218 287 c 0,45,46
 218 236 218 236 249.5 212 c 128,-1,47
 281 188 281 188 326 188 c 0,48,49
 366 188 366 188 396.5 201.5 c 128,-1,50
 427 215 427 215 450.5 235 c 128,-1,51
 474 255 474 255 491 274 c 1,52,-1
 478 223 l 1,53,-1
 478 551 l 1,54,-1
 91 551 l 1,55,-1
 91 622 l 1,56,-1
 680 622 l 1,57,-1
 680 551 l 1,19,-1
EndSplineSet
EndChar

StartChar: W
Encoding: 87 87 64
Width: 771
Flags: W
AnchorPoint: "Anchor-2" 385.5 536 basechar 0
AnchorPoint: "Anchor-1" 385.5 0 basechar 0
LayerCount: 2
Fore
SplineSet
253.14453125 -10 m 0,0,1
 167.049804688 -10 167.049804688 -10 118.862304688 60 c 128,-1,2
 70.6748046875 130 70.6748046875 130 70.6748046875 263 c 0,3,4
 70.6748046875 310 70.6748046875 310 77.099609375 354.5 c 128,-1,5
 83.525390625 399 83.525390625 399 96.375 444.5 c 128,-1,6
 109.224609375 490 109.224609375 490 129.78515625 537 c 1,7,-1
 239.009765625 537 l 1,8,9
 215.879882812 488 215.879882812 488 203.030273438 442.5 c 128,-1,10
 190.1796875 397 190.1796875 397 185.040039062 353.5 c 128,-1,11
 179.900390625 310 179.900390625 310 179.900390625 266 c 0,12,13
 179.900390625 161 179.900390625 161 201.745117188 114.5 c 128,-1,14
 223.58984375 68 223.58984375 68 264.709960938 68 c 0,15,16
 301.974609375 68 301.974609375 68 318.6796875 103.5 c 128,-1,17
 335.384765625 139 335.384765625 139 335.384765625 215 c 2,18,-1
 335.384765625 348 l 1,19,-1
 435.615234375 348 l 1,20,-1
 435.615234375 215 l 2,21,22
 435.615234375 140 435.615234375 140 452.3203125 104 c 128,-1,23
 469.025390625 68 469.025390625 68 505.004882812 68 c 0,24,25
 547.41015625 68 547.41015625 68 569.897460938 116 c 128,-1,26
 592.384765625 164 592.384765625 164 592.384765625 262 c 0,27,28
 592.384765625 308 592.384765625 308 586.602539062 355 c 128,-1,29
 580.8203125 402 580.8203125 402 567.969726562 448 c 128,-1,30
 555.120117188 494 555.120117188 494 533.275390625 537 c 1,31,-1
 641.21484375 537 l 1,32,33
 670.76953125 468 670.76953125 468 685.547851562 400.5 c 128,-1,34
 700.325195312 333 700.325195312 333 700.325195312 264 c 0,35,36
 700.325195312 197 700.325195312 197 687.474609375 146 c 128,-1,37
 674.625 95 674.625 95 650.209960938 60 c 128,-1,38
 625.794921875 25 625.794921875 25 591.7421875 7.5 c 128,-1,39
 557.690429688 -10 557.690429688 -10 515.28515625 -10 c 0,40,41
 466.455078125 -10 466.455078125 -10 433.6875 14 c 128,-1,42
 400.919921875 38 400.919921875 38 386.78515625 81 c 1,43,-1
 384.21484375 81 l 1,44,45
 371.365234375 38 371.365234375 38 338.59765625 14 c 128,-1,46
 305.830078125 -10 305.830078125 -10 253.14453125 -10 c 0,0,1
EndSplineSet
EndChar

StartChar: X
Encoding: 88 88 65
Width: 771
Flags: W
AnchorPoint: "Anchor-3" 745.942 572 basechar 0
AnchorPoint: "Anchor-2" 386.143 572 basechar 0
AnchorPoint: "Anchor-1" 386.143 0 basechar 0
LayerCount: 2
Fore
SplineSet
67.462890625 0 m 1,0,-1
 315.467773438 295 l 1,1,-1
 88.0224609375 572 l 1,2,-1
 211.3828125 572 l 1,3,-1
 386.142578125 354 l 1,4,-1
 560.90234375 572 l 1,5,-1
 685.547851562 572 l 1,6,-1
 452.962890625 292 l 1,7,-1
 703.537109375 0 l 1,8,-1
 575.037109375 0 l 1,9,-1
 384.857421875 231 l 1,10,-1
 193.392578125 0 l 1,11,-1
 67.462890625 0 l 1,0,-1
EndSplineSet
EndChar

StartChar: Y
Encoding: 89 89 66
Width: 771
Flags: W
AnchorPoint: "Anchor-1" 373 798 basechar 0
LayerCount: 2
Fore
SplineSet
327 638 m 5,0,1
 314 661 314 661 292 687.5 c 132,-1,2
 270 714 270 714 246 740 c 132,-1,3
 222 766 222 766 204 785 c 5,4,-1
 204 798 l 5,5,-1
 264 798 l 5,6,7
 290 781 290 781 318 757 c 132,-1,8
 346 733 346 733 371 706 c 5,9,10
 398 733 398 733 426 757 c 132,-1,11
 454 781 454 781 480 798 c 5,12,-1
 542 798 l 5,13,-1
 542 785 l 5,14,15
 523 766 523 766 498.5 740 c 132,-1,16
 474 714 474 714 451.5 687.5 c 132,-1,17
 429 661 429 661 417 638 c 5,18,-1
 327 638 l 5,0,1
683 622 m 5,19,-1
 683 551 l 5,20,-1
 579 551 l 5,21,-1
 579 0 l 5,22,-1
 498 0 l 5,23,-1
 498 216 l 5,24,-1
 514 191 l 5,25,26
 496 177 496 177 470.5 163 c 132,-1,27
 445 149 445 149 412.5 140.5 c 132,-1,28
 380 132 380 132 341 132 c 4,29,30
 281 132 281 132 236 159.5 c 132,-1,31
 191 187 191 187 163.5 237 c 132,-1,32
 136 287 136 287 126 353 c 5,33,34
 188 366 188 366 218 389.5 c 132,-1,35
 248 413 248 413 248 457 c 4,36,37
 248 492 248 492 231.5 520 c 132,-1,38
 215 548 215 548 198 566 c 5,39,-1
 247 551 l 5,40,-1
 88 551 l 5,41,-1
 88 622 l 5,42,-1
 683 622 l 5,19,-1
263 551 m 5,43,-1
 286 572 l 5,44,45
 306 544 306 544 317 510.5 c 132,-1,46
 328 477 328 477 328 445 c 4,47,48
 328 393 328 393 300.5 356 c 132,-1,49
 273 319 273 319 217 301 c 5,50,51
 237 252 237 252 267.5 227.5 c 132,-1,52
 298 203 298 203 347 203 c 4,53,54
 404 203 404 203 445 230.5 c 132,-1,55
 486 258 486 258 513 292 c 5,56,-1
 498 239 l 5,57,-1
 498 551 l 5,58,-1
 263 551 l 5,43,-1
EndSplineSet
EndChar

StartChar: Z
Encoding: 90 90 67
Width: 771
Flags: W
AnchorPoint: "Anchor-1" 355 798 basechar 0
LayerCount: 2
Fore
SplineSet
346 638 m 1,0,1
 333 661 333 661 311 687.5 c 128,-1,2
 289 714 289 714 265 740 c 128,-1,3
 241 766 241 766 223 785 c 1,4,-1
 223 798 l 1,5,-1
 283 798 l 1,6,7
 309 781 309 781 337 757 c 128,-1,8
 365 733 365 733 390 706 c 1,9,10
 417 733 417 733 445 757 c 128,-1,11
 473 781 473 781 499 798 c 1,12,-1
 561 798 l 1,13,-1
 561 785 l 1,14,15
 542 766 542 766 517.5 740 c 128,-1,16
 493 714 493 714 470.5 687.5 c 128,-1,17
 448 661 448 661 436 638 c 1,18,-1
 346 638 l 1,0,1
654 551 m 1,19,-1
 654 0 l 1,20,-1
 573 0 l 1,21,-1
 573 370 l 1,22,-1
 436 370 l 2,23,24
 410 370 410 370 394.5 371 c 128,-1,25
 379 372 379 372 370 375 c 1,26,-1
 363 385 l 1,27,28
 405 356 405 356 432 312 c 128,-1,29
 459 268 459 268 459 218 c 0,30,31
 459 172 459 172 438.5 141 c 128,-1,32
 418 110 418 110 384.5 95 c 128,-1,33
 351 80 351 80 311 80 c 256,34,35
 271 80 271 80 234.5 97 c 128,-1,36
 198 114 198 114 163.5 151.5 c 128,-1,37
 129 189 129 189 96.5 250.5 c 128,-1,38
 64 312 64 312 32 401 c 1,39,-1
 103 426 l 1,40,41
 134 337 134 337 166 276 c 128,-1,42
 198 215 198 215 233 184 c 128,-1,43
 268 153 268 153 307 153 c 0,44,45
 339 153 339 153 359.5 170 c 128,-1,46
 380 187 380 187 380 227 c 0,47,48
 380 271 380 271 349.5 310 c 128,-1,49
 319 349 319 349 274 377 c 1,50,-1
 303 441 l 1,51,-1
 573 441 l 1,52,-1
 573 551 l 1,53,-1
 43 551 l 1,54,-1
 43 622 l 1,55,-1
 739 622 l 5,56,-1
 739 551 l 5,57,-1
 654 551 l 1,19,-1
EndSplineSet
EndChar

StartChar: a
Encoding: 97 97 68
Width: 771
Flags: W
AnchorPoint: "Anchor-3" 758.15 536 basechar 0
AnchorPoint: "Anchor-2" 404.775 536 basechar 0
AnchorPoint: "Anchor-1" 398.35 0 basechar 0
AnchorPoint: "Anchor-0" 706.75 10 basechar 0
LayerCount: 2
Fore
SplineSet
328.959960938 -10 m 4,0,1
 227.4453125 -10 227.4453125 -10 165.122070312 29 c 132,-1,2
 102.799804688 68 102.799804688 68 102.799804688 147 c 4,3,4
 102.799804688 205 102.799804688 205 138.780273438 243.5 c 132,-1,5
 174.759765625 282 174.759765625 282 244.79296875 301.5 c 132,-1,6
 314.825195312 321 314.825195312 321 415.0546875 323 c 6,7,-1
 562.830078125 326 l 5,8,-1
 562.830078125 348 l 6,9,10
 562.830078125 420 562.830078125 420 516.5703125 446.5 c 132,-1,11
 470.309570312 473 470.309570312 473 391.924804688 473 c 4,12,13
 336.669921875 473 336.669921875 473 286.5546875 462 c 132,-1,14
 236.440429688 451 236.440429688 451 191.46484375 431 c 5,15,-1
 151.629882812 499 l 5,16,17
 200.459960938 518 200.459960938 518 260.212890625 532 c 132,-1,18
 319.96484375 546 319.96484375 546 398.349609375 546 c 4,19,20
 528.134765625 546 528.134765625 546 598.16796875 500.5 c 132,-1,21
 668.200195312 455 668.200195312 455 668.200195312 359 c 6,22,-1
 668.200195312 0 l 5,23,-1
 575.6796875 0 l 5,24,-1
 562.830078125 74 l 5,25,-1
 557.690429688 74 l 5,26,27
 529.419921875 46 529.419921875 46 495.3671875 27.5 c 132,-1,28
 461.315429688 9 461.315429688 9 420.1953125 -0.5 c 132,-1,29
 379.075195312 -10 379.075195312 -10 328.959960938 -10 c 4,0,1
348.235351562 63 m 4,30,31
 406.059570312 63 406.059570312 63 454.889648438 79.5 c 132,-1,32
 503.719726562 96 503.719726562 96 533.275390625 129.5 c 132,-1,33
 562.830078125 163 562.830078125 163 562.830078125 214 c 6,34,-1
 562.830078125 262 l 5,35,-1
 439.469726562 259 l 6,36,37
 357.23046875 257 357.23046875 257 307.115234375 243.5 c 132,-1,38
 257 230 257 230 234.512695312 206.5 c 132,-1,39
 212.025390625 183 212.025390625 183 212.025390625 150 c 4,40,41
 212.025390625 104 212.025390625 104 249.290039062 83.5 c 132,-1,42
 286.5546875 63 286.5546875 63 348.235351562 63 c 4,30,31
EndSplineSet
EndChar

StartChar: b
Encoding: 98 98 69
Width: 771
Flags: W
LayerCount: 2
Fore
SplineSet
711.247070312 473 m 5,0,-1
 620.012695312 473 l 5,1,-1
 620.012695312 2 l 5,2,-1
 515.927734375 2 l 5,3,-1
 515.927734375 154 l 5,4,-1
 535.202148438 128 l 5,5,6
 512.072265625 115 512.072265625 115 480.58984375 101.5 c 132,-1,7
 449.107421875 88 449.107421875 88 407.344726562 79.5 c 132,-1,8
 365.58203125 71 365.58203125 71 310.327148438 71 c 4,9,10
 238.3671875 71 238.3671875 71 181.184570312 92 c 132,-1,11
 124.002929688 113 124.002929688 113 91.8779296875 150.5 c 132,-1,12
 59.7529296875 188 59.7529296875 188 59.7529296875 239 c 4,13,14
 59.7529296875 296 59.7529296875 296 95.08984375 336 c 132,-1,15
 130.427734375 376 130.427734375 376 194.03515625 396.5 c 132,-1,16
 257.642578125 417 257.642578125 417 341.16796875 417 c 4,17,18
 359.157226562 417 359.157226562 417 384.857421875 415.5 c 132,-1,19
 410.557617188 414 410.557617188 414 435.615234375 412 c 132,-1,20
 460.672851562 410 460.672851562 410 474.807617188 407 c 5,21,-1
 467.09765625 338 l 5,22,23
 441.397460938 342 441.397460938 342 409.272460938 345 c 132,-1,24
 377.147460938 348 377.147460938 348 345.022460938 348 c 4,25,26
 260.212890625 348 260.212890625 348 212.025390625 320.5 c 132,-1,27
 163.837890625 293 163.837890625 293 163.837890625 240 c 4,28,29
 163.837890625 188 163.837890625 188 206.884765625 162.5 c 132,-1,30
 249.932617188 137 249.932617188 137 311.612304688 137 c 4,31,32
 364.297851562 137 364.297851562 137 406.059570312 150 c 132,-1,33
 447.822265625 163 447.822265625 163 479.3046875 183 c 132,-1,34
 510.787109375 203 510.787109375 203 532.6328125 224 c 5,35,-1
 515.927734375 173 l 5,36,-1
 515.927734375 473 l 5,37,-1
 145.84765625 473 l 5,38,-1
 145.84765625 536 l 5,39,-1
 711.247070312 536 l 5,40,-1
 711.247070312 473 l 5,0,-1
264.067382812 377 m 5,41,-1
 485.087890625 162 l 5,42,-1
 425.977539062 120 l 5,43,-1
 184.397460938 354 l 5,44,-1
 264.067382812 377 l 5,41,-1
EndSplineSet
EndChar

StartChar: c
Encoding: 99 99 70
Width: 771
Flags: W
LayerCount: 2
Fore
SplineSet
508.52734375 -10 m 0,0,1
 356.567382812 -10 356.567382812 -10 273.372070312 57 c 0,2,3
 189.567382812 124 189.567382812 124 189.84765625 245 c 0,4,5
 189.567382812 325 189.567382812 325 227.112304688 380.5 c 128,-1,6
 264.567382812 436 264.567382812 436 333.767578125 465 c 1,7,-1
 74.8623046875 465 l 1,8,-1
 74.8623046875 537 l 1,9,-1
 696.137695312 537 l 1,10,-1
 696.137695312 465 l 1,11,-1
 565.067382812 465 l 2,12,13
 444.567382812 465 444.567382812 465 375.530273438 411.5 c 128,-1,14
 306.567382812 358 306.567382812 358 306.782226562 252 c 0,15,16
 306.567382812 165 306.567382812 165 362.037109375 114.5 c 128,-1,17
 417.567382812 64 417.567382812 64 520.092773438 64 c 0,18,19
 567.567382812 64 567.567382812 64 611.327148438 73.5 c 0,20,21
 654.567382812 83 654.567382812 83 696.137695312 99 c 1,22,-1
 696.137695312 21 l 1,23,24
 658.567382812 5 658.567382812 5 613.897460938 -2.5 c 0,25,26
 568.567382812 -10 568.567382812 -10 508.52734375 -10 c 0,0,1
EndSplineSet
EndChar

StartChar: d
Encoding: 100 100 71
Width: 771
Flags: W
AnchorPoint: "Anchor-2" 405.5 0 basechar 0
AnchorPoint: "Anchor-1" 419.5 0 basechar 0
AnchorPoint: "Anchor-0" 490.5 622 basechar 0
LayerCount: 2
Fore
SplineSet
447.5 222 m 4,0,1
 418.5 222 418.5 222 389.5 215 c 132,-1,2
 360.5 208 360.5 208 337.5 197 c 5,3,4
 306.5 216 306.5 216 281 239 c 132,-1,5
 255.5 262 255.5 262 241 290 c 132,-1,6
 226.5 318 226.5 318 226.5 352 c 4,7,8
 226.5 380 226.5 380 236.5 400 c 132,-1,9
 246.5 420 246.5 420 263.5 433 c 4,10,11
 278.5 445 278.5 445 297 452 c 132,-1,12
 315.5 459 315.5 459 340 462 c 132,-1,13
 364.5 465 364.5 465 397.5 465 c 6,14,-1
 490.5 465 l 5,15,-1
 490.5 551 l 5,16,-1
 89.5 551 l 5,17,-1
 89.5 622 l 5,18,-1
 681.5 622 l 5,19,-1
 681.5 551 l 5,20,-1
 571.5 551 l 5,21,-1
 571.5 394 l 5,22,-1
 387.5 394 l 6,23,24
 356.5 394 356.5 394 343.5 391 c 132,-1,25
 330.5 388 330.5 388 321.5 381 c 4,26,27
 314.5 375 314.5 375 310.5 366.5 c 132,-1,28
 306.5 358 306.5 358 306.5 347 c 4,29,30
 306.5 323 306.5 323 320.5 306.5 c 132,-1,31
 334.5 290 334.5 290 350.5 277 c 5,32,33
 373.5 285 373.5 285 399.5 289.5 c 132,-1,34
 425.5 294 425.5 294 451.5 294 c 4,35,36
 525.5 294 525.5 294 574.5 256.5 c 132,-1,37
 623.5 219 623.5 219 623.5 154 c 4,38,39
 623.5 109 623.5 109 601.5 74.5 c 132,-1,40
 579.5 40 579.5 40 536 20 c 132,-1,41
 492.5 0 492.5 0 426.5 0 c 4,42,43
 361.5 0 361.5 0 305 20 c 132,-1,44
 248.5 40 248.5 40 201.5 76 c 132,-1,45
 154.5 112 154.5 112 114.5 158 c 5,46,-1
 175.5 207 l 5,47,48
 232.5 139 232.5 139 292 106.5 c 132,-1,49
 351.5 74 351.5 74 426.5 74 c 4,50,51
 485.5 74 485.5 74 514 94.5 c 132,-1,52
 542.5 115 542.5 115 542.5 152 c 4,53,54
 542.5 187 542.5 187 518 204.5 c 132,-1,55
 493.5 222 493.5 222 447.5 222 c 4,0,1
EndSplineSet
EndChar

StartChar: e
Encoding: 101 101 72
Width: 771
Flags: W
LayerCount: 2
Fore
SplineSet
395.780273438 546 m 4,0,1
 484.4453125 546 484.4453125 546 548.052734375 516 c 132,-1,2
 611.66015625 486 611.66015625 486 645.712890625 431.5 c 132,-1,3
 679.764648438 377 679.764648438 377 679.764648438 304 c 6,4,-1
 679.764648438 251 l 5,5,-1
 208.169921875 251 l 5,6,7
 210.740234375 160 210.740234375 160 267.922851562 112.5 c 132,-1,8
 325.10546875 65 325.10546875 65 427.905273438 65 c 4,9,10
 493.440429688 65 493.440429688 65 544.197265625 74.5 c 132,-1,11
 594.955078125 84 594.955078125 84 648.924804688 102 c 5,12,-1
 648.924804688 25 l 5,13,14
 596.240234375 7 596.240234375 7 544.83984375 -1.5 c 132,-1,15
 493.440429688 -10 493.440429688 -10 422.764648438 -10 c 4,16,17
 325.10546875 -10 325.10546875 -10 249.932617188 21 c 132,-1,18
 174.759765625 52 174.759765625 52 132.997070312 113.5 c 132,-1,19
 91.2353515625 175 91.2353515625 175 91.2353515625 264 c 4,20,21
 91.2353515625 352 91.2353515625 352 129.142578125 415 c 132,-1,22
 167.049804688 478 167.049804688 478 235.797851562 512 c 132,-1,23
 304.544921875 546 304.544921875 546 395.780273438 546 c 4,0,1
394.495117188 474 m 4,24,25
 313.540039062 474 313.540039062 474 266.637695312 433.5 c 132,-1,26
 219.735351562 393 219.735351562 393 210.740234375 321 c 5,27,-1
 561.544921875 321 l 5,28,29
 561.544921875 367 561.544921875 367 543.5546875 401 c 132,-1,30
 525.565429688 435 525.565429688 435 488.942382812 454.5 c 132,-1,31
 452.3203125 474 452.3203125 474 394.495117188 474 c 4,24,25
EndSplineSet
EndChar

StartChar: f
Encoding: 102 102 73
Width: 771
Flags: W
AnchorPoint: "Anchor-2" 418.5 0 basechar 0
AnchorPoint: "Anchor-1" 378.5 0 basechar 0
AnchorPoint: "Anchor-0" 378.5 536 basechar 0
LayerCount: 2
Fore
SplineSet
459.5 465 m 1,0,-1
 459.5 262 l 1,1,-1
 441.5 279 l 1,2,3
 469.5 312 469.5 312 502.5 330 c 128,-1,4
 535.5 348 535.5 348 577.5 348 c 0,5,6
 642.5 348 642.5 348 683.5 306.5 c 128,-1,7
 724.5 265 724.5 265 724.5 188 c 0,8,9
 724.5 142 724.5 142 709.5 90 c 128,-1,10
 694.5 38 694.5 38 659.5 -12 c 1,11,-1
 587.5 29 l 1,12,13
 612.5 61 612.5 61 628.5 103 c 128,-1,14
 644.5 145 644.5 145 644.5 186 c 0,15,16
 644.5 233 644.5 233 624.5 256 c 128,-1,17
 604.5 279 604.5 279 569.5 279 c 0,18,19
 549.5 279 549.5 279 527.5 267.5 c 128,-1,20
 505.5 256 505.5 256 483.5 233.5 c 128,-1,21
 461.5 211 461.5 211 439.5 179 c 1,22,-1
 459.5 242 l 1,23,-1
 459.5 0 l 1,24,-1
 378.5 0 l 1,25,-1
 378.5 178 l 1,26,-1
 394.5 155 l 1,27,28
 369.5 133 369.5 133 334 114 c 128,-1,29
 298.5 95 298.5 95 247.5 95 c 0,30,31
 207.5 95 207.5 95 175.5 109.5 c 128,-1,32
 143.5 124 143.5 124 124.5 146 c 0,33,34
 108.5 165 108.5 165 98 187 c 128,-1,35
 87.5 209 87.5 209 83 237 c 128,-1,36
 78.5 265 78.5 265 78.5 303 c 2,37,-1
 78.5 465 l 1,38,-1
 46.5 465 l 5,39,-1
 46.5 536 l 5,40,-1
 639.5 536 l 1,41,-1
 639.5 465 l 1,42,-1
 459.5 465 l 1,0,-1
159.5 465 m 1,43,-1
 159.5 309 l 2,44,45
 159.5 254 159.5 254 165.5 230 c 128,-1,46
 171.5 206 171.5 206 187.5 189 c 0,47,48
 198.5 177 198.5 177 213.5 171.5 c 128,-1,49
 228.5 166 228.5 166 247.5 166 c 0,50,51
 280.5 166 280.5 166 306.5 176.5 c 128,-1,52
 332.5 187 332.5 187 355 205.5 c 128,-1,53
 377.5 224 377.5 224 396.5 246 c 1,54,-1
 378.5 192 l 1,55,-1
 378.5 465 l 1,56,-1
 159.5 465 l 1,43,-1
EndSplineSet
EndChar

StartChar: g
Encoding: 103 103 74
Width: 771
Flags: W
LayerCount: 2
Fore
SplineSet
370.5 -21 m 4,0,1
 299.5 -21 299.5 -21 237.5 -13 c 132,-1,2
 175.5 -5 175.5 -5 122.5 7 c 5,3,-1
 122.5 66 l 5,4,5
 173.5 49 173.5 49 241 40.5 c 132,-1,6
 308.5 32 308.5 32 366.5 32 c 4,7,8
 483.5 32 483.5 32 530 63.5 c 132,-1,9
 576.5 95 576.5 95 576.5 149 c 6,10,-1
 576.5 163 l 6,11,12
 576.5 172 576.5 172 577 180 c 132,-1,13
 577.5 188 577.5 188 579.5 205 c 5,14,-1
 574.5 205 l 5,15,16
 538.5 175 538.5 175 490.5 163.5 c 132,-1,17
 442.5 152 442.5 152 374.5 152 c 4,18,19
 238.5 152 238.5 152 162.5 205 c 132,-1,20
 86.5 258 86.5 258 86.5 353 c 4,21,22
 86.5 449 86.5 449 161.5 504.5 c 132,-1,23
 236.5 560 236.5 560 367.5 560 c 4,24,25
 437.5 560 437.5 560 485 547 c 132,-1,26
 532.5 534 532.5 534 569.5 504 c 5,27,-1
 576.5 504 l 5,28,-1
 591.5 552 l 5,29,-1
 684.5 552 l 5,30,-1
 684.5 149 l 6,31,32
 684.5 93 684.5 93 651 55.5 c 132,-1,33
 617.5 18 617.5 18 548 -1.5 c 132,-1,34
 478.5 -21 478.5 -21 370.5 -21 c 4,0,1
396.5 205 m 4,35,36
 438.5 205 438.5 205 472.5 213 c 132,-1,37
 506.5 221 506.5 221 530.5 237.5 c 132,-1,38
 554.5 254 554.5 254 567 279 c 132,-1,39
 579.5 304 579.5 304 579.5 340 c 6,40,-1
 579.5 355 l 6,41,42
 579.5 409 579.5 409 557 442 c 132,-1,43
 534.5 475 534.5 475 492.5 490.5 c 132,-1,44
 450.5 506 450.5 506 392.5 506 c 4,45,46
 294.5 506 294.5 506 249.5 467 c 132,-1,47
 204.5 428 204.5 428 204.5 356 c 4,48,49
 204.5 283 204.5 283 251.5 244 c 132,-1,50
 298.5 205 298.5 205 396.5 205 c 4,35,36
EndSplineSet
EndChar

StartChar: h
Encoding: 104 104 75
Width: 771
Flags: W
LayerCount: 2
Fore
SplineSet
208.169921875 384 m 6,0,1
 208.169921875 365 208.169921875 365 206.2421875 345 c 132,-1,2
 204.315429688 325 204.315429688 325 201.745117188 309 c 5,3,-1
 209.455078125 309 l 5,4,5
 231.299804688 337 231.299804688 337 264.709960938 355 c 132,-1,6
 298.120117188 373 298.120117188 373 339.240234375 382.5 c 132,-1,7
 380.360351562 392 380.360351562 392 424.049804688 392 c 4,8,9
 507.575195312 392 507.575195312 392 563.47265625 371.5 c 132,-1,10
 619.370117188 351 619.370117188 351 647.639648438 308 c 132,-1,11
 675.91015625 265 675.91015625 265 675.91015625 196 c 6,12,-1
 675.91015625 0 l 5,13,-1
 564.115234375 0 l 5,14,-1
 564.115234375 190 l 6,15,16
 564.115234375 255 564.115234375 255 526.849609375 287 c 132,-1,17
 489.584960938 319 489.584960938 319 409.915039062 319 c 4,18,19
 332.815429688 319 332.815429688 319 289.125 296.5 c 132,-1,20
 245.434570312 274 245.434570312 274 226.802734375 230.5 c 132,-1,21
 208.169921875 187 208.169921875 187 208.169921875 124 c 6,22,-1
 208.169921875 0 l 5,23,-1
 95.08984375 0 l 5,24,-1
 95.08984375 580 l 5,25,-1
 208.169921875 580 l 5,26,-1
 208.169921875 384 l 6,0,1
EndSplineSet
EndChar

StartChar: i
Encoding: 105 105 76
Width: 771
Flags: W
AnchorPoint: "Anchor-4" 398.35 283 basechar 0
AnchorPoint: "Anchor-3" 627.08 760 basechar 0
AnchorPoint: "Anchor-2" 381.645 760 basechar 0
AnchorPoint: "Anchor-1" 399.635 0 basechar 0
LayerCount: 2
Fore
SplineSet
89.9501953125 0 m 5,0,-1
 89.9501953125 60 l 5,1,-1
 335.384765625 75 l 5,2,-1
 335.384765625 461 l 5,3,-1
 110.509765625 474 l 5,4,-1
 110.509765625 536 l 5,5,-1
 451.03515625 536 l 5,6,-1
 451.03515625 75 l 5,7,-1
 681.049804688 60 l 5,8,-1
 681.049804688 0 l 5,9,-1
 89.9501953125 0 l 5,0,-1
381.64453125 633 m 260,10,11
 348.235351562 633 348.235351562 633 324.462890625 649 c 132,-1,12
 300.690429688 665 300.690429688 665 300.690429688 696 c 4,13,14
 300.690429688 729 300.690429688 729 324.462890625 744.5 c 132,-1,15
 348.235351562 760 348.235351562 760 381.64453125 760 c 260,16,17
 415.0546875 760 415.0546875 760 438.827148438 744.5 c 132,-1,18
 462.599609375 729 462.599609375 729 462.599609375 696 c 4,19,20
 462.599609375 665 462.599609375 665 438.827148438 649 c 132,-1,21
 415.0546875 633 415.0546875 633 381.64453125 633 c 260,10,11
EndSplineSet
Substitution2: "Single Substitution lookup 127 subtable" dotlessi
Substitution2: "Single Substitution lookup 126 subtable" dotlessi
EndChar

StartChar: j
Encoding: 106 106 77
Width: 771
Flags: W
LayerCount: 2
Fore
SplineSet
166.5 243 m 1,0,-1
 166.5 313 l 1,1,-1
 624.5 313 l 1,2,-1
 624.5 243 l 1,3,-1
 166.5 243 l 1,0,-1
115.5 0 m 1,4,-1
 115.5 61 l 1,5,-1
 520.5 467 l 1,6,-1
 136.5 467 l 1,7,-1
 136.5 536 l 1,8,-1
 645.5 536 l 1,9,-1
 645.5 465 l 1,10,-1
 253.5 76 l 1,11,-1
 655.5 76 l 1,12,-1
 655.5 0 l 1,13,-1
 115.5 0 l 1,4,-1
EndSplineSet
Substitution2: "Single Substitution lookup 127 subtable" uni0237
Substitution2: "Single Substitution lookup 126 subtable" uni0237
EndChar

StartChar: k
Encoding: 107 107 78
Width: 771
Flags: W
AnchorPoint: "Anchor-2" 417.5 0 basechar 0
AnchorPoint: "Anchor-1" 377.5 0 basechar 0
AnchorPoint: "Anchor-0" 377.5 622 basechar 0
LayerCount: 2
Fore
SplineSet
710.5 551 m 1,0,-1
 458.5 551 l 1,1,-1
 458.5 336 l 1,2,-1
 454.5 345 l 1,3,4
 478.5 371 478.5 371 509.5 385 c 128,-1,5
 540.5 399 540.5 399 575.5 399 c 0,6,7
 640.5 399 640.5 399 681.5 357.5 c 128,-1,8
 722.5 316 722.5 316 722.5 239 c 0,9,10
 722.5 193 722.5 193 707.5 141 c 128,-1,11
 692.5 89 692.5 89 657.5 39 c 1,12,-1
 585.5 80 l 1,13,14
 610.5 112 610.5 112 626.5 154 c 128,-1,15
 642.5 196 642.5 196 642.5 237 c 0,16,17
 642.5 284 642.5 284 623 307 c 128,-1,18
 603.5 330 603.5 330 568.5 330 c 0,19,20
 541.5 330 541.5 330 512.5 311 c 128,-1,21
 483.5 292 483.5 292 453.5 252 c 1,22,-1
 458.5 277 l 1,23,-1
 458.5 0 l 1,24,-1
 377.5 0 l 1,25,-1
 377.5 210 l 1,26,-1
 391.5 186 l 1,27,28
 375.5 172 375.5 172 353 156 c 128,-1,29
 330.5 140 330.5 140 301 129 c 128,-1,30
 271.5 118 271.5 118 232.5 118 c 0,31,32
 185.5 118 185.5 118 144 137 c 128,-1,33
 102.5 156 102.5 156 77.5 194.5 c 128,-1,34
 52.5 233 52.5 233 52.5 290 c 0,35,36
 52.5 344 52.5 344 77.5 383 c 128,-1,37
 102.5 422 102.5 422 147.5 443 c 128,-1,38
 192.5 464 192.5 464 250.5 464 c 0,39,40
 273.5 464 273.5 464 302 460.5 c 128,-1,41
 330.5 457 330.5 457 345.5 454 c 1,42,-1
 339.5 381 l 1,43,44
 323.5 385 323.5 385 299 388 c 128,-1,45
 274.5 391 274.5 391 255.5 391 c 0,46,47
 197.5 391 197.5 391 165.5 365 c 128,-1,48
 133.5 339 133.5 339 133.5 292 c 0,49,50
 133.5 239 133.5 239 164 213.5 c 128,-1,51
 194.5 188 194.5 188 234.5 188 c 0,52,53
 284.5 188 284.5 188 323 215 c 128,-1,54
 361.5 242 361.5 242 394.5 278 c 1,55,-1
 377.5 224 l 1,56,-1
 377.5 551 l 1,57,-1
 48.5 551 l 1,58,-1
 48.5 622 l 1,59,-1
 710.5 622 l 1,60,-1
 710.5 551 l 1,0,-1
EndSplineSet
EndChar

StartChar: l
Encoding: 108 108 79
Width: 771
Flags: W
LayerCount: 2
Fore
SplineSet
39 551 m 5,0,-1
 39 622 l 5,1,-1
 732 622 l 5,2,-1
 732 551 l 5,3,-1
 628 551 l 5,4,-1
 628 0 l 5,5,-1
 547 0 l 5,6,-1
 547 377 l 5,7,-1
 591 341 l 6,8,9
 574 351 574 351 559.5 353.5 c 132,-1,10
 545 356 545 356 533 356 c 4,11,12
 509 356 509 356 484 344 c 132,-1,13
 459 332 459 332 436 300.5 c 132,-1,14
 413 269 413 269 395 208 c 5,15,-1
 318 232 l 5,16,17
 343 327 343 327 400.5 376.5 c 132,-1,18
 458 426 458 426 538 426 c 4,19,20
 555 426 555 426 572 423 c 132,-1,21
 589 420 589 420 601 416 c 5,22,-1
 604 394 l 5,23,-1
 547 413 l 5,24,-1
 547 551 l 5,25,-1
 39 551 l 5,0,-1
376 292 m 5,26,27
 345 318 345 318 315.5 335.5 c 132,-1,28
 286 353 286 353 248 353 c 4,29,30
 208 353 208 353 186.5 330 c 132,-1,31
 165 307 165 307 165 271 c 4,32,33
 165 233 165 233 186.5 198.5 c 132,-1,34
 208 164 208 164 249 126.5 c 132,-1,35
 290 89 290 89 348 40 c 5,36,-1
 294 -12 l 5,37,38
 236 38 236 38 188 83.5 c 132,-1,39
 140 129 140 129 112 175.5 c 132,-1,40
 84 222 84 222 84 275 c 4,41,42
 84 315 84 315 98.5 343.5 c 132,-1,43
 113 372 113 372 136.5 390.5 c 132,-1,44
 160 409 160 409 188 417.5 c 132,-1,45
 216 426 216 426 243 426 c 4,46,47
 276 426 276 426 304 418 c 132,-1,48
 332 410 332 410 358 394.5 c 132,-1,49
 384 379 384 379 408 357 c 5,50,-1
 376 292 l 5,26,27
EndSplineSet
EndChar

StartChar: m
Encoding: 109 109 80
Width: 771
Flags: W
LayerCount: 2
Fore
SplineSet
588.5 551 m 5,0,-1
 588.5 0 l 5,1,-1
 507.5 0 l 5,2,-1
 507.5 250 l 5,3,-1
 286.5 250 l 5,4,-1
 286.5 213 l 6,5,6
 286.5 180 286.5 180 272 165.5 c 132,-1,7
 257.5 151 257.5 151 238.5 151 c 260,8,9
 219.5 151 219.5 151 198.5 163.5 c 132,-1,10
 177.5 176 177.5 176 159.5 195.5 c 132,-1,11
 141.5 215 141.5 215 130 237 c 132,-1,12
 118.5 259 118.5 259 118.5 278 c 4,13,14
 118.5 296 118.5 296 132 308.5 c 132,-1,15
 145.5 321 145.5 321 179.5 321 c 6,16,-1
 205.5 321 l 5,17,-1
 205.5 551 l 5,18,-1
 79.5 551 l 5,19,-1
 79.5 622 l 5,20,-1
 691.5 622 l 5,21,-1
 691.5 551 l 5,22,-1
 588.5 551 l 5,0,-1
507.5 551 m 5,23,-1
 286.5 551 l 5,24,-1
 286.5 321 l 5,25,-1
 507.5 321 l 5,26,-1
 507.5 551 l 5,23,-1
EndSplineSet
EndChar

StartChar: n
Encoding: 110 110 81
Width: 771
Flags: W
LayerCount: 2
Fore
SplineSet
101 622 m 5,0,-1
 670 622 l 5,1,-1
 670 551 l 5,2,-1
 567 551 l 5,3,-1
 567 0 l 5,4,-1
 486 0 l 5,5,-1
 486 298 l 5,6,-1
 305 298 l 5,7,-1
 305 244 l 6,8,9
 305 216 305 216 291 202 c 132,-1,10
 277 188 277 188 254 188 c 4,11,12
 236 188 236 188 215.5 200 c 132,-1,13
 195 212 195 212 177.5 232 c 132,-1,14
 160 252 160 252 149 274.5 c 132,-1,15
 138 297 138 297 138 318 c 4,16,17
 138 341 138 341 151.5 355 c 132,-1,18
 165 369 165 369 199 369 c 6,19,-1
 486 369 l 5,20,-1
 486 551 l 5,21,-1
 101 551 l 5,22,-1
 101 622 l 5,0,-1
EndSplineSet
EndChar

StartChar: o
Encoding: 111 111 82
Width: 771
Flags: W
LayerCount: 2
Fore
SplineSet
704.1796875 269 m 4,0,1
 704.1796875 202 704.1796875 202 681.692382812 150.5 c 132,-1,2
 659.205078125 99 659.205078125 99 617.442382812 63 c 132,-1,3
 575.6796875 27 575.6796875 27 515.927734375 8.5 c 132,-1,4
 456.174804688 -10 456.174804688 -10 382.9296875 -10 c 4,5,6
 314.825195312 -10 314.825195312 -10 257 8.5 c 132,-1,7
 199.174804688 27 199.174804688 27 156.76953125 63 c 132,-1,8
 114.365234375 99 114.365234375 99 90.5927734375 150.5 c 132,-1,9
 66.8203125 202 66.8203125 202 66.8203125 269 c 4,10,11
 66.8203125 358 66.8203125 358 105.370117188 419.5 c 132,-1,12
 143.919921875 481 143.919921875 481 215.879882812 513.5 c 132,-1,13
 287.83984375 546 287.83984375 546 386.78515625 546 c 4,14,15
 480.58984375 546 480.58984375 546 551.907226562 513.5 c 132,-1,16
 623.224609375 481 623.224609375 481 663.702148438 419.5 c 132,-1,17
 704.1796875 358 704.1796875 358 704.1796875 269 c 4,0,1
183.754882812 269 m 4,18,19
 183.754882812 206 183.754882812 206 204.95703125 159.5 c 132,-1,20
 226.16015625 113 226.16015625 113 271.134765625 88 c 132,-1,21
 316.110351562 63 316.110351562 63 385.5 63 c 260,22,23
 454.889648438 63 454.889648438 63 499.865234375 88 c 132,-1,24
 544.83984375 113 544.83984375 113 566.04296875 159.5 c 132,-1,25
 587.245117188 206 587.245117188 206 587.245117188 269 c 4,26,27
 587.245117188 333 587.245117188 333 565.400390625 378 c 132,-1,28
 543.5546875 423 543.5546875 423 499.22265625 447.5 c 132,-1,29
 454.889648438 472 454.889648438 472 384.21484375 472 c 4,30,31
 278.844726562 472 278.844726562 472 231.299804688 418 c 132,-1,32
 183.754882812 364 183.754882812 364 183.754882812 269 c 4,18,19
EndSplineSet
EndChar

StartChar: p
Encoding: 112 112 83
Width: 771
Flags: W
LayerCount: 2
Fore
SplineSet
573 551 m 5,0,-1
 573 0 l 5,1,-1
 492 0 l 5,2,-1
 492 227 l 5,3,-1
 511 203 l 5,4,5
 490 189 490 189 466 175.5 c 132,-1,6
 442 162 442 162 413.5 154 c 132,-1,7
 385 146 385 146 348 146 c 4,8,9
 308 146 308 146 275.5 159.5 c 132,-1,10
 243 173 243 173 222 194 c 4,11,12
 205 212 205 212 194 233.5 c 132,-1,13
 183 255 183 255 178 285 c 132,-1,14
 173 315 173 315 173 358 c 6,15,-1
 173 551 l 5,16,-1
 94 551 l 5,17,-1
 94 622 l 5,18,-1
 677 622 l 5,19,-1
 677 551 l 5,20,-1
 573 551 l 5,0,-1
492 551 m 5,21,-1
 254 551 l 5,22,-1
 254 369 l 6,23,24
 254 328 254 328 257 304 c 132,-1,25
 260 280 260 280 266.5 265.5 c 132,-1,26
 273 251 273 251 284 240 c 4,27,28
 296 228 296 228 314 222.5 c 132,-1,29
 332 217 332 217 357 217 c 4,30,31
 388 217 388 217 416.5 229 c 132,-1,32
 445 241 445 241 468.5 259.5 c 132,-1,33
 492 278 492 278 508 298 c 5,34,-1
 492 246 l 5,35,-1
 492 551 l 5,21,-1
EndSplineSet
EndChar

StartChar: q
Encoding: 113 113 84
Width: 771
Flags: W
AnchorPoint: "Anchor-1" 347.5 765 basechar 0
AnchorPoint: "Anchor-0" 347.5 0 basechar 0
LayerCount: 2
Fore
SplineSet
286.5 765 m 4,0,1
 305.5 765 305.5 765 323.5 761 c 132,-1,2
 341.5 757 341.5 757 351.5 752 c 5,3,-1
 351.5 679 l 5,4,5
 344.5 682 344.5 682 330.5 685.5 c 132,-1,6
 316.5 689 316.5 689 299.5 689 c 4,7,8
 277.5 689 277.5 689 265 676 c 132,-1,9
 252.5 663 252.5 663 252.5 631 c 6,10,-1
 252.5 363 l 6,11,12
 252.5 347 252.5 347 251.5 321 c 132,-1,13
 250.5 295 250.5 295 248.5 276 c 5,14,-1
 252.5 276 l 5,15,16
 258.5 285 258.5 285 270.5 299.5 c 132,-1,17
 282.5 314 282.5 314 295 329.5 c 132,-1,18
 307.5 345 307.5 345 316.5 355 c 6,19,-1
 487.5 536 l 5,20,-1
 590.5 536 l 5,21,-1
 373.5 307 l 5,22,-1
 605.5 0 l 5,23,-1
 499.5 0 l 5,24,-1
 313.5 250 l 5,25,-1
 252.5 197 l 5,26,-1
 252.5 0 l 5,27,-1
 165.5 0 l 5,28,-1
 165.5 625 l 6,29,30
 165.5 765 165.5 765 286.5 765 c 4,0,1
EndSplineSet
EndChar

StartChar: r
Encoding: 114 114 85
Width: 771
Flags: W
AnchorPoint: "Anchor-2" 347.5 0 basechar 0
AnchorPoint: "Anchor-1" 358.5 0 basechar 0
LayerCount: 2
Fore
SplineSet
426.5 551 m 1,0,-1
 454.5 566 l 1,1,2
 465.5 550 465.5 550 472 523 c 128,-1,3
 478.5 496 478.5 496 478.5 458 c 0,4,5
 478.5 402 478.5 402 455.5 363.5 c 128,-1,6
 432.5 325 432.5 325 392.5 298 c 128,-1,7
 352.5 271 352.5 271 301.5 251 c 1,8,-1
 305.5 259 l 1,9,10
 335.5 224 335.5 224 373 186.5 c 128,-1,11
 410.5 149 410.5 149 452.5 112.5 c 128,-1,12
 494.5 76 494.5 76 537.5 42 c 1,13,-1
 483.5 -12 l 1,14,15
 424.5 37 424.5 37 372.5 87 c 128,-1,16
 320.5 137 320.5 137 280.5 181 c 128,-1,17
 240.5 225 240.5 225 217.5 256 c 0,18,19
 195.5 287 195.5 287 189 305 c 128,-1,20
 182.5 323 182.5 323 182.5 340 c 0,21,22
 182.5 359 182.5 359 197.5 376 c 128,-1,23
 212.5 393 212.5 393 246.5 393 c 0,24,25
 284.5 393 284.5 393 308.5 368 c 128,-1,26
 332.5 343 332.5 343 351.5 300 c 1,27,-1
 289.5 335 l 1,28,29
 346.5 354 346.5 354 372.5 387.5 c 128,-1,30
 398.5 421 398.5 421 398.5 468 c 0,31,32
 398.5 497 398.5 497 391 525.5 c 128,-1,33
 383.5 554 383.5 554 372.5 565 c 1,34,-1
 417.5 551 l 1,35,-1
 109.5 551 l 5,36,-1
 109.5 622 l 5,37,-1
 661.5 622 l 1,38,-1
 661.5 551 l 1,39,-1
 426.5 551 l 1,0,-1
EndSplineSet
EndChar

StartChar: s
Encoding: 115 115 86
Width: 771
Flags: W
LayerCount: 2
Fore
SplineSet
285 551 m 5,0,-1
 313 566 l 5,1,2
 324 550 324 550 331 523 c 132,-1,3
 338 496 338 496 338 458 c 4,4,5
 338 414 338 414 327.5 381.5 c 132,-1,6
 317 349 317 349 298 328 c 5,7,-1
 297 319 l 5,8,9
 279 296 279 296 254.5 279 c 132,-1,10
 230 262 230 262 199 250 c 5,11,-1
 203 259 l 5,12,13
 244 206 244 206 300.5 149 c 132,-1,14
 357 92 357 92 420 42 c 5,15,-1
 366 -12 l 5,16,17
 310 37 310 37 260.5 87 c 132,-1,18
 211 137 211 137 173 181 c 132,-1,19
 135 225 135 225 113 256 c 260,20,21
 91 287 91 287 85.5 305 c 132,-1,22
 80 323 80 323 80 340 c 4,23,24
 80 359 80 359 95 376 c 132,-1,25
 110 393 110 393 144 393 c 4,26,27
 169 393 169 393 187.5 381.5 c 132,-1,28
 206 370 206 370 221 349.5 c 132,-1,29
 236 329 236 329 249 300 c 5,30,-1
 188 331 l 5,31,32
 216 339 216 339 230.5 359 c 132,-1,33
 245 379 245 379 251 405.5 c 132,-1,34
 257 432 257 432 257 458 c 4,35,36
 257 496 257 496 250 523.5 c 132,-1,37
 243 551 243 551 234 564 c 5,38,-1
 277 551 l 5,39,-1
 40 551 l 5,40,-1
 40 622 l 5,41,-1
 457 622 l 5,42,-1
 457 551 l 5,43,-1
 285 551 l 5,0,-1
627 551 m 5,44,-1
 627 0 l 5,45,-1
 546 0 l 5,46,-1
 546 551 l 5,47,-1
 436 551 l 5,48,-1
 436 622 l 5,49,-1
 731 622 l 5,50,-1
 731 551 l 5,51,-1
 627 551 l 5,44,-1
409 322 m 4,52,53
 443 322 443 322 471 325 c 132,-1,54
 499 328 499 328 527 334.5 c 132,-1,55
 555 341 555 341 587 353 c 5,56,-1
 587 280 l 5,57,58
 544 263 544 263 508.5 257 c 132,-1,59
 473 251 473 251 420 251 c 4,60,61
 387 251 387 251 350.5 255.5 c 132,-1,62
 314 260 314 260 282 268.5 c 132,-1,63
 250 277 250 277 230 287 c 5,64,-1
 250 347 l 5,65,66
 270 340 270 340 296 334 c 132,-1,67
 322 328 322 328 351 325 c 132,-1,68
 380 322 380 322 409 322 c 4,52,53
EndSplineSet
EndChar

StartChar: t
Encoding: 116 116 87
Width: 771
Flags: W
AnchorPoint: "Anchor-2" 384 0 basechar 0
AnchorPoint: "Anchor-1" 397 0 basechar 0
AnchorPoint: "Anchor-0" 397 622 basechar 0
LayerCount: 2
Fore
SplineSet
664 551 m 5,0,-1
 478 551 l 1,1,-1
 478 349 l 1,2,-1
 423 349 l 2,3,4
 375 349 375 349 343 341 c 128,-1,5
 311 333 311 333 288 318 c 0,6,7
 262 300 262 300 247.5 274 c 128,-1,8
 233 248 233 248 233 215 c 0,9,10
 233 167 233 167 255 135.5 c 128,-1,11
 277 104 277 104 312.5 89 c 128,-1,12
 348 74 348 74 390 74 c 0,13,14
 444 74 444 74 482 86.5 c 128,-1,15
 520 99 520 99 562 121 c 1,16,-1
 589 47 l 1,17,18
 545 27 545 27 495.5 13.5 c 128,-1,19
 446 0 446 0 393 0 c 0,20,21
 324 0 324 0 269.5 26 c 128,-1,22
 215 52 215 52 184 101 c 128,-1,23
 153 150 153 150 153 220 c 0,24,25
 153 285 153 285 187 329.5 c 128,-1,26
 221 374 221 374 276.5 397 c 128,-1,27
 332 420 332 420 395 420 c 2,28,-1
 400 420 l 1,29,-1
 397 416 l 1,30,-1
 397 551 l 1,31,-1
 107 551 l 1,32,-1
 107 622 l 1,33,-1
 664 622 l 5,34,-1
 664 551 l 5,0,-1
EndSplineSet
EndChar

StartChar: u
Encoding: 117 117 88
Width: 771
Flags: W
LayerCount: 2
Fore
SplineSet
677.1953125 536 m 5,0,-1
 677.1953125 0 l 5,1,-1
 584.674804688 0 l 5,2,-1
 567.969726562 71 l 5,3,-1
 562.830078125 71 l 5,4,5
 540.985351562 43 540.985351562 43 506.290039062 25 c 132,-1,6
 471.594726562 7 471.594726562 7 430.474609375 -1.5 c 132,-1,7
 389.35546875 -10 389.35546875 -10 344.379882812 -10 c 4,8,9
 262.139648438 -10 262.139648438 -10 206.2421875 10.5 c 132,-1,10
 150.344726562 31 150.344726562 31 122.075195312 74 c 132,-1,11
 93.8046875 117 93.8046875 117 93.8046875 185 c 6,12,-1
 93.8046875 536 l 5,13,-1
 208.169921875 536 l 5,14,-1
 208.169921875 191 l 6,15,16
 208.169921875 127 208.169921875 127 245.434570312 95 c 132,-1,17
 282.700195312 63 282.700195312 63 361.084960938 63 c 4,18,19
 438.184570312 63 438.184570312 63 482.517578125 85.5 c 132,-1,20
 526.849609375 108 526.849609375 108 545.482421875 151.5 c 132,-1,21
 564.115234375 195 564.115234375 195 564.115234375 257 c 6,22,-1
 564.115234375 536 l 5,23,-1
 677.1953125 536 l 5,0,-1
EndSplineSet
EndChar

StartChar: v
Encoding: 118 118 89
Width: 771
Flags: W
LayerCount: 2
Fore
SplineSet
687 551 m 5,0,-1
 551 551 l 1,1,-1
 551 0 l 1,2,-1
 471 0 l 1,3,-1
 471 201 l 1,4,-1
 486 176 l 1,5,6
 459 155 459 155 419 136.5 c 128,-1,7
 379 118 379 118 317 118 c 0,8,9
 263 118 263 118 221 139 c 128,-1,10
 179 160 179 160 154.5 197.5 c 128,-1,11
 130 235 130 235 130 286 c 0,12,13
 130 372 130 372 187.5 418 c 128,-1,14
 245 464 245 464 339 464 c 0,15,16
 352 464 352 464 371.5 462.5 c 128,-1,17
 391 461 391 461 409.5 459 c 128,-1,18
 428 457 428 457 438 454 c 1,19,-1
 433 381 l 1,20,21
 414 385 414 385 390 388 c 128,-1,22
 366 391 366 391 343 391 c 0,23,24
 281 391 281 391 246 364 c 128,-1,25
 211 337 211 337 211 287 c 0,26,27
 211 236 211 236 242.5 212 c 128,-1,28
 274 188 274 188 319 188 c 0,29,30
 359 188 359 188 389.5 201.5 c 128,-1,31
 420 215 420 215 443.5 235 c 128,-1,32
 467 255 467 255 484 274 c 1,33,-1
 471 223 l 1,34,-1
 471 551 l 1,35,-1
 84 551 l 1,36,-1
 84 622 l 1,37,-1
 687 622 l 5,38,-1
 687 551 l 5,0,-1
EndSplineSet
EndChar

StartChar: w
Encoding: 119 119 90
Width: 771
Flags: W
LayerCount: 2
Fore
SplineSet
290.41015625 0 m 1,0,-1
 10.2802734375 536 l 1,1,-1
 128.5 536 l 1,2,-1
 307.115234375 181 l 2,3,4
 328.959960938 140 328.959960938 140 342.452148438 108.5 c 128,-1,5
 355.9453125 77 355.9453125 77 361.084960938 62 c 1,6,-1
 366.224609375 62 l 1,7,8
 373.934570312 82 373.934570312 82 389.997070312 118.5 c 128,-1,9
 406.059570312 155 406.059570312 155 421.48046875 189 c 2,10,-1
 521.709960938 407 l 2,11,12
 546.125 459 546.125 459 567.969726562 488 c 128,-1,13
 589.815429688 517 589.815429688 517 622.58203125 529 c 128,-1,14
 655.349609375 541 655.349609375 541 708.03515625 541 c 0,15,16
 723.455078125 541 723.455078125 541 736.3046875 539 c 128,-1,17
 749.155273438 537 749.155273438 537 760.719726562 535 c 1,18,-1
 760.719726562 467 l 1,19,20
 753.009765625 469 753.009765625 469 740.802734375 470.5 c 128,-1,21
 728.594726562 472 728.594726562 472 717.030273438 472 c 0,22,23
 678.48046875 472 678.48046875 472 660.490234375 452 c 128,-1,24
 642.5 432 642.5 432 621.940429688 390 c 2,25,-1
 434.330078125 0 l 1,26,-1
 290.41015625 0 l 1,0,-1
EndSplineSet
EndChar

StartChar: x
Encoding: 120 120 91
Width: 771
Flags: W
LayerCount: 2
Fore
SplineSet
174.1171875 69 m 5,0,-1
 109.8671875 118 l 5,1,-1
 320.607421875 284 l 5,2,-1
 108.58203125 449 l 5,3,-1
 172.83203125 499 l 5,4,-1
 384.857421875 333 l 5,5,-1
 599.452148438 499 l 5,6,-1
 662.41796875 450 l 5,7,-1
 449.107421875 284 l 5,8,-1
 661.1328125 118 l 5,9,-1
 598.16796875 69 l 5,10,-1
 383.572265625 233 l 5,11,-1
 174.1171875 69 l 5,0,-1
EndSplineSet
EndChar

StartChar: y
Encoding: 121 121 92
Width: 771
Flags: W
LayerCount: 2
Fore
SplineSet
683 622 m 5,0,-1
 683 551 l 5,1,-1
 579 551 l 5,2,-1
 579 0 l 5,3,-1
 498 0 l 5,4,-1
 498 216 l 5,5,-1
 514 191 l 5,6,7
 496 177 496 177 470.5 163 c 132,-1,8
 445 149 445 149 412.5 140.5 c 132,-1,9
 380 132 380 132 341 132 c 4,10,11
 281 132 281 132 236 159.5 c 132,-1,12
 191 187 191 187 163.5 237 c 132,-1,13
 136 287 136 287 126 353 c 5,14,15
 188 366 188 366 218 389.5 c 132,-1,16
 248 413 248 413 248 457 c 4,17,18
 248 492 248 492 231.5 520 c 132,-1,19
 215 548 215 548 198 566 c 5,20,-1
 247 551 l 5,21,-1
 88 551 l 5,22,-1
 88 622 l 5,23,-1
 683 622 l 5,0,-1
263 551 m 5,24,-1
 286 572 l 5,25,26
 306 544 306 544 317 510.5 c 132,-1,27
 328 477 328 477 328 445 c 4,28,29
 328 393 328 393 300.5 356 c 132,-1,30
 273 319 273 319 217 301 c 5,31,32
 237 252 237 252 267.5 227.5 c 132,-1,33
 298 203 298 203 347 203 c 4,34,35
 404 203 404 203 445 230.5 c 132,-1,36
 486 258 486 258 513 292 c 5,37,-1
 498 239 l 5,38,-1
 498 551 l 5,39,-1
 263 551 l 5,24,-1
EndSplineSet
EndChar

StartChar: z
Encoding: 122 122 93
Width: 771
Flags: W
LayerCount: 2
Fore
SplineSet
656.5 551 m 1,0,-1
 656.5 0 l 1,1,-1
 575.5 0 l 1,2,-1
 575.5 370 l 1,3,-1
 438.5 370 l 2,4,5
 412.5 370 412.5 370 397 371 c 128,-1,6
 381.5 372 381.5 372 372.5 375 c 1,7,-1
 365.5 385 l 1,8,9
 407.5 356 407.5 356 434.5 312 c 128,-1,10
 461.5 268 461.5 268 461.5 218 c 0,11,12
 461.5 172 461.5 172 441 141 c 128,-1,13
 420.5 110 420.5 110 387 95 c 128,-1,14
 353.5 80 353.5 80 313.5 80 c 256,15,16
 273.5 80 273.5 80 237 97 c 128,-1,17
 200.5 114 200.5 114 166 151.5 c 128,-1,18
 131.5 189 131.5 189 99 250.5 c 128,-1,19
 66.5 312 66.5 312 34.5 401 c 1,20,-1
 105.5 426 l 1,21,22
 136.5 337 136.5 337 168.5 276 c 128,-1,23
 200.5 215 200.5 215 235.5 184 c 128,-1,24
 270.5 153 270.5 153 309.5 153 c 0,25,26
 341.5 153 341.5 153 362 170 c 128,-1,27
 382.5 187 382.5 187 382.5 227 c 0,28,29
 382.5 271 382.5 271 352 310 c 128,-1,30
 321.5 349 321.5 349 276.5 377 c 1,31,-1
 305.5 441 l 1,32,-1
 575.5 441 l 1,33,-1
 575.5 551 l 1,34,-1
 58.5 551 l 1,35,-1
 58.5 622 l 1,36,-1
 736.5 622 l 5,37,-1
 736.5 551 l 5,38,-1
 656.5 551 l 1,0,-1
EndSplineSet
EndChar

StartChar: at
Encoding: 64 64 94
Width: 771
Flags: W
LayerCount: 2
Fore
SplineSet
416.33984375 -89 m 0,0,1
 287.83984375 -89 287.83984375 -89 199.174804688 -42 c 128,-1,2
 110.509765625 5 110.509765625 5 64.892578125 91.5 c 128,-1,3
 19.275390625 178 19.275390625 178 19.275390625 294 c 0,4,5
 19.275390625 386 19.275390625 386 44.33203125 463 c 128,-1,6
 69.3896484375 540 69.3896484375 540 118.862304688 596 c 128,-1,7
 168.334960938 652 168.334960938 652 241.580078125 683 c 128,-1,8
 314.825195312 714 314.825195312 714 409.915039062 714 c 0,9,10
 514 714 514 714 590.45703125 671 c 128,-1,11
 666.915039062 628 666.915039062 628 709.3203125 548 c 128,-1,12
 751.724609375 468 751.724609375 468 751.724609375 357 c 0,13,14
 751.724609375 311 751.724609375 311 743.372070312 267 c 128,-1,15
 735.01953125 223 735.01953125 223 717.672851562 187 c 128,-1,16
 700.325195312 151 700.325195312 151 671.412109375 129.5 c 128,-1,17
 642.5 108 642.5 108 600.094726562 108 c 0,18,19
 556.405273438 108 556.405273438 108 531.990234375 135 c 128,-1,20
 507.575195312 162 507.575195312 162 501.150390625 196 c 1,21,-1
 498.580078125 196 l 1,22,23
 480.58984375 159 480.58984375 159 444.610351562 133.5 c 128,-1,24
 408.629882812 108 408.629882812 108 354.66015625 108 c 0,25,26
 276.275390625 108 276.275390625 108 233.870117188 160 c 128,-1,27
 191.46484375 212 191.46484375 212 191.46484375 296 c 0,28,29
 191.46484375 362 191.46484375 362 218.450195312 412.5 c 128,-1,30
 245.434570312 463 245.434570312 463 294.907226562 491.5 c 128,-1,31
 344.379882812 520 344.379882812 520 412.485351562 520 c 0,32,33
 458.745117188 520 458.745117188 520 503.719726562 512.5 c 128,-1,34
 548.6953125 505 548.6953125 505 573.110351562 497 c 1,35,-1
 558.974609375 294 l 2,36,37
 557.690429688 286 557.690429688 286 557.690429688 275.5 c 128,-1,38
 557.690429688 265 557.690429688 265 557.690429688 257 c 0,39,40
 557.690429688 205 557.690429688 205 571.825195312 188 c 128,-1,41
 585.959960938 171 585.959960938 171 602.665039062 171 c 0,42,43
 625.794921875 171 625.794921875 171 639.9296875 196.5 c 128,-1,44
 654.065429688 222 654.065429688 222 659.84765625 264.5 c 128,-1,45
 665.629882812 307 665.629882812 307 665.629882812 358 c 0,46,47
 665.629882812 497 665.629882812 497 594.3125 572.5 c 128,-1,48
 522.995117188 648 522.995117188 648 408.629882812 648 c 0,49,50
 310.969726562 648 310.969726562 648 243.5078125 604 c 128,-1,51
 176.044921875 560 176.044921875 560 141.9921875 481.5 c 128,-1,52
 107.940429688 403 107.940429688 403 107.940429688 297 c 0,53,54
 107.940429688 199 107.940429688 199 142.634765625 127 c 128,-1,55
 177.330078125 55 177.330078125 55 246.719726562 16.5 c 128,-1,56
 316.110351562 -22 316.110351562 -22 420.1953125 -22 c 0,57,58
 484.4453125 -22 484.4453125 -22 538.415039062 -11 c 128,-1,59
 592.384765625 0 592.384765625 0 637.360351562 16 c 1,60,-1
 637.360351562 -49 l 1,61,62
 591.099609375 -67 591.099609375 -67 538.415039062 -78 c 128,-1,63
 485.73046875 -89 485.73046875 -89 416.33984375 -89 c 0,0,1
371.365234375 171 m 0,64,65
 418.91015625 171 418.91015625 171 438.184570312 213.5 c 128,-1,66
 457.459960938 256 457.459960938 256 462.599609375 323 c 2,67,-1
 471.594726562 447 l 1,68,69
 458.745117188 451 458.745117188 451 442.040039062 454 c 128,-1,70
 425.334960938 457 425.334960938 457 407.344726562 457 c 0,71,72
 364.940429688 457 364.940429688 457 339.8828125 433 c 128,-1,73
 314.825195312 409 314.825195312 409 303.259765625 372 c 128,-1,74
 291.6953125 335 291.6953125 335 291.6953125 294 c 0,75,76
 291.6953125 229 291.6953125 229 313.540039062 200 c 128,-1,77
 335.384765625 171 335.384765625 171 371.365234375 171 c 0,64,65
EndSplineSet
EndChar

StartChar: ampersand
Encoding: 38 38 95
Width: 771
Flags: W
LayerCount: 2
Fore
SplineSet
274.990234375 -10 m 0,0,1
 199.174804688 -10 199.174804688 -10 145.84765625 14 c 128,-1,2
 92.51953125 38 92.51953125 38 64.892578125 80.5 c 128,-1,3
 37.2646484375 123 37.2646484375 123 37.2646484375 176 c 0,4,5
 37.2646484375 233 37.2646484375 233 66.177734375 275.5 c 128,-1,6
 95.08984375 318 95.08984375 318 141.349609375 351.5 c 128,-1,7
 187.610351562 385 187.610351562 385 240.294921875 414 c 0,8,9
 269.849609375 430 269.849609375 430 305.830078125 454 c 128,-1,10
 341.809570312 478 341.809570312 478 368.794921875 509.5 c 128,-1,11
 395.780273438 541 395.780273438 541 395.780273438 580 c 0,12,13
 395.780273438 616 395.780273438 616 371.365234375 636 c 128,-1,14
 346.950195312 656 346.950195312 656 307.115234375 656 c 256,15,16
 267.280273438 656 267.280273438 656 243.5078125 635 c 128,-1,17
 219.735351562 614 219.735351562 614 219.735351562 576 c 0,18,19
 219.735351562 550 219.735351562 550 230.657226562 522 c 128,-1,20
 241.580078125 494 241.580078125 494 260.212890625 468 c 128,-1,21
 278.844726562 442 278.844726562 442 300.690429688 420 c 2,22,-1
 733.735351562 0 l 1,23,-1
 596.240234375 0 l 1,24,-1
 233.870117188 364 l 2,25,26
 205.599609375 393 205.599609375 393 177.97265625 427 c 128,-1,27
 150.344726562 461 150.344726562 461 132.35546875 499.5 c 128,-1,28
 114.365234375 538 114.365234375 538 114.365234375 578 c 0,29,30
 114.365234375 644 114.365234375 644 165.764648438 684.5 c 128,-1,31
 217.165039062 725 217.165039062 725 307.115234375 725 c 256,32,33
 397.065429688 725 397.065429688 725 448.46484375 684.5 c 128,-1,34
 499.865234375 644 499.865234375 644 499.865234375 580 c 0,35,36
 499.865234375 530 499.865234375 530 470.309570312 490 c 128,-1,37
 440.754882812 450 440.754882812 450 395.780273438 418.5 c 128,-1,38
 350.8046875 387 350.8046875 387 305.830078125 359 c 0,39,40
 268.565429688 336 268.565429688 336 231.942382812 310.5 c 128,-1,41
 195.3203125 285 195.3203125 285 171.547851562 253.5 c 128,-1,42
 147.775390625 222 147.775390625 222 147.775390625 181 c 0,43,44
 147.775390625 133 147.775390625 133 185.040039062 100 c 128,-1,45
 222.3046875 67 222.3046875 67 287.83984375 67 c 0,46,47
 335.384765625 67 335.384765625 67 377.147460938 84.5 c 128,-1,48
 418.91015625 102 418.91015625 102 453.60546875 132 c 128,-1,49
 488.299804688 162 488.299804688 162 514.642578125 198.5 c 128,-1,50
 540.985351562 235 540.985351562 235 558.33203125 274 c 128,-1,51
 575.6796875 313 575.6796875 313 583.389648438 349 c 1,52,-1
 690.044921875 349 l 1,53,54
 677.1953125 292 677.1953125 292 652.137695312 239 c 128,-1,55
 627.080078125 186 627.080078125 186 589.815429688 140.5 c 128,-1,56
 552.549804688 95 552.549804688 95 505.004882812 61.5 c 128,-1,57
 457.459960938 28 457.459960938 28 399.634765625 9 c 128,-1,58
 341.809570312 -10 341.809570312 -10 274.990234375 -10 c 0,0,1
EndSplineSet
EndChar

StartChar: dollar
Encoding: 36 36 96
Width: 771
Flags: W
LayerCount: 2
Fore
SplineSet
337.955078125 34 m 1,0,1
 273.705078125 35 273.705078125 35 215.237304688 43.5 c 128,-1,2
 156.76953125 52 156.76953125 52 115.650390625 67 c 1,3,-1
 115.650390625 152 l 1,4,5
 159.33984375 136 159.33984375 136 219.092773438 124 c 128,-1,6
 278.844726562 112 278.844726562 112 337.955078125 111 c 1,7,-1
 337.955078125 328 l 1,8,9
 260.85546875 348 260.85546875 348 208.169921875 371.5 c 128,-1,10
 155.485351562 395 155.485351562 395 129.142578125 429.5 c 128,-1,11
 102.799804688 464 102.799804688 464 102.799804688 515 c 0,12,13
 102.799804688 565 102.799804688 565 131.712890625 602 c 128,-1,14
 160.625 639 160.625 639 213.309570312 660.5 c 128,-1,15
 265.995117188 682 265.995117188 682 337.955078125 686 c 1,16,-1
 337.955078125 759 l 1,17,-1
 420.1953125 759 l 1,18,-1
 420.1953125 687 l 1,19,20
 484.4453125 686 484.4453125 686 535.844726562 675.5 c 128,-1,21
 587.245117188 665 587.245117188 665 633.504882812 650 c 1,22,-1
 598.809570312 576 l 1,23,24
 557.690429688 589 557.690429688 589 512.71484375 598.5 c 128,-1,25
 467.740234375 608 467.740234375 608 420.1953125 611 c 1,26,-1
 420.1953125 395 l 1,27,28
 502.434570312 376 502.434570312 376 557.690429688 354.5 c 128,-1,29
 612.9453125 333 612.9453125 333 640.572265625 299.5 c 128,-1,30
 668.200195312 266 668.200195312 266 668.200195312 212 c 0,31,32
 668.200195312 142 668.200195312 142 603.307617188 95.5 c 128,-1,33
 538.415039062 49 538.415039062 49 420.1953125 38 c 1,34,-1
 420.1953125 -58 l 1,35,-1
 337.955078125 -58 l 1,36,-1
 337.955078125 34 l 1,0,1
420.1953125 116 m 1,37,38
 492.155273438 123 492.155273438 123 524.922851562 148.5 c 128,-1,39
 557.690429688 174 557.690429688 174 557.690429688 214 c 0,40,41
 557.690429688 239 557.690429688 239 545.482421875 255.5 c 128,-1,42
 533.275390625 272 533.275390625 272 503.719726562 284 c 128,-1,43
 474.165039062 296 474.165039062 296 420.1953125 307 c 1,44,-1
 420.1953125 116 l 1,37,38
337.955078125 609 m 1,45,46
 295.549804688 606 295.549804688 606 267.922851562 593.5 c 128,-1,47
 240.294921875 581 240.294921875 581 226.802734375 561 c 128,-1,48
 213.309570312 541 213.309570312 541 213.309570312 515 c 0,49,50
 213.309570312 490 213.309570312 490 224.875 471.5 c 128,-1,51
 236.440429688 453 236.440429688 453 263.424804688 440 c 128,-1,52
 290.41015625 427 290.41015625 427 337.955078125 417 c 1,53,-1
 337.955078125 609 l 1,45,46
EndSplineSet
EndChar

StartChar: grave
Encoding: 96 96 97
Width: 771
Flags: W
LayerCount: 2
Fore
SplineSet
390 766 m 1,0,1
 401 744 401 744 417.5 716.5 c 128,-1,2
 434 689 434 689 452.5 663 c 128,-1,3
 471 637 471 637 486 618 c 1,4,-1
 486 606 l 1,5,-1
 427 606 l 1,6,7
 410 620 410 620 389 639.5 c 128,-1,8
 368 659 368 659 347.5 680.5 c 128,-1,9
 327 702 327 702 310.5 722 c 128,-1,10
 294 742 294 742 285 756 c 1,11,-1
 285 766 l 1,12,-1
 390 766 l 1,0,1
EndSplineSet
EndChar

StartChar: uni0080
Encoding: 128 128 98
Width: 771
Flags: W
LayerCount: 2
Fore
SplineSet
121.432617188 85 m 4,0,1
 121.432617188 103 121.432617188 103 141.349609375 118 c 132,-1,2
 161.267578125 133 161.267578125 133 197.247070312 144.5 c 132,-1,3
 233.227539062 156 233.227539062 156 281.415039062 162.5 c 132,-1,4
 329.602539062 169 329.602539062 169 384.857421875 169 c 4,5,6
 441.397460938 169 441.397460938 169 489.584960938 162.5 c 132,-1,7
 537.772460938 156 537.772460938 156 573.110351562 144.5 c 132,-1,8
 608.447265625 133 608.447265625 133 629.0078125 118 c 132,-1,9
 649.567382812 103 649.567382812 103 649.567382812 85 c 4,10,11
 649.567382812 68 649.567382812 68 629.0078125 53 c 132,-1,12
 608.447265625 38 608.447265625 38 573.110351562 27 c 132,-1,13
 537.772460938 16 537.772460938 16 489.584960938 9.5 c 132,-1,14
 441.397460938 3 441.397460938 3 384.857421875 3 c 4,15,16
 329.602539062 3 329.602539062 3 281.415039062 9.5 c 132,-1,17
 233.227539062 16 233.227539062 16 197.247070312 27 c 132,-1,18
 161.267578125 38 161.267578125 38 141.349609375 53 c 132,-1,19
 121.432617188 68 121.432617188 68 121.432617188 85 c 4,0,1
224.232421875 85 m 260,20,21
 224.232421875 74 224.232421875 74 236.440429688 64.5 c 132,-1,22
 248.647460938 55 248.647460938 55 270.4921875 48.5 c 132,-1,23
 292.337890625 42 292.337890625 42 321.892578125 38 c 132,-1,24
 351.447265625 34 351.447265625 34 384.857421875 34 c 4,25,26
 419.552734375 34 419.552734375 34 448.46484375 38 c 132,-1,27
 477.377929688 42 477.377929688 42 499.22265625 48.5 c 132,-1,28
 521.067382812 55 521.067382812 55 533.275390625 64.5 c 132,-1,29
 545.482421875 74 545.482421875 74 545.482421875 85 c 260,30,31
 545.482421875 96 545.482421875 96 533.275390625 105.5 c 132,-1,32
 521.067382812 115 521.067382812 115 499.22265625 122 c 132,-1,33
 477.377929688 129 477.377929688 129 448.46484375 133 c 132,-1,34
 419.552734375 137 419.552734375 137 384.857421875 137 c 4,35,36
 351.447265625 137 351.447265625 137 321.892578125 133 c 132,-1,37
 292.337890625 129 292.337890625 129 270.4921875 122 c 132,-1,38
 248.647460938 115 248.647460938 115 236.440429688 105.5 c 132,-1,39
 224.232421875 96 224.232421875 96 224.232421875 85 c 260,20,21
121.432617188 272 m 4,40,41
 121.432617188 290 121.432617188 290 141.349609375 305 c 132,-1,42
 161.267578125 320 161.267578125 320 197.247070312 331.5 c 132,-1,43
 233.227539062 343 233.227539062 343 281.415039062 349 c 132,-1,44
 329.602539062 355 329.602539062 355 384.857421875 355 c 4,45,46
 441.397460938 355 441.397460938 355 489.584960938 349 c 132,-1,47
 537.772460938 343 537.772460938 343 573.110351562 331.5 c 132,-1,48
 608.447265625 320 608.447265625 320 629.0078125 305 c 132,-1,49
 649.567382812 290 649.567382812 290 649.567382812 272 c 4,50,51
 649.567382812 255 649.567382812 255 629.0078125 240 c 132,-1,52
 608.447265625 225 608.447265625 225 573.110351562 214 c 132,-1,53
 537.772460938 203 537.772460938 203 489.584960938 196 c 132,-1,54
 441.397460938 189 441.397460938 189 384.857421875 189 c 4,55,56
 329.602539062 189 329.602539062 189 281.415039062 196 c 132,-1,57
 233.227539062 203 233.227539062 203 197.247070312 214 c 132,-1,58
 161.267578125 225 161.267578125 225 141.349609375 240 c 132,-1,59
 121.432617188 255 121.432617188 255 121.432617188 272 c 4,40,41
224.232421875 272 m 260,60,61
 224.232421875 261 224.232421875 261 236.440429688 251.5 c 132,-1,62
 248.647460938 242 248.647460938 242 270.4921875 235 c 132,-1,63
 292.337890625 228 292.337890625 228 321.892578125 224 c 132,-1,64
 351.447265625 220 351.447265625 220 384.857421875 220 c 4,65,66
 419.552734375 220 419.552734375 220 448.46484375 224 c 132,-1,67
 477.377929688 228 477.377929688 228 499.22265625 235 c 132,-1,68
 521.067382812 242 521.067382812 242 533.275390625 251.5 c 132,-1,69
 545.482421875 261 545.482421875 261 545.482421875 272 c 260,70,71
 545.482421875 283 545.482421875 283 533.275390625 292.5 c 132,-1,72
 521.067382812 302 521.067382812 302 499.22265625 309 c 132,-1,73
 477.377929688 316 477.377929688 316 448.46484375 320 c 132,-1,74
 419.552734375 324 419.552734375 324 384.857421875 324 c 4,75,76
 351.447265625 324 351.447265625 324 321.892578125 320 c 132,-1,77
 292.337890625 316 292.337890625 316 270.4921875 309 c 132,-1,78
 248.647460938 302 248.647460938 302 236.440429688 292.5 c 132,-1,79
 224.232421875 283 224.232421875 283 224.232421875 272 c 260,60,61
121.432617188 461 m 260,80,81
 121.432617188 478 121.432617188 478 141.349609375 493.5 c 132,-1,82
 161.267578125 509 161.267578125 509 197.247070312 520 c 132,-1,83
 233.227539062 531 233.227539062 531 281.415039062 537.5 c 132,-1,84
 329.602539062 544 329.602539062 544 384.857421875 544 c 4,85,86
 441.397460938 544 441.397460938 544 489.584960938 537.5 c 132,-1,87
 537.772460938 531 537.772460938 531 573.110351562 520 c 132,-1,88
 608.447265625 509 608.447265625 509 629.0078125 493.5 c 132,-1,89
 649.567382812 478 649.567382812 478 649.567382812 461 c 260,90,91
 649.567382812 444 649.567382812 444 629.0078125 429 c 132,-1,92
 608.447265625 414 608.447265625 414 573.110351562 402.5 c 132,-1,93
 537.772460938 391 537.772460938 391 489.584960938 384.5 c 132,-1,94
 441.397460938 378 441.397460938 378 384.857421875 378 c 4,95,96
 329.602539062 378 329.602539062 378 281.415039062 384.5 c 132,-1,97
 233.227539062 391 233.227539062 391 197.247070312 402.5 c 132,-1,98
 161.267578125 414 161.267578125 414 141.349609375 429 c 132,-1,99
 121.432617188 444 121.432617188 444 121.432617188 461 c 260,80,81
224.232421875 461 m 260,100,101
 224.232421875 450 224.232421875 450 236.440429688 440.5 c 132,-1,102
 248.647460938 431 248.647460938 431 270.4921875 424 c 132,-1,103
 292.337890625 417 292.337890625 417 321.892578125 413 c 132,-1,104
 351.447265625 409 351.447265625 409 384.857421875 409 c 4,105,106
 419.552734375 409 419.552734375 409 448.46484375 413 c 132,-1,107
 477.377929688 417 477.377929688 417 499.22265625 424 c 132,-1,108
 521.067382812 431 521.067382812 431 533.275390625 440.5 c 132,-1,109
 545.482421875 450 545.482421875 450 545.482421875 461 c 260,110,111
 545.482421875 472 545.482421875 472 533.275390625 481.5 c 132,-1,112
 521.067382812 491 521.067382812 491 499.22265625 498 c 132,-1,113
 477.377929688 505 477.377929688 505 448.46484375 509 c 132,-1,114
 419.552734375 513 419.552734375 513 384.857421875 513 c 4,115,116
 351.447265625 513 351.447265625 513 321.892578125 509 c 132,-1,117
 292.337890625 505 292.337890625 505 270.4921875 498 c 132,-1,118
 248.647460938 491 248.647460938 491 236.440429688 481.5 c 132,-1,119
 224.232421875 472 224.232421875 472 224.232421875 461 c 260,100,101
121.432617188 648 m 260,120,121
 121.432617188 665 121.432617188 665 141.349609375 680.5 c 132,-1,122
 161.267578125 696 161.267578125 696 197.247070312 707 c 132,-1,123
 233.227539062 718 233.227539062 718 281.415039062 724.5 c 132,-1,124
 329.602539062 731 329.602539062 731 384.857421875 731 c 4,125,126
 441.397460938 731 441.397460938 731 489.584960938 724.5 c 132,-1,127
 537.772460938 718 537.772460938 718 573.110351562 707 c 132,-1,128
 608.447265625 696 608.447265625 696 629.0078125 680.5 c 132,-1,129
 649.567382812 665 649.567382812 665 649.567382812 648 c 260,130,131
 649.567382812 631 649.567382812 631 629.0078125 616 c 132,-1,132
 608.447265625 601 608.447265625 601 573.110351562 589.5 c 132,-1,133
 537.772460938 578 537.772460938 578 489.584960938 571.5 c 132,-1,134
 441.397460938 565 441.397460938 565 384.857421875 565 c 4,135,136
 329.602539062 565 329.602539062 565 281.415039062 571.5 c 132,-1,137
 233.227539062 578 233.227539062 578 197.247070312 589.5 c 132,-1,138
 161.267578125 601 161.267578125 601 141.349609375 616 c 132,-1,139
 121.432617188 631 121.432617188 631 121.432617188 648 c 260,120,121
224.232421875 648 m 4,140,141
 224.232421875 637 224.232421875 637 236.440429688 627.5 c 132,-1,142
 248.647460938 618 248.647460938 618 270.4921875 611 c 132,-1,143
 292.337890625 604 292.337890625 604 321.892578125 600 c 132,-1,144
 351.447265625 596 351.447265625 596 384.857421875 596 c 4,145,146
 419.552734375 596 419.552734375 596 448.46484375 600 c 132,-1,147
 477.377929688 604 477.377929688 604 499.22265625 611 c 132,-1,148
 521.067382812 618 521.067382812 618 533.275390625 627.5 c 132,-1,149
 545.482421875 637 545.482421875 637 545.482421875 648 c 4,150,151
 545.482421875 658 545.482421875 658 533.275390625 668 c 132,-1,152
 521.067382812 678 521.067382812 678 499.22265625 685 c 132,-1,153
 477.377929688 692 477.377929688 692 448.46484375 696 c 132,-1,154
 419.552734375 700 419.552734375 700 384.857421875 700 c 4,155,156
 351.447265625 700 351.447265625 700 321.892578125 696 c 132,-1,157
 292.337890625 692 292.337890625 692 270.4921875 685 c 132,-1,158
 248.647460938 678 248.647460938 678 236.440429688 668 c 132,-1,159
 224.232421875 658 224.232421875 658 224.232421875 648 c 4,140,141
EndSplineSet
EndChar

StartChar: uni0081
Encoding: 129 129 99
Width: 771
Flags: W
LayerCount: 2
Fore
SplineSet
121.432617188 85 m 0,0,1
 121.432617188 103 121.432617188 103 141.349609375 118 c 128,-1,2
 161.267578125 133 161.267578125 133 197.247070312 144.5 c 128,-1,3
 233.227539062 156 233.227539062 156 281.415039062 162.5 c 128,-1,4
 329.602539062 169 329.602539062 169 384.857421875 169 c 0,5,6
 441.397460938 169 441.397460938 169 489.584960938 162.5 c 128,-1,7
 537.772460938 156 537.772460938 156 573.110351562 144.5 c 128,-1,8
 608.447265625 133 608.447265625 133 629.0078125 118 c 128,-1,9
 649.567382812 103 649.567382812 103 649.567382812 85 c 0,10,11
 649.567382812 68 649.567382812 68 629.0078125 53 c 128,-1,12
 608.447265625 38 608.447265625 38 573.110351562 27 c 128,-1,13
 537.772460938 16 537.772460938 16 489.584960938 9.5 c 128,-1,14
 441.397460938 3 441.397460938 3 384.857421875 3 c 0,15,16
 329.602539062 3 329.602539062 3 281.415039062 9.5 c 128,-1,17
 233.227539062 16 233.227539062 16 197.247070312 27 c 128,-1,18
 161.267578125 38 161.267578125 38 141.349609375 53 c 128,-1,19
 121.432617188 68 121.432617188 68 121.432617188 85 c 0,0,1
121.432617188 272 m 0,20,21
 121.432617188 290 121.432617188 290 141.349609375 305 c 128,-1,22
 161.267578125 320 161.267578125 320 197.247070312 331.5 c 128,-1,23
 233.227539062 343 233.227539062 343 281.415039062 349 c 128,-1,24
 329.602539062 355 329.602539062 355 384.857421875 355 c 0,25,26
 441.397460938 355 441.397460938 355 489.584960938 349 c 128,-1,27
 537.772460938 343 537.772460938 343 573.110351562 331.5 c 128,-1,28
 608.447265625 320 608.447265625 320 629.0078125 305 c 128,-1,29
 649.567382812 290 649.567382812 290 649.567382812 272 c 0,30,31
 649.567382812 255 649.567382812 255 629.0078125 240 c 128,-1,32
 608.447265625 225 608.447265625 225 573.110351562 214 c 128,-1,33
 537.772460938 203 537.772460938 203 489.584960938 196 c 128,-1,34
 441.397460938 189 441.397460938 189 384.857421875 189 c 0,35,36
 329.602539062 189 329.602539062 189 281.415039062 196 c 128,-1,37
 233.227539062 203 233.227539062 203 197.247070312 214 c 128,-1,38
 161.267578125 225 161.267578125 225 141.349609375 240 c 128,-1,39
 121.432617188 255 121.432617188 255 121.432617188 272 c 0,20,21
224.232421875 272 m 256,40,41
 224.232421875 261 224.232421875 261 236.440429688 251.5 c 128,-1,42
 248.647460938 242 248.647460938 242 270.4921875 235 c 128,-1,43
 292.337890625 228 292.337890625 228 321.892578125 224 c 128,-1,44
 351.447265625 220 351.447265625 220 384.857421875 220 c 0,45,46
 419.552734375 220 419.552734375 220 448.46484375 224 c 128,-1,47
 477.377929688 228 477.377929688 228 499.22265625 235 c 128,-1,48
 521.067382812 242 521.067382812 242 533.275390625 251.5 c 128,-1,49
 545.482421875 261 545.482421875 261 545.482421875 272 c 256,50,51
 545.482421875 283 545.482421875 283 533.275390625 292.5 c 128,-1,52
 521.067382812 302 521.067382812 302 499.22265625 309 c 128,-1,53
 477.377929688 316 477.377929688 316 448.46484375 320 c 128,-1,54
 419.552734375 324 419.552734375 324 384.857421875 324 c 0,55,56
 351.447265625 324 351.447265625 324 321.892578125 320 c 128,-1,57
 292.337890625 316 292.337890625 316 270.4921875 309 c 128,-1,58
 248.647460938 302 248.647460938 302 236.440429688 292.5 c 128,-1,59
 224.232421875 283 224.232421875 283 224.232421875 272 c 256,40,41
121.432617188 461 m 256,60,61
 121.432617188 478 121.432617188 478 141.349609375 493.5 c 128,-1,62
 161.267578125 509 161.267578125 509 197.247070312 520 c 128,-1,63
 233.227539062 531 233.227539062 531 281.415039062 537.5 c 128,-1,64
 329.602539062 544 329.602539062 544 384.857421875 544 c 0,65,66
 441.397460938 544 441.397460938 544 489.584960938 537.5 c 128,-1,67
 537.772460938 531 537.772460938 531 573.110351562 520 c 128,-1,68
 608.447265625 509 608.447265625 509 629.0078125 493.5 c 128,-1,69
 649.567382812 478 649.567382812 478 649.567382812 461 c 256,70,71
 649.567382812 444 649.567382812 444 629.0078125 429 c 128,-1,72
 608.447265625 414 608.447265625 414 573.110351562 402.5 c 128,-1,73
 537.772460938 391 537.772460938 391 489.584960938 384.5 c 128,-1,74
 441.397460938 378 441.397460938 378 384.857421875 378 c 0,75,76
 329.602539062 378 329.602539062 378 281.415039062 384.5 c 128,-1,77
 233.227539062 391 233.227539062 391 197.247070312 402.5 c 128,-1,78
 161.267578125 414 161.267578125 414 141.349609375 429 c 128,-1,79
 121.432617188 444 121.432617188 444 121.432617188 461 c 256,60,61
224.232421875 461 m 256,80,81
 224.232421875 450 224.232421875 450 236.440429688 440.5 c 128,-1,82
 248.647460938 431 248.647460938 431 270.4921875 424 c 128,-1,83
 292.337890625 417 292.337890625 417 321.892578125 413 c 128,-1,84
 351.447265625 409 351.447265625 409 384.857421875 409 c 0,85,86
 419.552734375 409 419.552734375 409 448.46484375 413 c 128,-1,87
 477.377929688 417 477.377929688 417 499.22265625 424 c 128,-1,88
 521.067382812 431 521.067382812 431 533.275390625 440.5 c 128,-1,89
 545.482421875 450 545.482421875 450 545.482421875 461 c 256,90,91
 545.482421875 472 545.482421875 472 533.275390625 481.5 c 128,-1,92
 521.067382812 491 521.067382812 491 499.22265625 498 c 128,-1,93
 477.377929688 505 477.377929688 505 448.46484375 509 c 128,-1,94
 419.552734375 513 419.552734375 513 384.857421875 513 c 0,95,96
 351.447265625 513 351.447265625 513 321.892578125 509 c 128,-1,97
 292.337890625 505 292.337890625 505 270.4921875 498 c 128,-1,98
 248.647460938 491 248.647460938 491 236.440429688 481.5 c 128,-1,99
 224.232421875 472 224.232421875 472 224.232421875 461 c 256,80,81
121.432617188 648 m 256,100,101
 121.432617188 665 121.432617188 665 141.349609375 680.5 c 128,-1,102
 161.267578125 696 161.267578125 696 197.247070312 707 c 128,-1,103
 233.227539062 718 233.227539062 718 281.415039062 724.5 c 128,-1,104
 329.602539062 731 329.602539062 731 384.857421875 731 c 0,105,106
 441.397460938 731 441.397460938 731 489.584960938 724.5 c 128,-1,107
 537.772460938 718 537.772460938 718 573.110351562 707 c 128,-1,108
 608.447265625 696 608.447265625 696 629.0078125 680.5 c 128,-1,109
 649.567382812 665 649.567382812 665 649.567382812 648 c 256,110,111
 649.567382812 631 649.567382812 631 629.0078125 616 c 128,-1,112
 608.447265625 601 608.447265625 601 573.110351562 589.5 c 128,-1,113
 537.772460938 578 537.772460938 578 489.584960938 571.5 c 128,-1,114
 441.397460938 565 441.397460938 565 384.857421875 565 c 0,115,116
 329.602539062 565 329.602539062 565 281.415039062 571.5 c 128,-1,117
 233.227539062 578 233.227539062 578 197.247070312 589.5 c 128,-1,118
 161.267578125 601 161.267578125 601 141.349609375 616 c 128,-1,119
 121.432617188 631 121.432617188 631 121.432617188 648 c 256,100,101
224.232421875 648 m 0,120,121
 224.232421875 637 224.232421875 637 236.440429688 627.5 c 128,-1,122
 248.647460938 618 248.647460938 618 270.4921875 611 c 128,-1,123
 292.337890625 604 292.337890625 604 321.892578125 600 c 128,-1,124
 351.447265625 596 351.447265625 596 384.857421875 596 c 0,125,126
 419.552734375 596 419.552734375 596 448.46484375 600 c 128,-1,127
 477.377929688 604 477.377929688 604 499.22265625 611 c 128,-1,128
 521.067382812 618 521.067382812 618 533.275390625 627.5 c 128,-1,129
 545.482421875 637 545.482421875 637 545.482421875 648 c 0,130,131
 545.482421875 658 545.482421875 658 533.275390625 668 c 128,-1,132
 521.067382812 678 521.067382812 678 499.22265625 685 c 128,-1,133
 477.377929688 692 477.377929688 692 448.46484375 696 c 128,-1,134
 419.552734375 700 419.552734375 700 384.857421875 700 c 0,135,136
 351.447265625 700 351.447265625 700 321.892578125 696 c 128,-1,137
 292.337890625 692 292.337890625 692 270.4921875 685 c 128,-1,138
 248.647460938 678 248.647460938 678 236.440429688 668 c 128,-1,139
 224.232421875 658 224.232421875 658 224.232421875 648 c 0,120,121
EndSplineSet
EndChar

StartChar: uni0082
Encoding: 130 130 100
Width: 771
Flags: W
LayerCount: 2
Fore
SplineSet
121.432617188 85 m 0,0,1
 121.432617188 103 121.432617188 103 141.349609375 118 c 128,-1,2
 161.267578125 133 161.267578125 133 197.247070312 144.5 c 128,-1,3
 233.227539062 156 233.227539062 156 281.415039062 162.5 c 128,-1,4
 329.602539062 169 329.602539062 169 384.857421875 169 c 0,5,6
 441.397460938 169 441.397460938 169 489.584960938 162.5 c 128,-1,7
 537.772460938 156 537.772460938 156 573.110351562 144.5 c 128,-1,8
 608.447265625 133 608.447265625 133 629.0078125 118 c 128,-1,9
 649.567382812 103 649.567382812 103 649.567382812 85 c 0,10,11
 649.567382812 68 649.567382812 68 629.0078125 53 c 128,-1,12
 608.447265625 38 608.447265625 38 573.110351562 27 c 128,-1,13
 537.772460938 16 537.772460938 16 489.584960938 9.5 c 128,-1,14
 441.397460938 3 441.397460938 3 384.857421875 3 c 0,15,16
 329.602539062 3 329.602539062 3 281.415039062 9.5 c 128,-1,17
 233.227539062 16 233.227539062 16 197.247070312 27 c 128,-1,18
 161.267578125 38 161.267578125 38 141.349609375 53 c 128,-1,19
 121.432617188 68 121.432617188 68 121.432617188 85 c 0,0,1
224.232421875 85 m 256,20,21
 224.232421875 74 224.232421875 74 236.440429688 64.5 c 128,-1,22
 248.647460938 55 248.647460938 55 270.4921875 48.5 c 128,-1,23
 292.337890625 42 292.337890625 42 321.892578125 38 c 128,-1,24
 351.447265625 34 351.447265625 34 384.857421875 34 c 0,25,26
 419.552734375 34 419.552734375 34 448.46484375 38 c 128,-1,27
 477.377929688 42 477.377929688 42 499.22265625 48.5 c 128,-1,28
 521.067382812 55 521.067382812 55 533.275390625 64.5 c 128,-1,29
 545.482421875 74 545.482421875 74 545.482421875 85 c 256,30,31
 545.482421875 96 545.482421875 96 533.275390625 105.5 c 128,-1,32
 521.067382812 115 521.067382812 115 499.22265625 122 c 128,-1,33
 477.377929688 129 477.377929688 129 448.46484375 133 c 128,-1,34
 419.552734375 137 419.552734375 137 384.857421875 137 c 0,35,36
 351.447265625 137 351.447265625 137 321.892578125 133 c 128,-1,37
 292.337890625 129 292.337890625 129 270.4921875 122 c 128,-1,38
 248.647460938 115 248.647460938 115 236.440429688 105.5 c 128,-1,39
 224.232421875 96 224.232421875 96 224.232421875 85 c 256,20,21
121.432617188 272 m 0,40,41
 121.432617188 290 121.432617188 290 141.349609375 305 c 128,-1,42
 161.267578125 320 161.267578125 320 197.247070312 331.5 c 128,-1,43
 233.227539062 343 233.227539062 343 281.415039062 349 c 128,-1,44
 329.602539062 355 329.602539062 355 384.857421875 355 c 0,45,46
 441.397460938 355 441.397460938 355 489.584960938 349 c 128,-1,47
 537.772460938 343 537.772460938 343 573.110351562 331.5 c 128,-1,48
 608.447265625 320 608.447265625 320 629.0078125 305 c 128,-1,49
 649.567382812 290 649.567382812 290 649.567382812 272 c 0,50,51
 649.567382812 255 649.567382812 255 629.0078125 240 c 128,-1,52
 608.447265625 225 608.447265625 225 573.110351562 214 c 128,-1,53
 537.772460938 203 537.772460938 203 489.584960938 196 c 128,-1,54
 441.397460938 189 441.397460938 189 384.857421875 189 c 0,55,56
 329.602539062 189 329.602539062 189 281.415039062 196 c 128,-1,57
 233.227539062 203 233.227539062 203 197.247070312 214 c 128,-1,58
 161.267578125 225 161.267578125 225 141.349609375 240 c 128,-1,59
 121.432617188 255 121.432617188 255 121.432617188 272 c 0,40,41
121.432617188 461 m 256,60,61
 121.432617188 478 121.432617188 478 141.349609375 493.5 c 128,-1,62
 161.267578125 509 161.267578125 509 197.247070312 520 c 128,-1,63
 233.227539062 531 233.227539062 531 281.415039062 537.5 c 128,-1,64
 329.602539062 544 329.602539062 544 384.857421875 544 c 0,65,66
 441.397460938 544 441.397460938 544 489.584960938 537.5 c 128,-1,67
 537.772460938 531 537.772460938 531 573.110351562 520 c 128,-1,68
 608.447265625 509 608.447265625 509 629.0078125 493.5 c 128,-1,69
 649.567382812 478 649.567382812 478 649.567382812 461 c 256,70,71
 649.567382812 444 649.567382812 444 629.0078125 429 c 128,-1,72
 608.447265625 414 608.447265625 414 573.110351562 402.5 c 128,-1,73
 537.772460938 391 537.772460938 391 489.584960938 384.5 c 128,-1,74
 441.397460938 378 441.397460938 378 384.857421875 378 c 0,75,76
 329.602539062 378 329.602539062 378 281.415039062 384.5 c 128,-1,77
 233.227539062 391 233.227539062 391 197.247070312 402.5 c 128,-1,78
 161.267578125 414 161.267578125 414 141.349609375 429 c 128,-1,79
 121.432617188 444 121.432617188 444 121.432617188 461 c 256,60,61
224.232421875 461 m 256,80,81
 224.232421875 450 224.232421875 450 236.440429688 440.5 c 128,-1,82
 248.647460938 431 248.647460938 431 270.4921875 424 c 128,-1,83
 292.337890625 417 292.337890625 417 321.892578125 413 c 128,-1,84
 351.447265625 409 351.447265625 409 384.857421875 409 c 0,85,86
 419.552734375 409 419.552734375 409 448.46484375 413 c 128,-1,87
 477.377929688 417 477.377929688 417 499.22265625 424 c 128,-1,88
 521.067382812 431 521.067382812 431 533.275390625 440.5 c 128,-1,89
 545.482421875 450 545.482421875 450 545.482421875 461 c 256,90,91
 545.482421875 472 545.482421875 472 533.275390625 481.5 c 128,-1,92
 521.067382812 491 521.067382812 491 499.22265625 498 c 128,-1,93
 477.377929688 505 477.377929688 505 448.46484375 509 c 128,-1,94
 419.552734375 513 419.552734375 513 384.857421875 513 c 0,95,96
 351.447265625 513 351.447265625 513 321.892578125 509 c 128,-1,97
 292.337890625 505 292.337890625 505 270.4921875 498 c 128,-1,98
 248.647460938 491 248.647460938 491 236.440429688 481.5 c 128,-1,99
 224.232421875 472 224.232421875 472 224.232421875 461 c 256,80,81
121.432617188 648 m 256,100,101
 121.432617188 665 121.432617188 665 141.349609375 680.5 c 128,-1,102
 161.267578125 696 161.267578125 696 197.247070312 707 c 128,-1,103
 233.227539062 718 233.227539062 718 281.415039062 724.5 c 128,-1,104
 329.602539062 731 329.602539062 731 384.857421875 731 c 0,105,106
 441.397460938 731 441.397460938 731 489.584960938 724.5 c 128,-1,107
 537.772460938 718 537.772460938 718 573.110351562 707 c 128,-1,108
 608.447265625 696 608.447265625 696 629.0078125 680.5 c 128,-1,109
 649.567382812 665 649.567382812 665 649.567382812 648 c 256,110,111
 649.567382812 631 649.567382812 631 629.0078125 616 c 128,-1,112
 608.447265625 601 608.447265625 601 573.110351562 589.5 c 128,-1,113
 537.772460938 578 537.772460938 578 489.584960938 571.5 c 128,-1,114
 441.397460938 565 441.397460938 565 384.857421875 565 c 0,115,116
 329.602539062 565 329.602539062 565 281.415039062 571.5 c 128,-1,117
 233.227539062 578 233.227539062 578 197.247070312 589.5 c 128,-1,118
 161.267578125 601 161.267578125 601 141.349609375 616 c 128,-1,119
 121.432617188 631 121.432617188 631 121.432617188 648 c 256,100,101
224.232421875 648 m 0,120,121
 224.232421875 637 224.232421875 637 236.440429688 627.5 c 128,-1,122
 248.647460938 618 248.647460938 618 270.4921875 611 c 128,-1,123
 292.337890625 604 292.337890625 604 321.892578125 600 c 128,-1,124
 351.447265625 596 351.447265625 596 384.857421875 596 c 0,125,126
 419.552734375 596 419.552734375 596 448.46484375 600 c 128,-1,127
 477.377929688 604 477.377929688 604 499.22265625 611 c 128,-1,128
 521.067382812 618 521.067382812 618 533.275390625 627.5 c 128,-1,129
 545.482421875 637 545.482421875 637 545.482421875 648 c 0,130,131
 545.482421875 658 545.482421875 658 533.275390625 668 c 128,-1,132
 521.067382812 678 521.067382812 678 499.22265625 685 c 128,-1,133
 477.377929688 692 477.377929688 692 448.46484375 696 c 128,-1,134
 419.552734375 700 419.552734375 700 384.857421875 700 c 0,135,136
 351.447265625 700 351.447265625 700 321.892578125 696 c 128,-1,137
 292.337890625 692 292.337890625 692 270.4921875 685 c 128,-1,138
 248.647460938 678 248.647460938 678 236.440429688 668 c 128,-1,139
 224.232421875 658 224.232421875 658 224.232421875 648 c 0,120,121
EndSplineSet
EndChar

StartChar: uni0083
Encoding: 131 131 101
Width: 771
Flags: W
LayerCount: 2
Fore
SplineSet
121.432617188 85 m 0,0,1
 121.432617188 103 121.432617188 103 141.349609375 118 c 128,-1,2
 161.267578125 133 161.267578125 133 197.247070312 144.5 c 128,-1,3
 233.227539062 156 233.227539062 156 281.415039062 162.5 c 128,-1,4
 329.602539062 169 329.602539062 169 384.857421875 169 c 0,5,6
 441.397460938 169 441.397460938 169 489.584960938 162.5 c 128,-1,7
 537.772460938 156 537.772460938 156 573.110351562 144.5 c 128,-1,8
 608.447265625 133 608.447265625 133 629.0078125 118 c 128,-1,9
 649.567382812 103 649.567382812 103 649.567382812 85 c 0,10,11
 649.567382812 68 649.567382812 68 629.0078125 53 c 128,-1,12
 608.447265625 38 608.447265625 38 573.110351562 27 c 128,-1,13
 537.772460938 16 537.772460938 16 489.584960938 9.5 c 128,-1,14
 441.397460938 3 441.397460938 3 384.857421875 3 c 0,15,16
 329.602539062 3 329.602539062 3 281.415039062 9.5 c 128,-1,17
 233.227539062 16 233.227539062 16 197.247070312 27 c 128,-1,18
 161.267578125 38 161.267578125 38 141.349609375 53 c 128,-1,19
 121.432617188 68 121.432617188 68 121.432617188 85 c 0,0,1
121.432617188 272 m 0,20,21
 121.432617188 290 121.432617188 290 141.349609375 305 c 128,-1,22
 161.267578125 320 161.267578125 320 197.247070312 331.5 c 128,-1,23
 233.227539062 343 233.227539062 343 281.415039062 349 c 128,-1,24
 329.602539062 355 329.602539062 355 384.857421875 355 c 0,25,26
 441.397460938 355 441.397460938 355 489.584960938 349 c 128,-1,27
 537.772460938 343 537.772460938 343 573.110351562 331.5 c 128,-1,28
 608.447265625 320 608.447265625 320 629.0078125 305 c 128,-1,29
 649.567382812 290 649.567382812 290 649.567382812 272 c 0,30,31
 649.567382812 255 649.567382812 255 629.0078125 240 c 128,-1,32
 608.447265625 225 608.447265625 225 573.110351562 214 c 128,-1,33
 537.772460938 203 537.772460938 203 489.584960938 196 c 128,-1,34
 441.397460938 189 441.397460938 189 384.857421875 189 c 0,35,36
 329.602539062 189 329.602539062 189 281.415039062 196 c 128,-1,37
 233.227539062 203 233.227539062 203 197.247070312 214 c 128,-1,38
 161.267578125 225 161.267578125 225 141.349609375 240 c 128,-1,39
 121.432617188 255 121.432617188 255 121.432617188 272 c 0,20,21
121.432617188 461 m 256,40,41
 121.432617188 478 121.432617188 478 141.349609375 493.5 c 128,-1,42
 161.267578125 509 161.267578125 509 197.247070312 520 c 128,-1,43
 233.227539062 531 233.227539062 531 281.415039062 537.5 c 128,-1,44
 329.602539062 544 329.602539062 544 384.857421875 544 c 0,45,46
 441.397460938 544 441.397460938 544 489.584960938 537.5 c 128,-1,47
 537.772460938 531 537.772460938 531 573.110351562 520 c 128,-1,48
 608.447265625 509 608.447265625 509 629.0078125 493.5 c 128,-1,49
 649.567382812 478 649.567382812 478 649.567382812 461 c 256,50,51
 649.567382812 444 649.567382812 444 629.0078125 429 c 128,-1,52
 608.447265625 414 608.447265625 414 573.110351562 402.5 c 128,-1,53
 537.772460938 391 537.772460938 391 489.584960938 384.5 c 128,-1,54
 441.397460938 378 441.397460938 378 384.857421875 378 c 0,55,56
 329.602539062 378 329.602539062 378 281.415039062 384.5 c 128,-1,57
 233.227539062 391 233.227539062 391 197.247070312 402.5 c 128,-1,58
 161.267578125 414 161.267578125 414 141.349609375 429 c 128,-1,59
 121.432617188 444 121.432617188 444 121.432617188 461 c 256,40,41
224.232421875 461 m 256,60,61
 224.232421875 450 224.232421875 450 236.440429688 440.5 c 128,-1,62
 248.647460938 431 248.647460938 431 270.4921875 424 c 128,-1,63
 292.337890625 417 292.337890625 417 321.892578125 413 c 128,-1,64
 351.447265625 409 351.447265625 409 384.857421875 409 c 0,65,66
 419.552734375 409 419.552734375 409 448.46484375 413 c 128,-1,67
 477.377929688 417 477.377929688 417 499.22265625 424 c 128,-1,68
 521.067382812 431 521.067382812 431 533.275390625 440.5 c 128,-1,69
 545.482421875 450 545.482421875 450 545.482421875 461 c 256,70,71
 545.482421875 472 545.482421875 472 533.275390625 481.5 c 128,-1,72
 521.067382812 491 521.067382812 491 499.22265625 498 c 128,-1,73
 477.377929688 505 477.377929688 505 448.46484375 509 c 128,-1,74
 419.552734375 513 419.552734375 513 384.857421875 513 c 0,75,76
 351.447265625 513 351.447265625 513 321.892578125 509 c 128,-1,77
 292.337890625 505 292.337890625 505 270.4921875 498 c 128,-1,78
 248.647460938 491 248.647460938 491 236.440429688 481.5 c 128,-1,79
 224.232421875 472 224.232421875 472 224.232421875 461 c 256,60,61
121.432617188 648 m 256,80,81
 121.432617188 665 121.432617188 665 141.349609375 680.5 c 128,-1,82
 161.267578125 696 161.267578125 696 197.247070312 707 c 128,-1,83
 233.227539062 718 233.227539062 718 281.415039062 724.5 c 128,-1,84
 329.602539062 731 329.602539062 731 384.857421875 731 c 0,85,86
 441.397460938 731 441.397460938 731 489.584960938 724.5 c 128,-1,87
 537.772460938 718 537.772460938 718 573.110351562 707 c 128,-1,88
 608.447265625 696 608.447265625 696 629.0078125 680.5 c 128,-1,89
 649.567382812 665 649.567382812 665 649.567382812 648 c 256,90,91
 649.567382812 631 649.567382812 631 629.0078125 616 c 128,-1,92
 608.447265625 601 608.447265625 601 573.110351562 589.5 c 128,-1,93
 537.772460938 578 537.772460938 578 489.584960938 571.5 c 128,-1,94
 441.397460938 565 441.397460938 565 384.857421875 565 c 0,95,96
 329.602539062 565 329.602539062 565 281.415039062 571.5 c 128,-1,97
 233.227539062 578 233.227539062 578 197.247070312 589.5 c 128,-1,98
 161.267578125 601 161.267578125 601 141.349609375 616 c 128,-1,99
 121.432617188 631 121.432617188 631 121.432617188 648 c 256,80,81
224.232421875 648 m 0,100,101
 224.232421875 637 224.232421875 637 236.440429688 627.5 c 128,-1,102
 248.647460938 618 248.647460938 618 270.4921875 611 c 128,-1,103
 292.337890625 604 292.337890625 604 321.892578125 600 c 128,-1,104
 351.447265625 596 351.447265625 596 384.857421875 596 c 0,105,106
 419.552734375 596 419.552734375 596 448.46484375 600 c 128,-1,107
 477.377929688 604 477.377929688 604 499.22265625 611 c 128,-1,108
 521.067382812 618 521.067382812 618 533.275390625 627.5 c 128,-1,109
 545.482421875 637 545.482421875 637 545.482421875 648 c 0,110,111
 545.482421875 658 545.482421875 658 533.275390625 668 c 128,-1,112
 521.067382812 678 521.067382812 678 499.22265625 685 c 128,-1,113
 477.377929688 692 477.377929688 692 448.46484375 696 c 128,-1,114
 419.552734375 700 419.552734375 700 384.857421875 700 c 0,115,116
 351.447265625 700 351.447265625 700 321.892578125 696 c 128,-1,117
 292.337890625 692 292.337890625 692 270.4921875 685 c 128,-1,118
 248.647460938 678 248.647460938 678 236.440429688 668 c 128,-1,119
 224.232421875 658 224.232421875 658 224.232421875 648 c 0,100,101
EndSplineSet
EndChar

StartChar: uni0084
Encoding: 132 132 102
Width: 771
Flags: W
LayerCount: 2
Fore
SplineSet
121.432617188 85 m 0,0,1
 121.432617188 103 121.432617188 103 141.349609375 118 c 128,-1,2
 161.267578125 133 161.267578125 133 197.247070312 144.5 c 128,-1,3
 233.227539062 156 233.227539062 156 281.415039062 162.5 c 128,-1,4
 329.602539062 169 329.602539062 169 384.857421875 169 c 0,5,6
 441.397460938 169 441.397460938 169 489.584960938 162.5 c 128,-1,7
 537.772460938 156 537.772460938 156 573.110351562 144.5 c 128,-1,8
 608.447265625 133 608.447265625 133 629.0078125 118 c 128,-1,9
 649.567382812 103 649.567382812 103 649.567382812 85 c 0,10,11
 649.567382812 68 649.567382812 68 629.0078125 53 c 128,-1,12
 608.447265625 38 608.447265625 38 573.110351562 27 c 128,-1,13
 537.772460938 16 537.772460938 16 489.584960938 9.5 c 128,-1,14
 441.397460938 3 441.397460938 3 384.857421875 3 c 0,15,16
 329.602539062 3 329.602539062 3 281.415039062 9.5 c 128,-1,17
 233.227539062 16 233.227539062 16 197.247070312 27 c 128,-1,18
 161.267578125 38 161.267578125 38 141.349609375 53 c 128,-1,19
 121.432617188 68 121.432617188 68 121.432617188 85 c 0,0,1
224.232421875 85 m 256,20,21
 224.232421875 74 224.232421875 74 236.440429688 64.5 c 128,-1,22
 248.647460938 55 248.647460938 55 270.4921875 48.5 c 128,-1,23
 292.337890625 42 292.337890625 42 321.892578125 38 c 128,-1,24
 351.447265625 34 351.447265625 34 384.857421875 34 c 0,25,26
 419.552734375 34 419.552734375 34 448.46484375 38 c 128,-1,27
 477.377929688 42 477.377929688 42 499.22265625 48.5 c 128,-1,28
 521.067382812 55 521.067382812 55 533.275390625 64.5 c 128,-1,29
 545.482421875 74 545.482421875 74 545.482421875 85 c 256,30,31
 545.482421875 96 545.482421875 96 533.275390625 105.5 c 128,-1,32
 521.067382812 115 521.067382812 115 499.22265625 122 c 128,-1,33
 477.377929688 129 477.377929688 129 448.46484375 133 c 128,-1,34
 419.552734375 137 419.552734375 137 384.857421875 137 c 0,35,36
 351.447265625 137 351.447265625 137 321.892578125 133 c 128,-1,37
 292.337890625 129 292.337890625 129 270.4921875 122 c 128,-1,38
 248.647460938 115 248.647460938 115 236.440429688 105.5 c 128,-1,39
 224.232421875 96 224.232421875 96 224.232421875 85 c 256,20,21
121.432617188 272 m 0,40,41
 121.432617188 290 121.432617188 290 141.349609375 305 c 128,-1,42
 161.267578125 320 161.267578125 320 197.247070312 331.5 c 128,-1,43
 233.227539062 343 233.227539062 343 281.415039062 349 c 128,-1,44
 329.602539062 355 329.602539062 355 384.857421875 355 c 0,45,46
 441.397460938 355 441.397460938 355 489.584960938 349 c 128,-1,47
 537.772460938 343 537.772460938 343 573.110351562 331.5 c 128,-1,48
 608.447265625 320 608.447265625 320 629.0078125 305 c 128,-1,49
 649.567382812 290 649.567382812 290 649.567382812 272 c 0,50,51
 649.567382812 255 649.567382812 255 629.0078125 240 c 128,-1,52
 608.447265625 225 608.447265625 225 573.110351562 214 c 128,-1,53
 537.772460938 203 537.772460938 203 489.584960938 196 c 128,-1,54
 441.397460938 189 441.397460938 189 384.857421875 189 c 0,55,56
 329.602539062 189 329.602539062 189 281.415039062 196 c 128,-1,57
 233.227539062 203 233.227539062 203 197.247070312 214 c 128,-1,58
 161.267578125 225 161.267578125 225 141.349609375 240 c 128,-1,59
 121.432617188 255 121.432617188 255 121.432617188 272 c 0,40,41
224.232421875 272 m 256,60,61
 224.232421875 261 224.232421875 261 236.440429688 251.5 c 128,-1,62
 248.647460938 242 248.647460938 242 270.4921875 235 c 128,-1,63
 292.337890625 228 292.337890625 228 321.892578125 224 c 128,-1,64
 351.447265625 220 351.447265625 220 384.857421875 220 c 0,65,66
 419.552734375 220 419.552734375 220 448.46484375 224 c 128,-1,67
 477.377929688 228 477.377929688 228 499.22265625 235 c 128,-1,68
 521.067382812 242 521.067382812 242 533.275390625 251.5 c 128,-1,69
 545.482421875 261 545.482421875 261 545.482421875 272 c 256,70,71
 545.482421875 283 545.482421875 283 533.275390625 292.5 c 128,-1,72
 521.067382812 302 521.067382812 302 499.22265625 309 c 128,-1,73
 477.377929688 316 477.377929688 316 448.46484375 320 c 128,-1,74
 419.552734375 324 419.552734375 324 384.857421875 324 c 0,75,76
 351.447265625 324 351.447265625 324 321.892578125 320 c 128,-1,77
 292.337890625 316 292.337890625 316 270.4921875 309 c 128,-1,78
 248.647460938 302 248.647460938 302 236.440429688 292.5 c 128,-1,79
 224.232421875 283 224.232421875 283 224.232421875 272 c 256,60,61
121.432617188 461 m 256,80,81
 121.432617188 478 121.432617188 478 141.349609375 493.5 c 128,-1,82
 161.267578125 509 161.267578125 509 197.247070312 520 c 128,-1,83
 233.227539062 531 233.227539062 531 281.415039062 537.5 c 128,-1,84
 329.602539062 544 329.602539062 544 384.857421875 544 c 0,85,86
 441.397460938 544 441.397460938 544 489.584960938 537.5 c 128,-1,87
 537.772460938 531 537.772460938 531 573.110351562 520 c 128,-1,88
 608.447265625 509 608.447265625 509 629.0078125 493.5 c 128,-1,89
 649.567382812 478 649.567382812 478 649.567382812 461 c 256,90,91
 649.567382812 444 649.567382812 444 629.0078125 429 c 128,-1,92
 608.447265625 414 608.447265625 414 573.110351562 402.5 c 128,-1,93
 537.772460938 391 537.772460938 391 489.584960938 384.5 c 128,-1,94
 441.397460938 378 441.397460938 378 384.857421875 378 c 0,95,96
 329.602539062 378 329.602539062 378 281.415039062 384.5 c 128,-1,97
 233.227539062 391 233.227539062 391 197.247070312 402.5 c 128,-1,98
 161.267578125 414 161.267578125 414 141.349609375 429 c 128,-1,99
 121.432617188 444 121.432617188 444 121.432617188 461 c 256,80,81
121.432617188 648 m 256,100,101
 121.432617188 665 121.432617188 665 141.349609375 680.5 c 128,-1,102
 161.267578125 696 161.267578125 696 197.247070312 707 c 128,-1,103
 233.227539062 718 233.227539062 718 281.415039062 724.5 c 128,-1,104
 329.602539062 731 329.602539062 731 384.857421875 731 c 0,105,106
 441.397460938 731 441.397460938 731 489.584960938 724.5 c 128,-1,107
 537.772460938 718 537.772460938 718 573.110351562 707 c 128,-1,108
 608.447265625 696 608.447265625 696 629.0078125 680.5 c 128,-1,109
 649.567382812 665 649.567382812 665 649.567382812 648 c 256,110,111
 649.567382812 631 649.567382812 631 629.0078125 616 c 128,-1,112
 608.447265625 601 608.447265625 601 573.110351562 589.5 c 128,-1,113
 537.772460938 578 537.772460938 578 489.584960938 571.5 c 128,-1,114
 441.397460938 565 441.397460938 565 384.857421875 565 c 0,115,116
 329.602539062 565 329.602539062 565 281.415039062 571.5 c 128,-1,117
 233.227539062 578 233.227539062 578 197.247070312 589.5 c 128,-1,118
 161.267578125 601 161.267578125 601 141.349609375 616 c 128,-1,119
 121.432617188 631 121.432617188 631 121.432617188 648 c 256,100,101
224.232421875 648 m 0,120,121
 224.232421875 637 224.232421875 637 236.440429688 627.5 c 128,-1,122
 248.647460938 618 248.647460938 618 270.4921875 611 c 128,-1,123
 292.337890625 604 292.337890625 604 321.892578125 600 c 128,-1,124
 351.447265625 596 351.447265625 596 384.857421875 596 c 0,125,126
 419.552734375 596 419.552734375 596 448.46484375 600 c 128,-1,127
 477.377929688 604 477.377929688 604 499.22265625 611 c 128,-1,128
 521.067382812 618 521.067382812 618 533.275390625 627.5 c 128,-1,129
 545.482421875 637 545.482421875 637 545.482421875 648 c 0,130,131
 545.482421875 658 545.482421875 658 533.275390625 668 c 128,-1,132
 521.067382812 678 521.067382812 678 499.22265625 685 c 128,-1,133
 477.377929688 692 477.377929688 692 448.46484375 696 c 128,-1,134
 419.552734375 700 419.552734375 700 384.857421875 700 c 0,135,136
 351.447265625 700 351.447265625 700 321.892578125 696 c 128,-1,137
 292.337890625 692 292.337890625 692 270.4921875 685 c 128,-1,138
 248.647460938 678 248.647460938 678 236.440429688 668 c 128,-1,139
 224.232421875 658 224.232421875 658 224.232421875 648 c 0,120,121
EndSplineSet
EndChar

StartChar: uni0085
Encoding: 133 133 103
Width: 771
Flags: W
LayerCount: 2
Fore
SplineSet
121.432617188 85 m 0,0,1
 121.432617188 103 121.432617188 103 141.349609375 118 c 128,-1,2
 161.267578125 133 161.267578125 133 197.247070312 144.5 c 128,-1,3
 233.227539062 156 233.227539062 156 281.415039062 162.5 c 128,-1,4
 329.602539062 169 329.602539062 169 384.857421875 169 c 0,5,6
 441.397460938 169 441.397460938 169 489.584960938 162.5 c 128,-1,7
 537.772460938 156 537.772460938 156 573.110351562 144.5 c 128,-1,8
 608.447265625 133 608.447265625 133 629.0078125 118 c 128,-1,9
 649.567382812 103 649.567382812 103 649.567382812 85 c 0,10,11
 649.567382812 68 649.567382812 68 629.0078125 53 c 128,-1,12
 608.447265625 38 608.447265625 38 573.110351562 27 c 128,-1,13
 537.772460938 16 537.772460938 16 489.584960938 9.5 c 128,-1,14
 441.397460938 3 441.397460938 3 384.857421875 3 c 0,15,16
 329.602539062 3 329.602539062 3 281.415039062 9.5 c 128,-1,17
 233.227539062 16 233.227539062 16 197.247070312 27 c 128,-1,18
 161.267578125 38 161.267578125 38 141.349609375 53 c 128,-1,19
 121.432617188 68 121.432617188 68 121.432617188 85 c 0,0,1
121.432617188 272 m 0,20,21
 121.432617188 290 121.432617188 290 141.349609375 305 c 128,-1,22
 161.267578125 320 161.267578125 320 197.247070312 331.5 c 128,-1,23
 233.227539062 343 233.227539062 343 281.415039062 349 c 128,-1,24
 329.602539062 355 329.602539062 355 384.857421875 355 c 0,25,26
 441.397460938 355 441.397460938 355 489.584960938 349 c 128,-1,27
 537.772460938 343 537.772460938 343 573.110351562 331.5 c 128,-1,28
 608.447265625 320 608.447265625 320 629.0078125 305 c 128,-1,29
 649.567382812 290 649.567382812 290 649.567382812 272 c 0,30,31
 649.567382812 255 649.567382812 255 629.0078125 240 c 128,-1,32
 608.447265625 225 608.447265625 225 573.110351562 214 c 128,-1,33
 537.772460938 203 537.772460938 203 489.584960938 196 c 128,-1,34
 441.397460938 189 441.397460938 189 384.857421875 189 c 0,35,36
 329.602539062 189 329.602539062 189 281.415039062 196 c 128,-1,37
 233.227539062 203 233.227539062 203 197.247070312 214 c 128,-1,38
 161.267578125 225 161.267578125 225 141.349609375 240 c 128,-1,39
 121.432617188 255 121.432617188 255 121.432617188 272 c 0,20,21
224.232421875 272 m 256,40,41
 224.232421875 261 224.232421875 261 236.440429688 251.5 c 128,-1,42
 248.647460938 242 248.647460938 242 270.4921875 235 c 128,-1,43
 292.337890625 228 292.337890625 228 321.892578125 224 c 128,-1,44
 351.447265625 220 351.447265625 220 384.857421875 220 c 0,45,46
 419.552734375 220 419.552734375 220 448.46484375 224 c 128,-1,47
 477.377929688 228 477.377929688 228 499.22265625 235 c 128,-1,48
 521.067382812 242 521.067382812 242 533.275390625 251.5 c 128,-1,49
 545.482421875 261 545.482421875 261 545.482421875 272 c 256,50,51
 545.482421875 283 545.482421875 283 533.275390625 292.5 c 128,-1,52
 521.067382812 302 521.067382812 302 499.22265625 309 c 128,-1,53
 477.377929688 316 477.377929688 316 448.46484375 320 c 128,-1,54
 419.552734375 324 419.552734375 324 384.857421875 324 c 0,55,56
 351.447265625 324 351.447265625 324 321.892578125 320 c 128,-1,57
 292.337890625 316 292.337890625 316 270.4921875 309 c 128,-1,58
 248.647460938 302 248.647460938 302 236.440429688 292.5 c 128,-1,59
 224.232421875 283 224.232421875 283 224.232421875 272 c 256,40,41
121.432617188 461 m 256,60,61
 121.432617188 478 121.432617188 478 141.349609375 493.5 c 128,-1,62
 161.267578125 509 161.267578125 509 197.247070312 520 c 128,-1,63
 233.227539062 531 233.227539062 531 281.415039062 537.5 c 128,-1,64
 329.602539062 544 329.602539062 544 384.857421875 544 c 0,65,66
 441.397460938 544 441.397460938 544 489.584960938 537.5 c 128,-1,67
 537.772460938 531 537.772460938 531 573.110351562 520 c 128,-1,68
 608.447265625 509 608.447265625 509 629.0078125 493.5 c 128,-1,69
 649.567382812 478 649.567382812 478 649.567382812 461 c 256,70,71
 649.567382812 444 649.567382812 444 629.0078125 429 c 128,-1,72
 608.447265625 414 608.447265625 414 573.110351562 402.5 c 128,-1,73
 537.772460938 391 537.772460938 391 489.584960938 384.5 c 128,-1,74
 441.397460938 378 441.397460938 378 384.857421875 378 c 0,75,76
 329.602539062 378 329.602539062 378 281.415039062 384.5 c 128,-1,77
 233.227539062 391 233.227539062 391 197.247070312 402.5 c 128,-1,78
 161.267578125 414 161.267578125 414 141.349609375 429 c 128,-1,79
 121.432617188 444 121.432617188 444 121.432617188 461 c 256,60,61
121.432617188 648 m 256,80,81
 121.432617188 665 121.432617188 665 141.349609375 680.5 c 128,-1,82
 161.267578125 696 161.267578125 696 197.247070312 707 c 128,-1,83
 233.227539062 718 233.227539062 718 281.415039062 724.5 c 128,-1,84
 329.602539062 731 329.602539062 731 384.857421875 731 c 0,85,86
 441.397460938 731 441.397460938 731 489.584960938 724.5 c 128,-1,87
 537.772460938 718 537.772460938 718 573.110351562 707 c 128,-1,88
 608.447265625 696 608.447265625 696 629.0078125 680.5 c 128,-1,89
 649.567382812 665 649.567382812 665 649.567382812 648 c 256,90,91
 649.567382812 631 649.567382812 631 629.0078125 616 c 128,-1,92
 608.447265625 601 608.447265625 601 573.110351562 589.5 c 128,-1,93
 537.772460938 578 537.772460938 578 489.584960938 571.5 c 128,-1,94
 441.397460938 565 441.397460938 565 384.857421875 565 c 0,95,96
 329.602539062 565 329.602539062 565 281.415039062 571.5 c 128,-1,97
 233.227539062 578 233.227539062 578 197.247070312 589.5 c 128,-1,98
 161.267578125 601 161.267578125 601 141.349609375 616 c 128,-1,99
 121.432617188 631 121.432617188 631 121.432617188 648 c 256,80,81
224.232421875 648 m 0,100,101
 224.232421875 637 224.232421875 637 236.440429688 627.5 c 128,-1,102
 248.647460938 618 248.647460938 618 270.4921875 611 c 128,-1,103
 292.337890625 604 292.337890625 604 321.892578125 600 c 128,-1,104
 351.447265625 596 351.447265625 596 384.857421875 596 c 0,105,106
 419.552734375 596 419.552734375 596 448.46484375 600 c 128,-1,107
 477.377929688 604 477.377929688 604 499.22265625 611 c 128,-1,108
 521.067382812 618 521.067382812 618 533.275390625 627.5 c 128,-1,109
 545.482421875 637 545.482421875 637 545.482421875 648 c 0,110,111
 545.482421875 658 545.482421875 658 533.275390625 668 c 128,-1,112
 521.067382812 678 521.067382812 678 499.22265625 685 c 128,-1,113
 477.377929688 692 477.377929688 692 448.46484375 696 c 128,-1,114
 419.552734375 700 419.552734375 700 384.857421875 700 c 0,115,116
 351.447265625 700 351.447265625 700 321.892578125 696 c 128,-1,117
 292.337890625 692 292.337890625 692 270.4921875 685 c 128,-1,118
 248.647460938 678 248.647460938 678 236.440429688 668 c 128,-1,119
 224.232421875 658 224.232421875 658 224.232421875 648 c 0,100,101
EndSplineSet
EndChar

StartChar: uni0086
Encoding: 134 134 104
Width: 771
Flags: W
LayerCount: 2
Fore
SplineSet
121.432617188 85 m 0,0,1
 121.432617188 103 121.432617188 103 141.349609375 118 c 128,-1,2
 161.267578125 133 161.267578125 133 197.247070312 144.5 c 128,-1,3
 233.227539062 156 233.227539062 156 281.415039062 162.5 c 128,-1,4
 329.602539062 169 329.602539062 169 384.857421875 169 c 0,5,6
 441.397460938 169 441.397460938 169 489.584960938 162.5 c 128,-1,7
 537.772460938 156 537.772460938 156 573.110351562 144.5 c 128,-1,8
 608.447265625 133 608.447265625 133 629.0078125 118 c 128,-1,9
 649.567382812 103 649.567382812 103 649.567382812 85 c 0,10,11
 649.567382812 68 649.567382812 68 629.0078125 53 c 128,-1,12
 608.447265625 38 608.447265625 38 573.110351562 27 c 128,-1,13
 537.772460938 16 537.772460938 16 489.584960938 9.5 c 128,-1,14
 441.397460938 3 441.397460938 3 384.857421875 3 c 0,15,16
 329.602539062 3 329.602539062 3 281.415039062 9.5 c 128,-1,17
 233.227539062 16 233.227539062 16 197.247070312 27 c 128,-1,18
 161.267578125 38 161.267578125 38 141.349609375 53 c 128,-1,19
 121.432617188 68 121.432617188 68 121.432617188 85 c 0,0,1
224.232421875 85 m 256,20,21
 224.232421875 74 224.232421875 74 236.440429688 64.5 c 128,-1,22
 248.647460938 55 248.647460938 55 270.4921875 48.5 c 128,-1,23
 292.337890625 42 292.337890625 42 321.892578125 38 c 128,-1,24
 351.447265625 34 351.447265625 34 384.857421875 34 c 0,25,26
 419.552734375 34 419.552734375 34 448.46484375 38 c 128,-1,27
 477.377929688 42 477.377929688 42 499.22265625 48.5 c 128,-1,28
 521.067382812 55 521.067382812 55 533.275390625 64.5 c 128,-1,29
 545.482421875 74 545.482421875 74 545.482421875 85 c 256,30,31
 545.482421875 96 545.482421875 96 533.275390625 105.5 c 128,-1,32
 521.067382812 115 521.067382812 115 499.22265625 122 c 128,-1,33
 477.377929688 129 477.377929688 129 448.46484375 133 c 128,-1,34
 419.552734375 137 419.552734375 137 384.857421875 137 c 0,35,36
 351.447265625 137 351.447265625 137 321.892578125 133 c 128,-1,37
 292.337890625 129 292.337890625 129 270.4921875 122 c 128,-1,38
 248.647460938 115 248.647460938 115 236.440429688 105.5 c 128,-1,39
 224.232421875 96 224.232421875 96 224.232421875 85 c 256,20,21
121.432617188 272 m 0,40,41
 121.432617188 290 121.432617188 290 141.349609375 305 c 128,-1,42
 161.267578125 320 161.267578125 320 197.247070312 331.5 c 128,-1,43
 233.227539062 343 233.227539062 343 281.415039062 349 c 128,-1,44
 329.602539062 355 329.602539062 355 384.857421875 355 c 0,45,46
 441.397460938 355 441.397460938 355 489.584960938 349 c 128,-1,47
 537.772460938 343 537.772460938 343 573.110351562 331.5 c 128,-1,48
 608.447265625 320 608.447265625 320 629.0078125 305 c 128,-1,49
 649.567382812 290 649.567382812 290 649.567382812 272 c 0,50,51
 649.567382812 255 649.567382812 255 629.0078125 240 c 128,-1,52
 608.447265625 225 608.447265625 225 573.110351562 214 c 128,-1,53
 537.772460938 203 537.772460938 203 489.584960938 196 c 128,-1,54
 441.397460938 189 441.397460938 189 384.857421875 189 c 0,55,56
 329.602539062 189 329.602539062 189 281.415039062 196 c 128,-1,57
 233.227539062 203 233.227539062 203 197.247070312 214 c 128,-1,58
 161.267578125 225 161.267578125 225 141.349609375 240 c 128,-1,59
 121.432617188 255 121.432617188 255 121.432617188 272 c 0,40,41
121.432617188 461 m 256,60,61
 121.432617188 478 121.432617188 478 141.349609375 493.5 c 128,-1,62
 161.267578125 509 161.267578125 509 197.247070312 520 c 128,-1,63
 233.227539062 531 233.227539062 531 281.415039062 537.5 c 128,-1,64
 329.602539062 544 329.602539062 544 384.857421875 544 c 0,65,66
 441.397460938 544 441.397460938 544 489.584960938 537.5 c 128,-1,67
 537.772460938 531 537.772460938 531 573.110351562 520 c 128,-1,68
 608.447265625 509 608.447265625 509 629.0078125 493.5 c 128,-1,69
 649.567382812 478 649.567382812 478 649.567382812 461 c 256,70,71
 649.567382812 444 649.567382812 444 629.0078125 429 c 128,-1,72
 608.447265625 414 608.447265625 414 573.110351562 402.5 c 128,-1,73
 537.772460938 391 537.772460938 391 489.584960938 384.5 c 128,-1,74
 441.397460938 378 441.397460938 378 384.857421875 378 c 0,75,76
 329.602539062 378 329.602539062 378 281.415039062 384.5 c 128,-1,77
 233.227539062 391 233.227539062 391 197.247070312 402.5 c 128,-1,78
 161.267578125 414 161.267578125 414 141.349609375 429 c 128,-1,79
 121.432617188 444 121.432617188 444 121.432617188 461 c 256,60,61
121.432617188 648 m 256,80,81
 121.432617188 665 121.432617188 665 141.349609375 680.5 c 128,-1,82
 161.267578125 696 161.267578125 696 197.247070312 707 c 128,-1,83
 233.227539062 718 233.227539062 718 281.415039062 724.5 c 128,-1,84
 329.602539062 731 329.602539062 731 384.857421875 731 c 0,85,86
 441.397460938 731 441.397460938 731 489.584960938 724.5 c 128,-1,87
 537.772460938 718 537.772460938 718 573.110351562 707 c 128,-1,88
 608.447265625 696 608.447265625 696 629.0078125 680.5 c 128,-1,89
 649.567382812 665 649.567382812 665 649.567382812 648 c 256,90,91
 649.567382812 631 649.567382812 631 629.0078125 616 c 128,-1,92
 608.447265625 601 608.447265625 601 573.110351562 589.5 c 128,-1,93
 537.772460938 578 537.772460938 578 489.584960938 571.5 c 128,-1,94
 441.397460938 565 441.397460938 565 384.857421875 565 c 0,95,96
 329.602539062 565 329.602539062 565 281.415039062 571.5 c 128,-1,97
 233.227539062 578 233.227539062 578 197.247070312 589.5 c 128,-1,98
 161.267578125 601 161.267578125 601 141.349609375 616 c 128,-1,99
 121.432617188 631 121.432617188 631 121.432617188 648 c 256,80,81
224.232421875 648 m 0,100,101
 224.232421875 637 224.232421875 637 236.440429688 627.5 c 128,-1,102
 248.647460938 618 248.647460938 618 270.4921875 611 c 128,-1,103
 292.337890625 604 292.337890625 604 321.892578125 600 c 128,-1,104
 351.447265625 596 351.447265625 596 384.857421875 596 c 0,105,106
 419.552734375 596 419.552734375 596 448.46484375 600 c 128,-1,107
 477.377929688 604 477.377929688 604 499.22265625 611 c 128,-1,108
 521.067382812 618 521.067382812 618 533.275390625 627.5 c 128,-1,109
 545.482421875 637 545.482421875 637 545.482421875 648 c 0,110,111
 545.482421875 658 545.482421875 658 533.275390625 668 c 128,-1,112
 521.067382812 678 521.067382812 678 499.22265625 685 c 128,-1,113
 477.377929688 692 477.377929688 692 448.46484375 696 c 128,-1,114
 419.552734375 700 419.552734375 700 384.857421875 700 c 0,115,116
 351.447265625 700 351.447265625 700 321.892578125 696 c 128,-1,117
 292.337890625 692 292.337890625 692 270.4921875 685 c 128,-1,118
 248.647460938 678 248.647460938 678 236.440429688 668 c 128,-1,119
 224.232421875 658 224.232421875 658 224.232421875 648 c 0,100,101
EndSplineSet
EndChar

StartChar: uni0087
Encoding: 135 135 105
Width: 771
Flags: W
LayerCount: 2
Fore
SplineSet
121.432617188 85 m 0,0,1
 121.432617188 103 121.432617188 103 141.349609375 118 c 128,-1,2
 161.267578125 133 161.267578125 133 197.247070312 144.5 c 128,-1,3
 233.227539062 156 233.227539062 156 281.415039062 162.5 c 128,-1,4
 329.602539062 169 329.602539062 169 384.857421875 169 c 0,5,6
 441.397460938 169 441.397460938 169 489.584960938 162.5 c 128,-1,7
 537.772460938 156 537.772460938 156 573.110351562 144.5 c 128,-1,8
 608.447265625 133 608.447265625 133 629.0078125 118 c 128,-1,9
 649.567382812 103 649.567382812 103 649.567382812 85 c 0,10,11
 649.567382812 68 649.567382812 68 629.0078125 53 c 128,-1,12
 608.447265625 38 608.447265625 38 573.110351562 27 c 128,-1,13
 537.772460938 16 537.772460938 16 489.584960938 9.5 c 128,-1,14
 441.397460938 3 441.397460938 3 384.857421875 3 c 0,15,16
 329.602539062 3 329.602539062 3 281.415039062 9.5 c 128,-1,17
 233.227539062 16 233.227539062 16 197.247070312 27 c 128,-1,18
 161.267578125 38 161.267578125 38 141.349609375 53 c 128,-1,19
 121.432617188 68 121.432617188 68 121.432617188 85 c 0,0,1
121.432617188 272 m 0,20,21
 121.432617188 290 121.432617188 290 141.349609375 305 c 128,-1,22
 161.267578125 320 161.267578125 320 197.247070312 331.5 c 128,-1,23
 233.227539062 343 233.227539062 343 281.415039062 349 c 128,-1,24
 329.602539062 355 329.602539062 355 384.857421875 355 c 0,25,26
 441.397460938 355 441.397460938 355 489.584960938 349 c 128,-1,27
 537.772460938 343 537.772460938 343 573.110351562 331.5 c 128,-1,28
 608.447265625 320 608.447265625 320 629.0078125 305 c 128,-1,29
 649.567382812 290 649.567382812 290 649.567382812 272 c 0,30,31
 649.567382812 255 649.567382812 255 629.0078125 240 c 128,-1,32
 608.447265625 225 608.447265625 225 573.110351562 214 c 128,-1,33
 537.772460938 203 537.772460938 203 489.584960938 196 c 128,-1,34
 441.397460938 189 441.397460938 189 384.857421875 189 c 0,35,36
 329.602539062 189 329.602539062 189 281.415039062 196 c 128,-1,37
 233.227539062 203 233.227539062 203 197.247070312 214 c 128,-1,38
 161.267578125 225 161.267578125 225 141.349609375 240 c 128,-1,39
 121.432617188 255 121.432617188 255 121.432617188 272 c 0,20,21
121.432617188 461 m 256,40,41
 121.432617188 478 121.432617188 478 141.349609375 493.5 c 128,-1,42
 161.267578125 509 161.267578125 509 197.247070312 520 c 128,-1,43
 233.227539062 531 233.227539062 531 281.415039062 537.5 c 128,-1,44
 329.602539062 544 329.602539062 544 384.857421875 544 c 0,45,46
 441.397460938 544 441.397460938 544 489.584960938 537.5 c 128,-1,47
 537.772460938 531 537.772460938 531 573.110351562 520 c 128,-1,48
 608.447265625 509 608.447265625 509 629.0078125 493.5 c 128,-1,49
 649.567382812 478 649.567382812 478 649.567382812 461 c 256,50,51
 649.567382812 444 649.567382812 444 629.0078125 429 c 128,-1,52
 608.447265625 414 608.447265625 414 573.110351562 402.5 c 128,-1,53
 537.772460938 391 537.772460938 391 489.584960938 384.5 c 128,-1,54
 441.397460938 378 441.397460938 378 384.857421875 378 c 0,55,56
 329.602539062 378 329.602539062 378 281.415039062 384.5 c 128,-1,57
 233.227539062 391 233.227539062 391 197.247070312 402.5 c 128,-1,58
 161.267578125 414 161.267578125 414 141.349609375 429 c 128,-1,59
 121.432617188 444 121.432617188 444 121.432617188 461 c 256,40,41
121.432617188 648 m 256,60,61
 121.432617188 665 121.432617188 665 141.349609375 680.5 c 128,-1,62
 161.267578125 696 161.267578125 696 197.247070312 707 c 128,-1,63
 233.227539062 718 233.227539062 718 281.415039062 724.5 c 128,-1,64
 329.602539062 731 329.602539062 731 384.857421875 731 c 0,65,66
 441.397460938 731 441.397460938 731 489.584960938 724.5 c 128,-1,67
 537.772460938 718 537.772460938 718 573.110351562 707 c 128,-1,68
 608.447265625 696 608.447265625 696 629.0078125 680.5 c 128,-1,69
 649.567382812 665 649.567382812 665 649.567382812 648 c 256,70,71
 649.567382812 631 649.567382812 631 629.0078125 616 c 128,-1,72
 608.447265625 601 608.447265625 601 573.110351562 589.5 c 128,-1,73
 537.772460938 578 537.772460938 578 489.584960938 571.5 c 128,-1,74
 441.397460938 565 441.397460938 565 384.857421875 565 c 0,75,76
 329.602539062 565 329.602539062 565 281.415039062 571.5 c 128,-1,77
 233.227539062 578 233.227539062 578 197.247070312 589.5 c 128,-1,78
 161.267578125 601 161.267578125 601 141.349609375 616 c 128,-1,79
 121.432617188 631 121.432617188 631 121.432617188 648 c 256,60,61
224.232421875 648 m 0,80,81
 224.232421875 637 224.232421875 637 236.440429688 627.5 c 128,-1,82
 248.647460938 618 248.647460938 618 270.4921875 611 c 128,-1,83
 292.337890625 604 292.337890625 604 321.892578125 600 c 128,-1,84
 351.447265625 596 351.447265625 596 384.857421875 596 c 0,85,86
 419.552734375 596 419.552734375 596 448.46484375 600 c 128,-1,87
 477.377929688 604 477.377929688 604 499.22265625 611 c 128,-1,88
 521.067382812 618 521.067382812 618 533.275390625 627.5 c 128,-1,89
 545.482421875 637 545.482421875 637 545.482421875 648 c 0,90,91
 545.482421875 658 545.482421875 658 533.275390625 668 c 128,-1,92
 521.067382812 678 521.067382812 678 499.22265625 685 c 128,-1,93
 477.377929688 692 477.377929688 692 448.46484375 696 c 128,-1,94
 419.552734375 700 419.552734375 700 384.857421875 700 c 0,95,96
 351.447265625 700 351.447265625 700 321.892578125 696 c 128,-1,97
 292.337890625 692 292.337890625 692 270.4921875 685 c 128,-1,98
 248.647460938 678 248.647460938 678 236.440429688 668 c 128,-1,99
 224.232421875 658 224.232421875 658 224.232421875 648 c 0,80,81
EndSplineSet
EndChar

StartChar: uni0088
Encoding: 136 136 106
Width: 771
Flags: W
LayerCount: 2
Fore
SplineSet
121.432617188 85 m 0,0,1
 121.432617188 103 121.432617188 103 141.349609375 118 c 128,-1,2
 161.267578125 133 161.267578125 133 197.247070312 144.5 c 128,-1,3
 233.227539062 156 233.227539062 156 281.415039062 162.5 c 128,-1,4
 329.602539062 169 329.602539062 169 384.857421875 169 c 0,5,6
 441.397460938 169 441.397460938 169 489.584960938 162.5 c 128,-1,7
 537.772460938 156 537.772460938 156 573.110351562 144.5 c 128,-1,8
 608.447265625 133 608.447265625 133 629.0078125 118 c 128,-1,9
 649.567382812 103 649.567382812 103 649.567382812 85 c 0,10,11
 649.567382812 68 649.567382812 68 629.0078125 53 c 128,-1,12
 608.447265625 38 608.447265625 38 573.110351562 27 c 128,-1,13
 537.772460938 16 537.772460938 16 489.584960938 9.5 c 128,-1,14
 441.397460938 3 441.397460938 3 384.857421875 3 c 0,15,16
 329.602539062 3 329.602539062 3 281.415039062 9.5 c 128,-1,17
 233.227539062 16 233.227539062 16 197.247070312 27 c 128,-1,18
 161.267578125 38 161.267578125 38 141.349609375 53 c 128,-1,19
 121.432617188 68 121.432617188 68 121.432617188 85 c 0,0,1
224.232421875 85 m 256,20,21
 224.232421875 74 224.232421875 74 236.440429688 64.5 c 128,-1,22
 248.647460938 55 248.647460938 55 270.4921875 48.5 c 128,-1,23
 292.337890625 42 292.337890625 42 321.892578125 38 c 128,-1,24
 351.447265625 34 351.447265625 34 384.857421875 34 c 0,25,26
 419.552734375 34 419.552734375 34 448.46484375 38 c 128,-1,27
 477.377929688 42 477.377929688 42 499.22265625 48.5 c 128,-1,28
 521.067382812 55 521.067382812 55 533.275390625 64.5 c 128,-1,29
 545.482421875 74 545.482421875 74 545.482421875 85 c 256,30,31
 545.482421875 96 545.482421875 96 533.275390625 105.5 c 128,-1,32
 521.067382812 115 521.067382812 115 499.22265625 122 c 128,-1,33
 477.377929688 129 477.377929688 129 448.46484375 133 c 128,-1,34
 419.552734375 137 419.552734375 137 384.857421875 137 c 0,35,36
 351.447265625 137 351.447265625 137 321.892578125 133 c 128,-1,37
 292.337890625 129 292.337890625 129 270.4921875 122 c 128,-1,38
 248.647460938 115 248.647460938 115 236.440429688 105.5 c 128,-1,39
 224.232421875 96 224.232421875 96 224.232421875 85 c 256,20,21
121.432617188 272 m 0,40,41
 121.432617188 290 121.432617188 290 141.349609375 305 c 128,-1,42
 161.267578125 320 161.267578125 320 197.247070312 331.5 c 128,-1,43
 233.227539062 343 233.227539062 343 281.415039062 349 c 128,-1,44
 329.602539062 355 329.602539062 355 384.857421875 355 c 0,45,46
 441.397460938 355 441.397460938 355 489.584960938 349 c 128,-1,47
 537.772460938 343 537.772460938 343 573.110351562 331.5 c 128,-1,48
 608.447265625 320 608.447265625 320 629.0078125 305 c 128,-1,49
 649.567382812 290 649.567382812 290 649.567382812 272 c 0,50,51
 649.567382812 255 649.567382812 255 629.0078125 240 c 128,-1,52
 608.447265625 225 608.447265625 225 573.110351562 214 c 128,-1,53
 537.772460938 203 537.772460938 203 489.584960938 196 c 128,-1,54
 441.397460938 189 441.397460938 189 384.857421875 189 c 0,55,56
 329.602539062 189 329.602539062 189 281.415039062 196 c 128,-1,57
 233.227539062 203 233.227539062 203 197.247070312 214 c 128,-1,58
 161.267578125 225 161.267578125 225 141.349609375 240 c 128,-1,59
 121.432617188 255 121.432617188 255 121.432617188 272 c 0,40,41
224.232421875 272 m 256,60,61
 224.232421875 261 224.232421875 261 236.440429688 251.5 c 128,-1,62
 248.647460938 242 248.647460938 242 270.4921875 235 c 128,-1,63
 292.337890625 228 292.337890625 228 321.892578125 224 c 128,-1,64
 351.447265625 220 351.447265625 220 384.857421875 220 c 0,65,66
 419.552734375 220 419.552734375 220 448.46484375 224 c 128,-1,67
 477.377929688 228 477.377929688 228 499.22265625 235 c 128,-1,68
 521.067382812 242 521.067382812 242 533.275390625 251.5 c 128,-1,69
 545.482421875 261 545.482421875 261 545.482421875 272 c 256,70,71
 545.482421875 283 545.482421875 283 533.275390625 292.5 c 128,-1,72
 521.067382812 302 521.067382812 302 499.22265625 309 c 128,-1,73
 477.377929688 316 477.377929688 316 448.46484375 320 c 128,-1,74
 419.552734375 324 419.552734375 324 384.857421875 324 c 0,75,76
 351.447265625 324 351.447265625 324 321.892578125 320 c 128,-1,77
 292.337890625 316 292.337890625 316 270.4921875 309 c 128,-1,78
 248.647460938 302 248.647460938 302 236.440429688 292.5 c 128,-1,79
 224.232421875 283 224.232421875 283 224.232421875 272 c 256,60,61
121.432617188 461 m 256,80,81
 121.432617188 478 121.432617188 478 141.349609375 493.5 c 128,-1,82
 161.267578125 509 161.267578125 509 197.247070312 520 c 128,-1,83
 233.227539062 531 233.227539062 531 281.415039062 537.5 c 128,-1,84
 329.602539062 544 329.602539062 544 384.857421875 544 c 0,85,86
 441.397460938 544 441.397460938 544 489.584960938 537.5 c 128,-1,87
 537.772460938 531 537.772460938 531 573.110351562 520 c 128,-1,88
 608.447265625 509 608.447265625 509 629.0078125 493.5 c 128,-1,89
 649.567382812 478 649.567382812 478 649.567382812 461 c 256,90,91
 649.567382812 444 649.567382812 444 629.0078125 429 c 128,-1,92
 608.447265625 414 608.447265625 414 573.110351562 402.5 c 128,-1,93
 537.772460938 391 537.772460938 391 489.584960938 384.5 c 128,-1,94
 441.397460938 378 441.397460938 378 384.857421875 378 c 0,95,96
 329.602539062 378 329.602539062 378 281.415039062 384.5 c 128,-1,97
 233.227539062 391 233.227539062 391 197.247070312 402.5 c 128,-1,98
 161.267578125 414 161.267578125 414 141.349609375 429 c 128,-1,99
 121.432617188 444 121.432617188 444 121.432617188 461 c 256,80,81
224.232421875 461 m 256,100,101
 224.232421875 450 224.232421875 450 236.440429688 440.5 c 128,-1,102
 248.647460938 431 248.647460938 431 270.4921875 424 c 128,-1,103
 292.337890625 417 292.337890625 417 321.892578125 413 c 128,-1,104
 351.447265625 409 351.447265625 409 384.857421875 409 c 0,105,106
 419.552734375 409 419.552734375 409 448.46484375 413 c 128,-1,107
 477.377929688 417 477.377929688 417 499.22265625 424 c 128,-1,108
 521.067382812 431 521.067382812 431 533.275390625 440.5 c 128,-1,109
 545.482421875 450 545.482421875 450 545.482421875 461 c 256,110,111
 545.482421875 472 545.482421875 472 533.275390625 481.5 c 128,-1,112
 521.067382812 491 521.067382812 491 499.22265625 498 c 128,-1,113
 477.377929688 505 477.377929688 505 448.46484375 509 c 128,-1,114
 419.552734375 513 419.552734375 513 384.857421875 513 c 0,115,116
 351.447265625 513 351.447265625 513 321.892578125 509 c 128,-1,117
 292.337890625 505 292.337890625 505 270.4921875 498 c 128,-1,118
 248.647460938 491 248.647460938 491 236.440429688 481.5 c 128,-1,119
 224.232421875 472 224.232421875 472 224.232421875 461 c 256,100,101
121.432617188 648 m 256,120,121
 121.432617188 665 121.432617188 665 141.349609375 680.5 c 128,-1,122
 161.267578125 696 161.267578125 696 197.247070312 707 c 128,-1,123
 233.227539062 718 233.227539062 718 281.415039062 724.5 c 128,-1,124
 329.602539062 731 329.602539062 731 384.857421875 731 c 0,125,126
 441.397460938 731 441.397460938 731 489.584960938 724.5 c 128,-1,127
 537.772460938 718 537.772460938 718 573.110351562 707 c 128,-1,128
 608.447265625 696 608.447265625 696 629.0078125 680.5 c 128,-1,129
 649.567382812 665 649.567382812 665 649.567382812 648 c 256,130,131
 649.567382812 631 649.567382812 631 629.0078125 616 c 128,-1,132
 608.447265625 601 608.447265625 601 573.110351562 589.5 c 128,-1,133
 537.772460938 578 537.772460938 578 489.584960938 571.5 c 128,-1,134
 441.397460938 565 441.397460938 565 384.857421875 565 c 0,135,136
 329.602539062 565 329.602539062 565 281.415039062 571.5 c 128,-1,137
 233.227539062 578 233.227539062 578 197.247070312 589.5 c 128,-1,138
 161.267578125 601 161.267578125 601 141.349609375 616 c 128,-1,139
 121.432617188 631 121.432617188 631 121.432617188 648 c 256,120,121
EndSplineSet
EndChar

StartChar: uni0089
Encoding: 137 137 107
Width: 771
Flags: W
LayerCount: 2
Fore
SplineSet
121.432617188 85 m 0,0,1
 121.432617188 103 121.432617188 103 141.349609375 118 c 128,-1,2
 161.267578125 133 161.267578125 133 197.247070312 144.5 c 128,-1,3
 233.227539062 156 233.227539062 156 281.415039062 162.5 c 128,-1,4
 329.602539062 169 329.602539062 169 384.857421875 169 c 0,5,6
 441.397460938 169 441.397460938 169 489.584960938 162.5 c 128,-1,7
 537.772460938 156 537.772460938 156 573.110351562 144.5 c 128,-1,8
 608.447265625 133 608.447265625 133 629.0078125 118 c 128,-1,9
 649.567382812 103 649.567382812 103 649.567382812 85 c 0,10,11
 649.567382812 68 649.567382812 68 629.0078125 53 c 128,-1,12
 608.447265625 38 608.447265625 38 573.110351562 27 c 128,-1,13
 537.772460938 16 537.772460938 16 489.584960938 9.5 c 128,-1,14
 441.397460938 3 441.397460938 3 384.857421875 3 c 0,15,16
 329.602539062 3 329.602539062 3 281.415039062 9.5 c 128,-1,17
 233.227539062 16 233.227539062 16 197.247070312 27 c 128,-1,18
 161.267578125 38 161.267578125 38 141.349609375 53 c 128,-1,19
 121.432617188 68 121.432617188 68 121.432617188 85 c 0,0,1
121.432617188 272 m 0,20,21
 121.432617188 290 121.432617188 290 141.349609375 305 c 128,-1,22
 161.267578125 320 161.267578125 320 197.247070312 331.5 c 128,-1,23
 233.227539062 343 233.227539062 343 281.415039062 349 c 128,-1,24
 329.602539062 355 329.602539062 355 384.857421875 355 c 0,25,26
 441.397460938 355 441.397460938 355 489.584960938 349 c 128,-1,27
 537.772460938 343 537.772460938 343 573.110351562 331.5 c 128,-1,28
 608.447265625 320 608.447265625 320 629.0078125 305 c 128,-1,29
 649.567382812 290 649.567382812 290 649.567382812 272 c 0,30,31
 649.567382812 255 649.567382812 255 629.0078125 240 c 128,-1,32
 608.447265625 225 608.447265625 225 573.110351562 214 c 128,-1,33
 537.772460938 203 537.772460938 203 489.584960938 196 c 128,-1,34
 441.397460938 189 441.397460938 189 384.857421875 189 c 0,35,36
 329.602539062 189 329.602539062 189 281.415039062 196 c 128,-1,37
 233.227539062 203 233.227539062 203 197.247070312 214 c 128,-1,38
 161.267578125 225 161.267578125 225 141.349609375 240 c 128,-1,39
 121.432617188 255 121.432617188 255 121.432617188 272 c 0,20,21
224.232421875 272 m 256,40,41
 224.232421875 261 224.232421875 261 236.440429688 251.5 c 128,-1,42
 248.647460938 242 248.647460938 242 270.4921875 235 c 128,-1,43
 292.337890625 228 292.337890625 228 321.892578125 224 c 128,-1,44
 351.447265625 220 351.447265625 220 384.857421875 220 c 0,45,46
 419.552734375 220 419.552734375 220 448.46484375 224 c 128,-1,47
 477.377929688 228 477.377929688 228 499.22265625 235 c 128,-1,48
 521.067382812 242 521.067382812 242 533.275390625 251.5 c 128,-1,49
 545.482421875 261 545.482421875 261 545.482421875 272 c 256,50,51
 545.482421875 283 545.482421875 283 533.275390625 292.5 c 128,-1,52
 521.067382812 302 521.067382812 302 499.22265625 309 c 128,-1,53
 477.377929688 316 477.377929688 316 448.46484375 320 c 128,-1,54
 419.552734375 324 419.552734375 324 384.857421875 324 c 0,55,56
 351.447265625 324 351.447265625 324 321.892578125 320 c 128,-1,57
 292.337890625 316 292.337890625 316 270.4921875 309 c 128,-1,58
 248.647460938 302 248.647460938 302 236.440429688 292.5 c 128,-1,59
 224.232421875 283 224.232421875 283 224.232421875 272 c 256,40,41
121.432617188 461 m 256,60,61
 121.432617188 478 121.432617188 478 141.349609375 493.5 c 128,-1,62
 161.267578125 509 161.267578125 509 197.247070312 520 c 128,-1,63
 233.227539062 531 233.227539062 531 281.415039062 537.5 c 128,-1,64
 329.602539062 544 329.602539062 544 384.857421875 544 c 0,65,66
 441.397460938 544 441.397460938 544 489.584960938 537.5 c 128,-1,67
 537.772460938 531 537.772460938 531 573.110351562 520 c 128,-1,68
 608.447265625 509 608.447265625 509 629.0078125 493.5 c 128,-1,69
 649.567382812 478 649.567382812 478 649.567382812 461 c 256,70,71
 649.567382812 444 649.567382812 444 629.0078125 429 c 128,-1,72
 608.447265625 414 608.447265625 414 573.110351562 402.5 c 128,-1,73
 537.772460938 391 537.772460938 391 489.584960938 384.5 c 128,-1,74
 441.397460938 378 441.397460938 378 384.857421875 378 c 0,75,76
 329.602539062 378 329.602539062 378 281.415039062 384.5 c 128,-1,77
 233.227539062 391 233.227539062 391 197.247070312 402.5 c 128,-1,78
 161.267578125 414 161.267578125 414 141.349609375 429 c 128,-1,79
 121.432617188 444 121.432617188 444 121.432617188 461 c 256,60,61
224.232421875 461 m 256,80,81
 224.232421875 450 224.232421875 450 236.440429688 440.5 c 128,-1,82
 248.647460938 431 248.647460938 431 270.4921875 424 c 128,-1,83
 292.337890625 417 292.337890625 417 321.892578125 413 c 128,-1,84
 351.447265625 409 351.447265625 409 384.857421875 409 c 0,85,86
 419.552734375 409 419.552734375 409 448.46484375 413 c 128,-1,87
 477.377929688 417 477.377929688 417 499.22265625 424 c 128,-1,88
 521.067382812 431 521.067382812 431 533.275390625 440.5 c 128,-1,89
 545.482421875 450 545.482421875 450 545.482421875 461 c 256,90,91
 545.482421875 472 545.482421875 472 533.275390625 481.5 c 128,-1,92
 521.067382812 491 521.067382812 491 499.22265625 498 c 128,-1,93
 477.377929688 505 477.377929688 505 448.46484375 509 c 128,-1,94
 419.552734375 513 419.552734375 513 384.857421875 513 c 0,95,96
 351.447265625 513 351.447265625 513 321.892578125 509 c 128,-1,97
 292.337890625 505 292.337890625 505 270.4921875 498 c 128,-1,98
 248.647460938 491 248.647460938 491 236.440429688 481.5 c 128,-1,99
 224.232421875 472 224.232421875 472 224.232421875 461 c 256,80,81
121.432617188 648 m 256,100,101
 121.432617188 665 121.432617188 665 141.349609375 680.5 c 128,-1,102
 161.267578125 696 161.267578125 696 197.247070312 707 c 128,-1,103
 233.227539062 718 233.227539062 718 281.415039062 724.5 c 128,-1,104
 329.602539062 731 329.602539062 731 384.857421875 731 c 0,105,106
 441.397460938 731 441.397460938 731 489.584960938 724.5 c 128,-1,107
 537.772460938 718 537.772460938 718 573.110351562 707 c 128,-1,108
 608.447265625 696 608.447265625 696 629.0078125 680.5 c 128,-1,109
 649.567382812 665 649.567382812 665 649.567382812 648 c 256,110,111
 649.567382812 631 649.567382812 631 629.0078125 616 c 128,-1,112
 608.447265625 601 608.447265625 601 573.110351562 589.5 c 128,-1,113
 537.772460938 578 537.772460938 578 489.584960938 571.5 c 128,-1,114
 441.397460938 565 441.397460938 565 384.857421875 565 c 0,115,116
 329.602539062 565 329.602539062 565 281.415039062 571.5 c 128,-1,117
 233.227539062 578 233.227539062 578 197.247070312 589.5 c 128,-1,118
 161.267578125 601 161.267578125 601 141.349609375 616 c 128,-1,119
 121.432617188 631 121.432617188 631 121.432617188 648 c 256,100,101
EndSplineSet
EndChar

StartChar: uni008A
Encoding: 138 138 108
Width: 771
Flags: W
LayerCount: 2
Fore
SplineSet
121.432617188 85 m 0,0,1
 121.432617188 103 121.432617188 103 141.349609375 118 c 128,-1,2
 161.267578125 133 161.267578125 133 197.247070312 144.5 c 128,-1,3
 233.227539062 156 233.227539062 156 281.415039062 162.5 c 128,-1,4
 329.602539062 169 329.602539062 169 384.857421875 169 c 0,5,6
 441.397460938 169 441.397460938 169 489.584960938 162.5 c 128,-1,7
 537.772460938 156 537.772460938 156 573.110351562 144.5 c 128,-1,8
 608.447265625 133 608.447265625 133 629.0078125 118 c 128,-1,9
 649.567382812 103 649.567382812 103 649.567382812 85 c 0,10,11
 649.567382812 68 649.567382812 68 629.0078125 53 c 128,-1,12
 608.447265625 38 608.447265625 38 573.110351562 27 c 128,-1,13
 537.772460938 16 537.772460938 16 489.584960938 9.5 c 128,-1,14
 441.397460938 3 441.397460938 3 384.857421875 3 c 0,15,16
 329.602539062 3 329.602539062 3 281.415039062 9.5 c 128,-1,17
 233.227539062 16 233.227539062 16 197.247070312 27 c 128,-1,18
 161.267578125 38 161.267578125 38 141.349609375 53 c 128,-1,19
 121.432617188 68 121.432617188 68 121.432617188 85 c 0,0,1
224.232421875 85 m 256,20,21
 224.232421875 74 224.232421875 74 236.440429688 64.5 c 128,-1,22
 248.647460938 55 248.647460938 55 270.4921875 48.5 c 128,-1,23
 292.337890625 42 292.337890625 42 321.892578125 38 c 128,-1,24
 351.447265625 34 351.447265625 34 384.857421875 34 c 0,25,26
 419.552734375 34 419.552734375 34 448.46484375 38 c 128,-1,27
 477.377929688 42 477.377929688 42 499.22265625 48.5 c 128,-1,28
 521.067382812 55 521.067382812 55 533.275390625 64.5 c 128,-1,29
 545.482421875 74 545.482421875 74 545.482421875 85 c 256,30,31
 545.482421875 96 545.482421875 96 533.275390625 105.5 c 128,-1,32
 521.067382812 115 521.067382812 115 499.22265625 122 c 128,-1,33
 477.377929688 129 477.377929688 129 448.46484375 133 c 128,-1,34
 419.552734375 137 419.552734375 137 384.857421875 137 c 0,35,36
 351.447265625 137 351.447265625 137 321.892578125 133 c 128,-1,37
 292.337890625 129 292.337890625 129 270.4921875 122 c 128,-1,38
 248.647460938 115 248.647460938 115 236.440429688 105.5 c 128,-1,39
 224.232421875 96 224.232421875 96 224.232421875 85 c 256,20,21
121.432617188 272 m 0,40,41
 121.432617188 290 121.432617188 290 141.349609375 305 c 128,-1,42
 161.267578125 320 161.267578125 320 197.247070312 331.5 c 128,-1,43
 233.227539062 343 233.227539062 343 281.415039062 349 c 128,-1,44
 329.602539062 355 329.602539062 355 384.857421875 355 c 0,45,46
 441.397460938 355 441.397460938 355 489.584960938 349 c 128,-1,47
 537.772460938 343 537.772460938 343 573.110351562 331.5 c 128,-1,48
 608.447265625 320 608.447265625 320 629.0078125 305 c 128,-1,49
 649.567382812 290 649.567382812 290 649.567382812 272 c 0,50,51
 649.567382812 255 649.567382812 255 629.0078125 240 c 128,-1,52
 608.447265625 225 608.447265625 225 573.110351562 214 c 128,-1,53
 537.772460938 203 537.772460938 203 489.584960938 196 c 128,-1,54
 441.397460938 189 441.397460938 189 384.857421875 189 c 0,55,56
 329.602539062 189 329.602539062 189 281.415039062 196 c 128,-1,57
 233.227539062 203 233.227539062 203 197.247070312 214 c 128,-1,58
 161.267578125 225 161.267578125 225 141.349609375 240 c 128,-1,59
 121.432617188 255 121.432617188 255 121.432617188 272 c 0,40,41
121.432617188 461 m 256,60,61
 121.432617188 478 121.432617188 478 141.349609375 493.5 c 128,-1,62
 161.267578125 509 161.267578125 509 197.247070312 520 c 128,-1,63
 233.227539062 531 233.227539062 531 281.415039062 537.5 c 128,-1,64
 329.602539062 544 329.602539062 544 384.857421875 544 c 0,65,66
 441.397460938 544 441.397460938 544 489.584960938 537.5 c 128,-1,67
 537.772460938 531 537.772460938 531 573.110351562 520 c 128,-1,68
 608.447265625 509 608.447265625 509 629.0078125 493.5 c 128,-1,69
 649.567382812 478 649.567382812 478 649.567382812 461 c 256,70,71
 649.567382812 444 649.567382812 444 629.0078125 429 c 128,-1,72
 608.447265625 414 608.447265625 414 573.110351562 402.5 c 128,-1,73
 537.772460938 391 537.772460938 391 489.584960938 384.5 c 128,-1,74
 441.397460938 378 441.397460938 378 384.857421875 378 c 0,75,76
 329.602539062 378 329.602539062 378 281.415039062 384.5 c 128,-1,77
 233.227539062 391 233.227539062 391 197.247070312 402.5 c 128,-1,78
 161.267578125 414 161.267578125 414 141.349609375 429 c 128,-1,79
 121.432617188 444 121.432617188 444 121.432617188 461 c 256,60,61
224.232421875 461 m 256,80,81
 224.232421875 450 224.232421875 450 236.440429688 440.5 c 128,-1,82
 248.647460938 431 248.647460938 431 270.4921875 424 c 128,-1,83
 292.337890625 417 292.337890625 417 321.892578125 413 c 128,-1,84
 351.447265625 409 351.447265625 409 384.857421875 409 c 0,85,86
 419.552734375 409 419.552734375 409 448.46484375 413 c 128,-1,87
 477.377929688 417 477.377929688 417 499.22265625 424 c 128,-1,88
 521.067382812 431 521.067382812 431 533.275390625 440.5 c 128,-1,89
 545.482421875 450 545.482421875 450 545.482421875 461 c 256,90,91
 545.482421875 472 545.482421875 472 533.275390625 481.5 c 128,-1,92
 521.067382812 491 521.067382812 491 499.22265625 498 c 128,-1,93
 477.377929688 505 477.377929688 505 448.46484375 509 c 128,-1,94
 419.552734375 513 419.552734375 513 384.857421875 513 c 0,95,96
 351.447265625 513 351.447265625 513 321.892578125 509 c 128,-1,97
 292.337890625 505 292.337890625 505 270.4921875 498 c 128,-1,98
 248.647460938 491 248.647460938 491 236.440429688 481.5 c 128,-1,99
 224.232421875 472 224.232421875 472 224.232421875 461 c 256,80,81
121.432617188 648 m 256,100,101
 121.432617188 665 121.432617188 665 141.349609375 680.5 c 128,-1,102
 161.267578125 696 161.267578125 696 197.247070312 707 c 128,-1,103
 233.227539062 718 233.227539062 718 281.415039062 724.5 c 128,-1,104
 329.602539062 731 329.602539062 731 384.857421875 731 c 0,105,106
 441.397460938 731 441.397460938 731 489.584960938 724.5 c 128,-1,107
 537.772460938 718 537.772460938 718 573.110351562 707 c 128,-1,108
 608.447265625 696 608.447265625 696 629.0078125 680.5 c 128,-1,109
 649.567382812 665 649.567382812 665 649.567382812 648 c 256,110,111
 649.567382812 631 649.567382812 631 629.0078125 616 c 128,-1,112
 608.447265625 601 608.447265625 601 573.110351562 589.5 c 128,-1,113
 537.772460938 578 537.772460938 578 489.584960938 571.5 c 128,-1,114
 441.397460938 565 441.397460938 565 384.857421875 565 c 0,115,116
 329.602539062 565 329.602539062 565 281.415039062 571.5 c 128,-1,117
 233.227539062 578 233.227539062 578 197.247070312 589.5 c 128,-1,118
 161.267578125 601 161.267578125 601 141.349609375 616 c 128,-1,119
 121.432617188 631 121.432617188 631 121.432617188 648 c 256,100,101
EndSplineSet
EndChar

